<?xml version="1.0" standalone="no"?>
<!DOCTYPE svg PUBLIC "-//W3C//DTD SVG 20010904//EN"
 "http://www.w3.org/TR/2001/REC-SVG-20010904/DTD/svg10.dtd">
<svg version="1.0" xmlns="http://www.w3.org/2000/svg"
 width="688.000000pt" height="688.000000pt" viewBox="0 0 688.000000 688.000000"
 preserveAspectRatio="xMidYMid meet">
<metadata>
Created by potrace 1.14, written by Peter Selinger 2001-2017
</metadata>
<g transform="translate(0.000000,688.000000) scale(0.100000,-0.100000)"
fill="#000000" stroke="none">
<path d="M589 6645 c-3 -2 -14 -6 -25 -8 -76 -14 -223 -74 -252 -104 -7 -7
-16 -13 -20 -13 -13 0 -120 -105 -157 -155 -49 -65 -99 -174 -118 -260 -15
-63 -17 -266 -16 -2030 0 -1158 4 -1978 9 -2005 16 -79 18 -84 38 -135 31 -75
46 -105 55 -105 4 0 7 -5 7 -11 0 -29 112 -149 187 -200 62 -43 171 -95 218
-104 22 -5 47 -10 55 -12 36 -9 121 -11 566 -12 l470 -1 -1 -577 c-1 -318 3
-590 7 -604 16 -49 54 -74 110 -74 49 0 51 1 121 76 40 42 101 108 136 148 35
39 78 87 95 105 17 18 65 70 106 116 41 46 86 95 100 110 46 51 185 203 200
220 19 22 166 183 205 225 42 46 175 192 205 227 l25 28 1675 0 c1400 0 1684
3 1728 14 29 8 53 14 55 14 14 -2 87 28 87 35 0 6 3 8 6 4 8 -7 87 37 139 77
40 31 90 80 132 131 51 60 115 204 132 295 3 19 6 933 6 2030 l0 1995 -27 78
c-82 243 -264 407 -523 474 -32 8 -5728 16 -5736 8z m5672 -398 c31 -15 76
-48 99 -73 44 -47 98 -153 106 -208 17 -105 22 -208 12 -228 -5 -10 -5 -18 -1
-18 4 0 7 -26 5 -57 -1 -32 -3 -65 -2 -73 0 -8 1 -54 3 -102 1 -49 -2 -84 -7
-80 -5 3 -6 0 -2 -7 11 -17 14 -122 4 -149 -4 -13 -5 -21 0 -19 4 3 6 -20 4
-51 -1 -32 -3 -64 -2 -72 0 -8 1 -54 3 -102 1 -49 -2 -84 -7 -80 -5 3 -6 0 -2
-7 11 -17 14 -122 4 -149 -4 -13 -5 -21 0 -19 4 3 6 -20 4 -51 -1 -32 -3 -64
-2 -72 0 -8 1 -54 3 -102 1 -47 -1 -84 -5 -82 -4 3 -5 -2 -1 -11 9 -24 10
-276 1 -303 -4 -13 -5 -21 0 -19 4 3 6 -20 4 -51 -1 -32 -3 -64 -2 -72 0 -8 1
-54 3 -102 1 -49 -2 -84 -7 -80 -5 3 -6 0 -2 -7 11 -17 14 -122 4 -149 -4 -13
-5 -21 0 -19 4 3 6 -20 4 -51 -1 -32 -3 -64 -2 -72 0 -8 1 -54 3 -102 1 -49
-2 -84 -7 -80 -5 3 -6 0 -2 -7 11 -17 14 -122 4 -149 -4 -13 -5 -21 0 -19 4 3
6 -20 4 -51 -1 -32 -3 -64 -2 -72 0 -8 1 -54 3 -102 1 -49 -2 -84 -7 -80 -5 3
-6 0 -2 -7 11 -17 14 -122 4 -149 -4 -13 -5 -21 0 -19 4 3 6 -20 4 -51 -1 -32
-3 -64 -2 -72 0 -8 1 -54 3 -102 1 -49 -2 -84 -7 -80 -5 3 -6 -1 -1 -8 8 -13
9 -85 1 -125 -2 -11 -7 -40 -11 -65 -20 -123 -117 -249 -222 -291 l-58 -23
-1685 -1 c-1050 0 -1691 -4 -1700 -10 -8 -5 -21 -10 -28 -11 -8 -2 -22 -10
-31 -18 -10 -9 -21 -16 -24 -16 -16 0 -108 -77 -177 -149 -97 -101 -155 -164
-315 -345 -6 -6 -30 -36 -54 -66 -25 -30 -50 -59 -56 -65 -6 -5 -27 -31 -47
-56 -19 -26 -45 -57 -57 -70 -11 -12 -21 -26 -21 -31 0 -4 -4 -8 -8 -8 -4 0
-8 172 -8 383 0 364 -1 384 -19 409 -38 52 -40 52 -620 55 -297 1 -547 3 -555
4 -28 2 -122 40 -165 65 -89 52 -164 150 -197 258 l-22 71 0 1815 0 1815 23
69 c48 147 148 249 297 301 l69 25 2710 -3 2710 -2 56 -28z"/>
<path d="M3410 5493 c-8 -3 -52 -23 -98 -45 -46 -21 -85 -38 -88 -38 -2 0 -27
-11 -56 -25 -28 -14 -58 -25 -65 -25 -7 0 -13 -4 -13 -8 0 -6 -49 -29 -80 -37
-3 -1 -36 -17 -75 -34 -38 -18 -90 -42 -115 -53 -49 -21 -101 -44 -170 -76
-25 -11 -122 -55 -217 -96 -94 -41 -206 -91 -248 -111 -42 -19 -78 -35 -80
-35 -2 0 -38 -16 -82 -36 -87 -40 -96 -44 -308 -139 -82 -37 -168 -75 -190
-85 -41 -18 -290 -130 -380 -170 -130 -58 -151 -79 -133 -133 9 -23 28 -37
105 -73 52 -24 97 -44 99 -44 3 0 33 -13 67 -29 34 -16 125 -57 202 -91 77
-34 163 -72 190 -85 91 -42 170 -77 211 -95 l42 -18 0 -485 c0 -512 0 -519 46
-533 11 -4 40 -8 65 -9 86 -6 206 -16 241 -21 19 -3 58 -7 85 -10 28 -2 61 -7
75 -9 22 -3 78 -12 135 -20 59 -8 156 -26 167 -30 7 -3 29 -7 48 -10 59 -9 72
-12 170 -38 148 -40 174 -48 188 -59 6 -6 12 -8 12 -4 0 8 91 -28 189 -76 93
-46 88 -46 206 7 67 31 300 105 465 148 135 36 155 40 240 52 43 6 67 10 128
20 15 2 50 7 77 10 28 4 57 8 65 10 14 4 55 8 205 20 39 3 91 8 117 10 54 5
85 21 95 50 3 11 6 86 6 167 0 129 -3 148 -19 165 -26 27 -50 34 -78 23 -39
-14 -48 -45 -50 -158 l-1 -105 -35 -2 c-75 -6 -187 -16 -226 -21 -23 -3 -44
-2 -47 3 -4 7 -8 39 -22 168 -5 48 -16 156 -21 205 -2 25 -7 61 -10 80 -8 39
-13 760 -7 760 7 0 152 -74 190 -96 97 -58 129 -78 133 -84 3 -4 15 -12 26
-18 21 -11 21 -17 21 -244 l1 -232 26 -23 c34 -29 58 -29 91 0 l26 22 1 184 1
183 46 21 c25 11 84 37 129 58 46 22 86 39 88 39 2 0 32 14 66 30 34 17 67 30
75 30 7 0 13 4 13 9 0 5 12 12 28 15 36 9 82 29 82 37 0 3 6 6 13 6 6 0 91 36
187 80 149 69 176 84 186 109 25 62 9 73 -276 199 -47 20 -123 55 -168 76 -46
21 -86 39 -88 39 -3 0 -34 14 -169 76 -33 15 -62 28 -65 28 -6 1 -120 52 -228
102 -40 19 -75 34 -77 34 -2 0 -36 15 -77 34 -40 18 -154 70 -253 114 -179 79
-243 108 -363 163 -35 16 -65 29 -67 29 -2 0 -37 15 -77 34 -70 33 -147 68
-158 71 -3 0 -36 16 -74 33 -38 18 -70 32 -71 32 -2 0 -42 18 -90 40 -90 42
-130 53 -155 43z m695 -442 c22 -10 73 -33 113 -51 l72 -33 0 -265 c0 -248 -1
-264 -17 -257 -10 4 -22 8 -28 9 -5 2 -17 6 -25 9 -58 23 -205 63 -336 93 -38
8 -168 30 -224 38 -25 4 -61 8 -80 11 -59 8 -191 9 -259 1 -93 -10 -180 -22
-221 -31 -14 -3 -41 -8 -60 -11 -19 -3 -62 -12 -95 -21 -33 -8 -69 -17 -80
-19 -21 -4 -119 -32 -145 -42 -8 -3 -19 -6 -25 -8 -19 -4 -160 -55 -190 -68
-200 -87 -300 -138 -413 -213 -35 -24 -66 -43 -69 -43 -4 0 -27 -17 -53 -39
l-46 -39 -244 109 c-135 60 -258 115 -275 123 -16 7 -54 24 -83 37 -29 12 -51
27 -49 32 1 4 36 23 77 41 41 18 95 42 120 54 25 11 86 38 135 60 50 22 117
53 150 68 33 15 62 28 65 29 5 1 42 17 125 55 22 10 87 39 144 65 57 25 124
55 150 67 25 11 64 29 86 38 22 10 65 29 95 43 30 14 89 40 130 57 41 18 108
48 148 66 41 19 75 34 77 34 2 0 43 18 90 40 47 22 88 40 90 40 2 0 32 13 67
29 35 16 103 48 151 70 49 23 91 41 93 41 2 0 37 15 76 33 40 19 80 36 87 39
12 3 243 -96 676 -291z m373 -168 c20 -9 39 -17 42 -18 3 -1 21 -9 40 -18 37
-17 132 -59 140 -62 6 -2 72 -32 160 -72 36 -17 119 -54 185 -83 66 -29 138
-61 160 -71 22 -10 125 -56 229 -103 l190 -85 -89 -40 c-48 -23 -89 -41 -91
-41 -2 0 -27 -11 -56 -24 -29 -12 -60 -26 -68 -29 -8 -4 -22 -11 -30 -16 -8
-5 -64 -31 -125 -57 -60 -26 -133 -58 -162 -71 l-51 -25 -29 29 c-51 52 -231
162 -389 237 l-100 49 0 258 c0 143 1 259 3 259 2 0 20 -7 41 -17z m-863 -426
c11 -3 41 -8 67 -11 26 -4 69 -11 95 -16 26 -6 62 -13 78 -16 60 -11 220 -56
304 -85 85 -30 108 -37 124 -38 10 -1 7 -744 -3 -802 -5 -24 -11 -73 -15 -109
-4 -36 -8 -72 -10 -80 -2 -8 -6 -44 -10 -80 -3 -36 -8 -76 -10 -90 -2 -14 -6
-50 -10 -80 -10 -89 -11 -93 -31 -96 -51 -8 -79 -13 -79 -14 0 -1 -11 -3 -25
-4 -24 -3 -63 -11 -105 -21 -11 -2 -40 -9 -65 -15 -105 -25 -277 -85 -407
-142 l-71 -31 -94 41 c-114 49 -294 110 -377 127 -9 2 -68 15 -131 28 -63 14
-131 28 -150 31 -19 3 -44 8 -56 10 -12 2 -45 7 -75 11 -30 3 -61 8 -69 10 -8
2 -42 7 -75 10 -33 4 -76 9 -95 11 -54 6 -140 15 -190 19 -25 2 -48 4 -51 4
-4 1 -7 221 -7 491 l0 489 77 50 c285 186 697 338 1052 387 24 3 69 10 99 14
54 7 276 5 315 -3z"/>
</g>
</svg>
