<svg xmlns="http://www.w3.org/2000/svg" width="19.766" height="30" viewBox="0 0 19.766 30"><g transform="translate(-87.326)"><g transform="translate(89.34)"><path d="M127.51,0a5.808,5.808,0,1,0,5.808,5.808A5.814,5.814,0,0,0,127.51,0Zm0,9.858a4.05,4.05,0,1,1,4.05-4.05A4.054,4.054,0,0,1,127.51,9.858Z" transform="translate(-121.702)"/></g><g transform="translate(87.326 12.838)"><path d="M102.97,224.9v-1.4a4.4,4.4,0,0,0-4.395-4.395H91.721a4.4,4.4,0,0,0-4.395,4.395v8.613a2.64,2.64,0,0,0,2.637,2.637h7.411a5.807,5.807,0,1,0,5.6-9.848Zm-6.911,8.09h-6.1a.88.88,0,0,1-.879-.879V223.5a2.64,2.64,0,0,1,2.637-2.637h6.855a2.64,2.64,0,0,1,2.637,2.637v1.153a5.806,5.806,0,0,0-5.153,8.339Zm1.176-2.532a4.047,4.047,0,0,1,6.222-3.415l-5.588,5.588A4.025,4.025,0,0,1,97.235,230.455Zm4.05,4.05a4.025,4.025,0,0,1-2.172-.635l5.588-5.588a4.047,4.047,0,0,1-3.415,6.222Z" transform="translate(-87.326 -219.101)"/></g></g></svg>