<svg id="cancel" xmlns="http://www.w3.org/2000/svg" width="455.112" height="455.112" viewBox="0 0 455.112 455.112">
  <defs>
    <style>
      .cls-1 {
        fill: #e24c4b;
      }

      .cls-2 {
        fill: #d1403f;
      }

      .cls-3 {
        fill: #fff;
      }
    </style>
  </defs>
  <circle id="Ellipse_485" data-name="Ellipse 485" class="cls-1" cx="227.556" cy="227.556" r="227.556" transform="translate(0 0)"/>
  <path id="Path_3431" data-name="Path 3431" class="cls-2" d="M455.111,227.556c0,125.156-102.4,227.556-227.556,227.556-72.533,0-136.533-32.711-177.778-85.333,38.4,31.289,88.178,49.778,142.222,49.778,125.156,0,227.556-102.4,227.556-227.556,0-54.044-18.489-103.822-49.778-142.222C422.4,91.022,455.111,155.022,455.111,227.556Z"/>
  <path id="Path_3432" data-name="Path 3432" class="cls-3" d="M334.4,334.4a22.637,22.637,0,0,1-31.731,0l-73.557-73.557L155.555,334.4a22.437,22.437,0,0,1-31.731-31.731l73.557-73.557-73.557-73.557a22.437,22.437,0,0,1,31.731-31.731l73.557,73.557,73.557-73.557A22.437,22.437,0,0,1,334.4,155.555l-73.557,73.557L334.4,302.67A22.637,22.637,0,0,1,334.4,334.4Z" transform="translate(-1.557 -1.557)"/>
</svg>
