<svg xmlns="http://www.w3.org/2000/svg" width="26.918" height="20" viewBox="0 0 26.918 20"><defs><style>.a{fill:#0080ff;}</style></defs><g transform="translate(0 -65.791)"><path class="a" d="M345.537,269.532a1.3,1.3,0,0,0,1.294-1.294.394.394,0,1,0-.789,0,.505.505,0,0,1-1.01,0,.394.394,0,1,0-.789,0A1.3,1.3,0,0,0,345.537,269.532Z" transform="translate(-326.145 -191.43)"/><path class="a" d="M401.069,229.195a.394.394,0,0,0,.394-.394v-.412a.394.394,0,0,0-.049-.786h-.345a.394.394,0,0,0-.394.394v.8A.394.394,0,0,0,401.069,229.195Z" transform="translate(-379.61 -153.305)"/><path class="a" d="M315.8,228.39v.412a.394.394,0,1,0,.789,0V228a.394.394,0,0,0-.394-.394h-.345a.394.394,0,0,0-.049.786Z" transform="translate(-298.873 -153.306)"/><path class="a" d="M25.285,75.566A1.827,1.827,0,0,0,25,73.575a.392.392,0,0,0,.072-.227,7.591,7.591,0,0,0-.292-2.857.394.394,0,0,0-.744.26,5.812,5.812,0,0,1,.248,2.2H21.855a2.071,2.071,0,0,1-2.069-2.069.394.394,0,0,0-.789,0,2.071,2.071,0,0,1-2.069,2.069H14.5v-.735a4.449,4.449,0,0,1,4.444-4.444.054.054,0,0,1,.054.054.394.394,0,0,0,.789,0,.054.054,0,0,1,.054-.054A4.445,4.445,0,0,1,23.191,69.3a.394.394,0,1,0,.594-.518,5.234,5.234,0,0,0-3.945-1.8.838.838,0,0,0-.448.129.838.838,0,0,0-.448-.129,5.239,5.239,0,0,0-5.233,5.233v1.129a.392.392,0,0,0,.072.227,1.834,1.834,0,0,0-.319.509,1.994,1.994,0,0,0-.779-1.426v-1.5a5.37,5.37,0,0,0-5.364-5.364,10.443,10.443,0,0,0-1.456.067,4.479,4.479,0,0,0-3.414,2.026L1.265,67.5a.394.394,0,0,0-.514.357,18.559,18.559,0,0,0,.357,4.6,2,2,0,0,0,.634,3.775A5.121,5.121,0,0,0,4.1,79.469h-.83A2.475,2.475,0,0,0,.8,81.941V85.4a.394.394,0,0,0,.394.394H1.85a.394.394,0,0,0,0-.789H1.589V81.941a1.686,1.686,0,0,1,1.684-1.684H4.42a2.356,2.356,0,0,0,4.646,0h1.147A1.686,1.686,0,0,1,11.9,81.941V85H3.69a.394.394,0,0,0,0,.789h8.6a.394.394,0,0,0,.394-.394V81.941a2.458,2.458,0,0,0-.182-.929h.634a2.931,2.931,0,0,0,1.121-.222,2.394,2.394,0,0,0-.385,1.3v3.3a.394.394,0,0,0,.394.394H24.543a.394.394,0,0,0,.394-.394v-3.3a2.394,2.394,0,0,0-.376-1.29,2.931,2.931,0,0,0,1.085.208h.877a.394.394,0,0,0,.394-.394V78.2a2.967,2.967,0,0,0-1.633-2.637Zm-8.357-1.824a2.859,2.859,0,0,0,2.463-1.41,2.859,2.859,0,0,0,2.463,1.41h1.772a1.044,1.044,0,1,1-.042,2.087.393.393,0,0,0-.406.329,3.844,3.844,0,0,1-7.122,1.276.394.394,0,0,0-.022-.048,3.817,3.817,0,0,1-.364-.908l0-.019c-.022-.089-.044-.183-.064-.3a.394.394,0,0,0-.406-.329,1.044,1.044,0,1,1-.042-2.087H15.2a.393.393,0,0,0,.05,0h1.679Zm2.47,8.065a1.362,1.362,0,0,1-1.361-1.361v-.5a4.646,4.646,0,0,0,2.721,0v.5a1.362,1.362,0,0,1-1.291,1.359l-.07,0Zm-3.117-2.122h0a2.4,2.4,0,0,0-.773.128,2.935,2.935,0,0,0,.51-1.125,4.577,4.577,0,0,0,1.231.934v.063Zm5.266-.069a4.592,4.592,0,0,0,1.218-.928,2.934,2.934,0,0,0,.5,1.113,5.07,5.07,0,0,0-1.719-.116v-.069ZM1.525,68.416l.984.314a.394.394,0,0,0,.465-.185,3.694,3.694,0,0,1,2.953-1.9,9.9,9.9,0,0,1,1.394-.064A4.58,4.58,0,0,1,11.9,71.155v1.139c-.345-.074-.236-.045-5.643-.045a2.639,2.639,0,0,1-2.587-2.128.4.4,0,0,0-.675-.194A5.133,5.133,0,0,0,1.809,72a17.438,17.438,0,0,1-.283-3.589Zm.931,7.375a.394.394,0,0,0-.389-.329H2a1.213,1.213,0,0,1-.044-2.425h0c.029,0,.059,0,.088,0h.006a.394.394,0,0,0,.4-.329,4.3,4.3,0,0,1,.55-1.5q.059-.1.123-.194a3.434,3.434,0,0,0,3.125,2.02h5.273a1.226,1.226,0,0,1,.563.169l.009,0a1.213,1.213,0,0,1-.629,2.251h-.05a.4.4,0,0,0-.4.329,4.34,4.34,0,0,1-8.559,0ZM6.664,81.43a1.57,1.57,0,0,1-1.48-1.4c0-.006,0-.012,0-.017s0-.034,0-.051a5.161,5.161,0,0,0,3.129,0A1.57,1.57,0,0,1,6.664,81.43Zm3.549-1.961H9.369a5.12,5.12,0,0,0,2.361-3.234,2.007,2.007,0,0,0,1.6-1.257,1.817,1.817,0,0,0,.165.588A2.967,2.967,0,0,0,11.866,78.2v1.9A2.462,2.462,0,0,0,10.213,79.469Zm2.442.755V78.2A2.173,2.173,0,0,1,14,76.2a1.848,1.848,0,0,0,.893.395,4.665,4.665,0,0,0,.408,1.079v.386a2.162,2.162,0,0,1-2.159,2.159h-.483ZM24.149,85H14.662V82.095a1.622,1.622,0,0,1,1.621-1.62h.967a2.149,2.149,0,0,0,4.3,0h.981a1.622,1.622,0,0,1,1.62,1.62V85Zm1.981-4.778h-.483a2.162,2.162,0,0,1-2.159-2.159v-.386a4.663,4.663,0,0,0,.408-1.079,1.831,1.831,0,0,0,.855-.366l.038-.029a2.173,2.173,0,0,1,1.342,2Z"/><path class="a" d="M102.9,264.087a1.4,1.4,0,0,0,1.4-1.4.394.394,0,1,0-.789,0,.611.611,0,0,1-1.222,0,.394.394,0,1,0-.789,0A1.4,1.4,0,0,0,102.9,264.087Z" transform="translate(-96.16 -186.171)"/><path class="a" d="M77.062,217.564a.394.394,0,0,0-.394.394v.872a.394.394,0,0,0,.789,0v-.872A.394.394,0,0,0,77.062,217.564Z" transform="translate(-72.637 -143.794)"/><path class="a" d="M164.966,219.224a.394.394,0,0,0,.394-.394v-.872a.394.394,0,1,0-.789,0v.872A.394.394,0,0,0,164.966,219.224Z" transform="translate(-155.92 -143.794)"/></g></svg>