<svg xmlns="http://www.w3.org/2000/svg" width="16.836" height="20" viewBox="0 0 16.836 20"><defs><style>.a{fill:#0956c6;}</style></defs><path class="a" d="M10.586,20H3.125A3.128,3.128,0,0,1,0,16.875V6.289A3.128,3.128,0,0,1,3.125,3.164h7.461a3.128,3.128,0,0,1,3.125,3.125V16.875A3.128,3.128,0,0,1,10.586,20ZM3.125,4.727A1.564,1.564,0,0,0,1.563,6.289V16.875a1.564,1.564,0,0,0,1.563,1.563h7.461a1.564,1.564,0,0,0,1.563-1.562V6.289a1.564,1.564,0,0,0-1.562-1.562Zm13.711,10.2V3.125A3.128,3.128,0,0,0,13.711,0H5.039a.781.781,0,0,0,0,1.563h8.672a1.564,1.564,0,0,1,1.563,1.563v11.8a.781.781,0,0,0,1.563,0Zm0,0"/></svg>