<svg xmlns="http://www.w3.org/2000/svg" width="13.879" height="7.453" viewBox="0 0 13.879 7.453"><defs><style>.a{fill:#cecece;}</style></defs><g transform="translate(0.234 -117.315)"><g transform="translate(0 117.325)"><path class="a" d="M13.561,117.41a.648.648,0,0,0-.643,0l-6.21,6.211L.5,117.411a.5.5,0,0,0-.59,0,.544.544,0,0,0-.109.568c.05.148,6.7,6.7,6.7,6.7a.293.293,0,0,0,.206.085.289.289,0,0,0,.206-.086s6.539-6.549,6.648-6.7A.523.523,0,0,0,13.561,117.41Z" transform="translate(0 -117.325)"/></g></g></svg>