<svg xmlns="http://www.w3.org/2000/svg" width="461.998" height="300" viewBox="0 0 461.998 300">
  <defs>
    <style>
      .cls-1 {
        fill: #cddae7;
      }

      .cls-2 {
        fill: #ffb8b8;
      }

      .cls-3 {
        fill: #2f2e41;
      }

      .cls-4 {
        fill: #ccc;
      }

      .cls-5 {
        fill: #3f3d56;
      }

      .cls-6 {
        fill: #2a294e;
      }

      .cls-7 {
        fill: #fff;
      }

      .cls-8 {
        fill: #0956c6;
      }
    </style>
  </defs>
  <g id="undraw_Newsletter_re_wrob" transform="translate(0 -0.002)">
    <path id="Path_3361" data-name="Path 3361" class="cls-1" d="M926.906,404.315a47.38,47.38,0,0,1-43.739,47.242c-.4.03-.805.06-1.212.079v-44.97a3.012,3.012,0,0,0-1.118-2.345.757.757,0,0,0-.134-.109,1.139,1.139,0,0,0-.14-.1,3.037,3.037,0,0,0-2.9-.213l-.5-1.106a4.253,4.253,0,0,1,1.756-.383l-34.6-29.808c.267-.3.547-.6.826-.9a47.385,47.385,0,0,1,81.763,32.608Z" transform="translate(-464.907 -263.465)"/>
    <path id="Path_3362" data-name="Path 3362" class="cls-2" d="M239.427,462.391a6.127,6.127,0,0,1,5.911-7.3l27.312-32.513,6.819,8.718-27.835,30.259a6.161,6.161,0,0,1-12.207.84Z" transform="translate(-227.413 -289.232)"/>
    <path id="Path_3363" data-name="Path 3363" class="cls-2" d="M424.3,420.489a6.4,6.4,0,0,0-.506.871l-29.822,4.263-4.529-5.749-9.57,5.7,9,14.025,36.371-10.722a6.376,6.376,0,1,0-.941-8.388Z" transform="translate(-282.59 -287.348)"/>
    <path id="Path_3364" data-name="Path 3364" class="cls-2" d="M149.426,384.855l5.278,5.254,22.779-17.854-7.789-7.755Z" transform="translate(-58.657 -143.084)"/>
    <path id="Path_3365" data-name="Path 3365" class="cls-3" d="M0,0H23.405V9.043H9.043A9.043,9.043,0,0,1,0,0H0Z" transform="translate(101.345 262.058) rotate(-135.123)"/>
    <path id="Path_3366" data-name="Path 3366" class="cls-2" d="M103.245,462.417h7.447l3.543-28.725H103.244Z" transform="translate(-40.528 -170.245)"/>
    <path id="Path_3367" data-name="Path 3367" class="cls-3" d="M0,0H23.406V9.043H9.043A9.043,9.043,0,0,1,0,0H0Z" transform="translate(84.525 299.088) rotate(179.997)"/>
    <path id="Path_3368" data-name="Path 3368" class="cls-3" d="M314.331,576.419l-8.483-62.559a78.332,78.332,0,0,1,1.216-28.378c1.741-7.479,4.092-12.659,6.99-15.4a2.866,2.866,0,0,1,1.666-.761l28.007-2.918a2.859,2.859,0,0,1,2.74,1.369l.921,1.534a2.859,2.859,0,0,1,.269.591l5.922,18.357a2.2,2.2,0,0,0,1.1,1.292c9.323,4.76,39.608,20.828,37.875,27.76-1.628,6.514-16.875,17.075-21.508,20.157a2.831,2.831,0,0,1-3.183-.024l-7.692-5.263a2.851,2.851,0,0,1-.081-4.648l5.3-3.909a2.218,2.218,0,0,0-.581-3.878l-28.489-10a2.217,2.217,0,0,0-2.944,1.912l-5.253,64.2a2.858,2.858,0,0,1-2.7,2.614l-8.127.406c-.05,0-.1,0-.148,0A2.832,2.832,0,0,1,314.331,576.419Z" transform="translate(-253.233 -306.433)"/>
    <circle id="Ellipse_479" data-name="Ellipse 479" class="cls-2" cx="14.92" cy="14.92" r="14.92" transform="translate(59.023 78.339)"/>
    <path id="Path_3369" data-name="Path 3369" class="cls-4" d="M311.38,437.056,300.4,396.986l.188-.127c.236-.159,23.907-15.79,51.621-3.193l.5.288-6.508,41.59a4.122,4.122,0,0,1-3.915,3.509l-26.778,1.03c-.054,0-.108,0-.161,0a4.1,4.1,0,0,1-3.968-3.03Z" transform="translate(-251.392 -275.959)"/>
    <path id="Path_3370" data-name="Path 3370" class="cls-4" d="M293.346,428.446,284.2,417.928a2.847,2.847,0,0,1-.065-3.664l9.562-11.812,7.34,2,3.891,13.62-7.1,10.136a2.834,2.834,0,0,1-2.186,1.212c-.051,0-.1,0-.153,0A2.831,2.831,0,0,1,293.346,428.446Z" transform="translate(-244.758 -281.333)"/>
    <path id="Path_3371" data-name="Path 3371" class="cls-4" d="M376.977,423.847a2.834,2.834,0,0,1-2.186-1.212L367.7,412.5l3.413-14.337,6.758-1.843,1.261.6,9.361,11.768a2.847,2.847,0,0,1-.065,3.664l-9.147,10.518a2.831,2.831,0,0,1-2.147.98C377.079,423.851,377.028,423.849,376.977,423.847Z" transform="translate(-277.81 -278.925)"/>
    <path id="Path_3372" data-name="Path 3372" class="cls-5" d="M730.807,358.527a.6.6,0,0,1-.146.413.607.607,0,0,1-.856.067l-2.035-1.756-34.6-29.808-97.046-83.615a3.049,3.049,0,0,0-3.973.006L461.464,357.373l-1.178,1.021a.586.586,0,0,1-.152.1.608.608,0,0,1-.31.049.623.623,0,0,1-.395-.2.606.606,0,0,1,.055-.857l.164-.146L591.355,242.917a4.28,4.28,0,0,1,5.564-.012L694,326.545l36.6,31.539A.617.617,0,0,1,730.807,358.527Z" transform="translate(-313.76 -218.302)"/>
    <path id="Path_3373" data-name="Path 3373" class="cls-6" d="M652.761,361.228l-1.6-4.4-5.5-15.186-11.857-32.7-13.254-36.55-23.9-65.927a5.173,5.173,0,0,0-6.615-3.092l-138.2,50.109a5.171,5.171,0,0,0-3.092,6.615l33.89,93.462.577,1.6,35.572,16.122,10,4.532,1.622.735,42.333,19.189,1.64-.6,27.766-10.065L644.02,369.89l5.643-2.047A5.174,5.174,0,0,0,652.761,361.228Z" transform="translate(-309.501 -203.065)"/>
    <path id="Path_3374" data-name="Path 3374" class="cls-7" d="M627.481,332.041a7.606,7.606,0,0,0-9.731-4.55l-54.683,19.833L536.661,356.9a7.592,7.592,0,0,0,5.175,14.275l21.23-7.7,59.864-21.7a7.606,7.606,0,0,0,4.55-9.731Z" transform="translate(-342.172 -251.729)"/>
    <path id="Path_3375" data-name="Path 3375" class="cls-7" d="M643.329,375.761a7.606,7.606,0,0,0-9.731-4.55l-9.264,3.359-55.047,19.961-16.778,6.081a7.6,7.6,0,0,0,5.176,14.281l11.6-4.21,69.492-25.2c.158-.055.31-.121.462-.188a7.592,7.592,0,0,0,4.088-9.537Z" transform="translate(-348.392 -268.891)"/>
    <path id="Path_3376" data-name="Path 3376" class="cls-7" d="M659.352,419.941a7.6,7.6,0,0,0-9.725-4.55l-25.981,9.422-20.113,7.3-27.955,10.132-7.046,2.557a7.61,7.61,0,0,0-4.939,8.152,7.508,7.508,0,0,0,.364,1.5l10,4.531,1.622-.589h.012L626.319,440,654.8,429.673A7.6,7.6,0,0,0,659.352,419.941Z" transform="translate(-354.683 -286.234)"/>
    <path id="Path_3377" data-name="Path 3377" class="cls-7" d="M597.726,289.061a7.606,7.606,0,0,0-9.731-4.55l-31.405,11.384a7.6,7.6,0,0,0,5.176,14.281l9.938-3.6,6.578-2.387,14.9-5.4A7.6,7.6,0,0,0,597.726,289.061Z" transform="translate(-349.994 -234.857)"/>
    <path id="Path_3378" data-name="Path 3378" class="cls-8" d="M735.533,317.2h-147a5.165,5.165,0,0,0-4.349,2.387,5.111,5.111,0,0,0-.814,2.776v98.99L625.7,440.538l5.965,2.7,9.422,4.27a4.264,4.264,0,0,0,3.511,0l9.421-4.27L683.5,429.877l27.481-12.459,29.71-13.461v-81.6A5.167,5.167,0,0,0,735.533,317.2Z" transform="translate(-362.471 -247.866)"/>
    <path id="Path_3379" data-name="Path 3379" class="cls-7" d="M723.217,431.2H636.959a7.591,7.591,0,0,0-7.581,7.3,2.448,2.448,0,0,0-.012.3,7.6,7.6,0,0,0,7.593,7.593h86.258a7.593,7.593,0,0,0,0-15.186Z" transform="translate(-380.528 -292.616)"/>
    <path id="Path_3380" data-name="Path 3380" class="cls-7" d="M728.132,479.505a7.539,7.539,0,0,0-4.915-1.81H636.96a7.593,7.593,0,1,0,0,15.186h64.6l27.481-12.459A7.635,7.635,0,0,0,728.132,479.505Z" transform="translate(-380.529 -310.87)"/>
    <path id="Path_3381" data-name="Path 3381" class="cls-7" d="M662.877,524.7l9.421,4.27a4.264,4.264,0,0,0,3.511,0l9.421-4.27Z" transform="translate(-393.683 -329.32)"/>
    <path id="Path_3382" data-name="Path 3382" class="cls-7" d="M721,374.682a7.6,7.6,0,0,0-7.132-4.987H680.46a7.6,7.6,0,0,0-6.913,4.459,7.51,7.51,0,0,0-.68,3.134,7.6,7.6,0,0,0,7.593,7.593h33.41a7.592,7.592,0,0,0,7.132-10.2Z" transform="translate(-397.605 -268.475)"/>
    <path id="Path_3383" data-name="Path 3383" class="cls-5" d="M629.884,474.867,600.4,488.231l-6.979,3.165a3.047,3.047,0,0,1-2.5,0l-6.979-3.165h-2.946l9.422,4.27a4.265,4.265,0,0,0,3.511,0l9.421-4.27,29.486-13.364Zm0,0L600.4,488.231l-6.979,3.165a3.047,3.047,0,0,1-2.5,0l-6.979-3.165h-2.946l9.422,4.27a4.265,4.265,0,0,0,3.511,0l9.421-4.27,29.486-13.364Zm0,0L600.4,488.231l-6.979,3.165a3.047,3.047,0,0,1-2.5,0l-6.979-3.165h-2.946l9.422,4.27a4.265,4.265,0,0,0,3.511,0l9.421-4.27,29.486-13.364Zm98.96-41.786a4.639,4.639,0,0,0-.735-.6,4.228,4.228,0,0,0-4.058-.3l-64.651,29.3-29.516,13.376L600.4,488.231l-6.979,3.165a3.047,3.047,0,0,1-2.5,0l-6.979-3.165-7.271-3.3L532.7,465.014l-.012-.006-11.985-5.437-35.785-16.219-24.638-11.165a3.705,3.705,0,0,0-.784-.261,4.075,4.075,0,0,0-1.816-.036,4.262,4.262,0,0,0-3.408,4.167V588.606a4.257,4.257,0,0,0,4.252,4.252H725.807a4.257,4.257,0,0,0,4.252-4.252V436.057A4.234,4.234,0,0,0,728.844,433.081Zm0,155.525a3.038,3.038,0,0,1-3.037,3.037H458.529a3.038,3.038,0,0,1-3.037-3.037V436.057a3.038,3.038,0,0,1,1.391-2.551,3.138,3.138,0,0,1,.978-.413,2.74,2.74,0,0,1,.31-.049,2.37,2.37,0,0,1,.358-.024,3.019,3.019,0,0,1,1.251.273L485.5,444.95l35.572,16.122,10,4.532,1.622.735,42.333,19.189,5.965,2.7,9.421,4.27a4.265,4.265,0,0,0,3.511,0l9.421-4.27,29.486-13.364,27.481-12.459,64.244-29.115a3.038,3.038,0,0,1,2.9.213,1.141,1.141,0,0,1,.14.1.763.763,0,0,1,.134.109,3.013,3.013,0,0,1,1.118,2.345Zm-98.96-113.739L600.4,488.231l-6.979,3.165a3.047,3.047,0,0,1-2.5,0l-6.979-3.165h-2.946l9.422,4.27a4.265,4.265,0,0,0,3.511,0l9.421-4.27,29.486-13.364Zm0,0L600.4,488.231l-6.979,3.165a3.047,3.047,0,0,1-2.5,0l-6.979-3.165h-2.946l9.422,4.27a4.265,4.265,0,0,0,3.511,0l9.421-4.27,29.486-13.364ZM531.071,465.6l1.622.735v-1.324Zm98.814,9.264L600.4,488.231l-6.979,3.165a3.047,3.047,0,0,1-2.5,0l-6.979-3.165h-2.946l9.422,4.27a4.265,4.265,0,0,0,3.511,0l9.421-4.27,29.486-13.364Z" transform="translate(-311.797 -292.856)"/>
    <path id="Path_3384" data-name="Path 3384" class="cls-5" d="M350.5,696.15H281.857a.607.607,0,0,1,0-1.215H350.5a.607.607,0,0,1,0,1.215Z" transform="translate(-243.875 -396.148)"/>
    <path id="Path_3385" data-name="Path 3385" class="cls-3" d="M321.971,352.859a6.5,6.5,0,0,1,.6-11.862c4.5-1.737,9.549,1.808,14.268.8,4.7-1,7.425-6.628,6.3-11.305s-5.209-8.2-9.715-9.882a20.945,20.945,0,0,0-18.066,1.656,19.287,19.287,0,0,0-9.078,15.571,17.882,17.882,0,0,0,8.652,15.667,5.611,5.611,0,0,0,3.945.935A10.994,10.994,0,0,0,321.971,352.859Z" transform="translate(-253.701 -248.689)"/>
    <path id="Path_3386" data-name="Path 3386" class="cls-3" d="M283.158,315.075a33.571,33.571,0,0,0-15.565-11.736,24.774,24.774,0,0,0-19.219,1.058c-5.857,3.031-10.224,9.05-10.68,15.629-.759,10.949,8.6,20.256,9.557,31.19a20.973,20.973,0,0,1-27.528,21.73,22.081,22.081,0,0,0,17.019,4.83,20.523,20.523,0,0,0,14.608-9.829,28.735,28.735,0,0,0,3.306-12.116,53.832,53.832,0,0,0-2.106-19.738c-1.049-3.487-2.473-7.076-1.807-10.657a9.7,9.7,0,0,1,7.554-7.565c3.009-.564,6.085.355,8.958,1.411s5.77,2.28,8.83,2.35,6.394-1.331,7.577-4.154Z" transform="translate(-219.723 -241.861)"/>
  </g>
</svg>
