<svg xmlns="http://www.w3.org/2000/svg" width="32.001" height="30" viewBox="0 0 32.001 30"><g transform="translate(0 -16.01)"><g transform="translate(0 16.01)"><g transform="translate(0 0)"><path d="M17.639,16.239a1.007,1.007,0,0,0-.822-.212l-16,3A1,1,0,0,0,0,20.009v22a1,1,0,0,0,.816.982l16,3A.956.956,0,0,0,17,46.01a1,1,0,0,0,1-1v-28A1,1,0,0,0,17.639,16.239ZM16,43.8,2,41.18V20.839l14-2.624Z" transform="translate(0 -16.01)"/></g></g><g transform="translate(16.001 20.009)"><path d="M271,79.99H257a1,1,0,1,0,0,2h13v18H257a1,1,0,1,0,0,2h14a1,1,0,0,0,1-1v-20A1,1,0,0,0,271,79.99Z" transform="translate(-256 -79.99)"/></g><g transform="translate(16.001 24.009)"><g transform="translate(0 0)"><path d="M261,143.99h-4a1,1,0,1,0,0,2h4a1,1,0,1,0,0-2Z" transform="translate(-256 -143.99)"/></g></g><g transform="translate(16.001 28.009)"><path d="M261,207.99h-4a1,1,0,1,0,0,2h4a1,1,0,1,0,0-2Z" transform="translate(-256 -207.99)"/></g><g transform="translate(16.001 32.009)"><path d="M261,271.99h-4a1,1,0,1,0,0,2h4a1,1,0,1,0,0-2Z" transform="translate(-256 -271.99)"/></g><g transform="translate(16.001 36.009)"><path d="M261,335.99h-4a1,1,0,1,0,0,2h4a1,1,0,1,0,0-2Z" transform="translate(-256 -335.99)"/></g><g transform="translate(24.001 24.009)"><g transform="translate(0 0)"><path d="M387,143.99h-2a1,1,0,1,0,0,2h2a1,1,0,0,0,0-2Z" transform="translate(-384 -143.99)"/></g></g><g transform="translate(24.001 28.009)"><path d="M387,207.99h-2a1,1,0,1,0,0,2h2a1,1,0,0,0,0-2Z" transform="translate(-384 -207.99)"/></g><g transform="translate(24.001 32.009)"><path d="M387,271.99h-2a1,1,0,1,0,0,2h2a1,1,0,0,0,0-2Z" transform="translate(-384 -271.99)"/></g><g transform="translate(24.001 36.009)"><path d="M387,335.99h-2a1,1,0,1,0,0,2h2a1,1,0,0,0,0-2Z" transform="translate(-384 -335.99)"/></g><g transform="translate(5 26.009)"><path d="M88.759,184.326l-7-8a1,1,0,0,0-1.506,1.316l7,8a1,1,0,0,0,1.506-1.316Z" transform="translate(-80.004 -175.984)"/></g><g transform="translate(5 25.009)"><path d="M88.614,160.2a1,1,0,0,0-1.4.174l-7,9a1,1,0,0,0,1.578,1.23l7-9A1,1,0,0,0,88.614,160.2Z" transform="translate(-79.999 -159.992)"/></g></g></svg>