<svg xmlns="http://www.w3.org/2000/svg" width="30" height="38.761" viewBox="0 0 30 38.761">
  <g id="Group_2979" data-name="Group 2979" transform="translate(-3944 144.013)">
    <g id="excel" transform="translate(3944 -130.954)">
      <g id="Group_2827" data-name="Group 2827" transform="translate(0 0)">
        <g id="Group_2826" data-name="Group 2826" transform="translate(0 0)">
          <path id="Path_3305" data-name="Path 3305" d="M7.751,31.722a1.452,1.452,0,0,0-.717-.095L.741,32.8A.906.906,0,0,0,0,33.7V53.683a.907.907,0,0,0,.741.892L15.277,57.3a.869.869,0,0,0,.167.016.909.909,0,0,0,.908-.908l-.011-19.174a.991.991,0,0,0-1.686-.441c-.11.1-.133.441-.133.441l.013,18.078L1.817,52.929V34.451L7.39,33.4a1.258,1.258,0,0,0,.655-.381.808.808,0,0,0,.175-.75A1.044,1.044,0,0,0,7.751,31.722Zm-2.04,6.353Z" transform="translate(0 -31.614)"/>
        </g>
      </g>
      <g id="Group_2829" data-name="Group 2829" transform="translate(14.535 7.093)">
        <g id="Group_2828" data-name="Group 2828">
          <path id="Path_3306" data-name="Path 3306" d="M268.718,131.01v12.575h-11.81a.908.908,0,0,0,0,1.817h12.718a.909.909,0,0,0,.908-.908V131.01a.486.486,0,0,0-.212-.383,1.213,1.213,0,0,0-.752-.2.88.88,0,0,0-.621.2A.476.476,0,0,0,268.718,131.01Z" transform="translate(-256 -130.426)"/>
        </g>
      </g>
      <g id="Group_2831" data-name="Group 2831" transform="translate(14.535 5.716)">
        <g id="Group_2830" data-name="Group 2830" transform="translate(0 0)">
          <path id="Path_3307" data-name="Path 3307" d="M260.542,143.99h-3.634a.908.908,0,1,0,0,1.817h3.634a.908.908,0,0,0,0-1.817Z" transform="translate(-256 -143.99)"/>
        </g>
      </g>
      <g id="Group_2833" data-name="Group 2833" transform="translate(14.535 9.35)">
        <g id="Group_2832" data-name="Group 2832">
          <path id="Path_3308" data-name="Path 3308" d="M260.542,207.99h-3.634a.908.908,0,1,0,0,1.817h3.634a.908.908,0,1,0,0-1.817Z" transform="translate(-256 -207.99)"/>
        </g>
      </g>
      <g id="Group_2835" data-name="Group 2835" transform="translate(14.535 12.984)">
        <g id="Group_2834" data-name="Group 2834">
          <path id="Path_3309" data-name="Path 3309" d="M260.542,271.99h-3.634a.908.908,0,1,0,0,1.817h3.634a.908.908,0,1,0,0-1.817Z" transform="translate(-256 -271.99)"/>
        </g>
      </g>
      <g id="Group_2837" data-name="Group 2837" transform="translate(14.535 16.618)">
        <g id="Group_2836" data-name="Group 2836">
          <path id="Path_3310" data-name="Path 3310" d="M260.542,335.99h-3.634a.908.908,0,1,0,0,1.817h3.634a.908.908,0,1,0,0-1.817Z" transform="translate(-256 -335.99)"/>
        </g>
      </g>
      <g id="Group_2839" data-name="Group 2839" transform="translate(21.803 5.716)">
        <g id="Group_2838" data-name="Group 2838" transform="translate(0 0)">
          <path id="Path_3311" data-name="Path 3311" d="M386.725,143.99h-1.817a.908.908,0,0,0,0,1.817h1.817a.908.908,0,1,0,0-1.817Z" transform="translate(-384 -143.99)"/>
        </g>
      </g>
      <g id="Group_2841" data-name="Group 2841" transform="translate(21.803 9.35)">
        <g id="Group_2840" data-name="Group 2840">
          <path id="Path_3312" data-name="Path 3312" d="M386.725,207.99h-1.817a.908.908,0,1,0,0,1.817h1.817a.908.908,0,1,0,0-1.817Z" transform="translate(-384 -207.99)"/>
        </g>
      </g>
      <g id="Group_2843" data-name="Group 2843" transform="translate(21.803 12.984)">
        <g id="Group_2842" data-name="Group 2842">
          <path id="Path_3313" data-name="Path 3313" d="M386.725,271.99h-1.817a.908.908,0,0,0,0,1.817h1.817a.908.908,0,1,0,0-1.817Z" transform="translate(-384 -271.99)"/>
        </g>
      </g>
      <g id="Group_2845" data-name="Group 2845" transform="translate(21.803 16.618)">
        <g id="Group_2844" data-name="Group 2844">
          <path id="Path_3314" data-name="Path 3314" d="M386.725,335.99h-1.817a.908.908,0,1,0,0,1.817h1.817a.908.908,0,1,0,0-1.817Z" transform="translate(-384 -335.99)"/>
        </g>
      </g>
      <g id="Group_2847" data-name="Group 2847" transform="translate(4.543 7.533)">
        <g id="Group_2846" data-name="Group 2846">
          <path id="Path_3315" data-name="Path 3315" d="M87.957,183.562,81.6,176.295a.908.908,0,0,0-1.368,1.2l6.359,7.268a.908.908,0,0,0,1.368-1.2Z" transform="translate(-80.004 -175.984)"/>
        </g>
      </g>
      <g id="Group_2849" data-name="Group 2849" transform="translate(4.542 6.625)">
        <g id="Group_2848" data-name="Group 2848">
          <path id="Path_3316" data-name="Path 3316" d="M87.825,160.184a.908.908,0,0,0-1.275.158l-6.359,8.176a.909.909,0,0,0,1.434,1.117l6.359-8.176A.908.908,0,0,0,87.825,160.184Z" transform="translate(-79.999 -159.992)"/>
        </g>
      </g>
    </g>
    <path id="Path_3414" data-name="Path 3414" d="M138.961,30.2l10.774,7.735a.856.856,0,0,0,.9.063.865.865,0,0,0,.472-.769v-3.5c3.942.028,7.4.423,10.711,6.262a.862.862,0,0,0,.754.437.776.776,0,0,0,.219-.028.859.859,0,0,0,.642-.832,16.89,16.89,0,0,0-1.876-8.483c-1.981-3.392-5.493-5.324-10.45-5.747V21.791a.861.861,0,0,0-1.361-.705l-10.782,7.707a.864.864,0,0,0,0,1.4Zm10.415-6.727v2.68a.86.86,0,0,0,.818.86c8.321.416,10.7,4.985,11.317,9.442C157.929,32,154.029,32,150.236,32h0a.876.876,0,0,0-.613.254.864.864,0,0,0-.254.613v2.68l-8.426-6.05Z" transform="translate(3810.571 -164.94)"/>
  </g>
</svg>
