<svg xmlns="http://www.w3.org/2000/svg" width="30" height="34.265" viewBox="0 0 30 34.265">
  <g id="Group_2981" data-name="Group 2981" transform="translate(-3944 141.013)">
    <g id="excel" transform="translate(3944 -129.645)">
      <g id="Group_2827" data-name="Group 2827" transform="translate(0 0)">
        <g id="Group_2826" data-name="Group 2826" transform="translate(0 0)">
          <path id="Path_3305" data-name="Path 3305" d="M6.905,31.711a1.293,1.293,0,0,0-.639-.084L.66,32.675A.807.807,0,0,0,0,33.47v17.8a.808.808,0,0,0,.66.795L13.609,54.5a.774.774,0,0,0,.149.015.809.809,0,0,0,.809-.809l-.009-17.081a.883.883,0,0,0-1.5-.393c-.1.087-.118.393-.118.393l.011,16.1L1.619,50.6V34.141L6.583,33.2a1.121,1.121,0,0,0,.584-.339.72.72,0,0,0,.156-.668A.93.93,0,0,0,6.905,31.711ZM5.088,37.37Z" transform="translate(0 -31.614)"/>
        </g>
      </g>
      <g id="Group_2829" data-name="Group 2829" transform="translate(12.949 6.319)">
        <g id="Group_2828" data-name="Group 2828" transform="translate(0 0)">
          <path id="Path_3306" data-name="Path 3306" d="M267.33,130.947v11.2H256.809a.809.809,0,1,0,0,1.619h11.33a.81.81,0,0,0,.809-.809V130.947a.433.433,0,0,0-.189-.341,1.081,1.081,0,0,0-.67-.179.784.784,0,0,0-.553.179A.424.424,0,0,0,267.33,130.947Z" transform="translate(-256 -130.426)"/>
        </g>
      </g>
      <g id="Group_2831" data-name="Group 2831" transform="translate(12.949 5.092)">
        <g id="Group_2830" data-name="Group 2830" transform="translate(0 0)">
          <path id="Path_3307" data-name="Path 3307" d="M260.047,143.99h-3.237a.809.809,0,1,0,0,1.619h3.237a.809.809,0,1,0,0-1.619Z" transform="translate(-256 -143.99)"/>
        </g>
      </g>
      <g id="Group_2833" data-name="Group 2833" transform="translate(12.949 8.33)">
        <g id="Group_2832" data-name="Group 2832">
          <path id="Path_3308" data-name="Path 3308" d="M260.047,207.99h-3.237a.809.809,0,1,0,0,1.619h3.237a.809.809,0,1,0,0-1.619Z" transform="translate(-256 -207.99)"/>
        </g>
      </g>
      <g id="Group_2835" data-name="Group 2835" transform="translate(12.949 11.567)">
        <g id="Group_2834" data-name="Group 2834">
          <path id="Path_3309" data-name="Path 3309" d="M260.047,271.99h-3.237a.809.809,0,1,0,0,1.619h3.237a.809.809,0,1,0,0-1.619Z" transform="translate(-256 -271.99)"/>
        </g>
      </g>
      <g id="Group_2837" data-name="Group 2837" transform="translate(12.949 14.804)">
        <g id="Group_2836" data-name="Group 2836">
          <path id="Path_3310" data-name="Path 3310" d="M260.047,335.99h-3.237a.809.809,0,1,0,0,1.619h3.237a.809.809,0,1,0,0-1.619Z" transform="translate(-256 -335.99)"/>
        </g>
      </g>
      <g id="Group_2839" data-name="Group 2839" transform="translate(19.423 5.092)">
        <g id="Group_2838" data-name="Group 2838" transform="translate(0 0)">
          <path id="Path_3311" data-name="Path 3311" d="M386.428,143.99h-1.619a.809.809,0,1,0,0,1.619h1.619a.809.809,0,1,0,0-1.619Z" transform="translate(-384 -143.99)"/>
        </g>
      </g>
      <g id="Group_2841" data-name="Group 2841" transform="translate(19.423 8.33)">
        <g id="Group_2840" data-name="Group 2840">
          <path id="Path_3312" data-name="Path 3312" d="M386.428,207.99h-1.619a.809.809,0,1,0,0,1.619h1.619a.809.809,0,1,0,0-1.619Z" transform="translate(-384 -207.99)"/>
        </g>
      </g>
      <g id="Group_2843" data-name="Group 2843" transform="translate(19.423 11.567)">
        <g id="Group_2842" data-name="Group 2842">
          <path id="Path_3313" data-name="Path 3313" d="M386.428,271.99h-1.619a.809.809,0,1,0,0,1.619h1.619a.809.809,0,1,0,0-1.619Z" transform="translate(-384 -271.99)"/>
        </g>
      </g>
      <g id="Group_2845" data-name="Group 2845" transform="translate(19.423 14.804)">
        <g id="Group_2844" data-name="Group 2844">
          <path id="Path_3314" data-name="Path 3314" d="M386.428,335.99h-1.619a.809.809,0,1,0,0,1.619h1.619a.809.809,0,1,0,0-1.619Z" transform="translate(-384 -335.99)"/>
        </g>
      </g>
      <g id="Group_2847" data-name="Group 2847" transform="translate(4.047 6.711)">
        <g id="Group_2846" data-name="Group 2846">
          <path id="Path_3315" data-name="Path 3315" d="M87.089,182.735l-5.665-6.474a.809.809,0,0,0-1.219,1.065L85.87,183.8a.809.809,0,0,0,1.219-1.065Z" transform="translate(-80.005 -175.984)"/>
        </g>
      </g>
      <g id="Group_2849" data-name="Group 2849" transform="translate(4.046 5.902)">
        <g id="Group_2848" data-name="Group 2848">
          <path id="Path_3316" data-name="Path 3316" d="M86.971,160.163a.809.809,0,0,0-1.136.141l-5.665,7.284a.81.81,0,0,0,1.277,1l5.665-7.284A.809.809,0,0,0,86.971,160.163Z" transform="translate(-79.999 -159.992)"/>
        </g>
      </g>
    </g>
    <path id="Path_3414" data-name="Path 3414" d="M160.4,29.185l-9.6,6.891a.762.762,0,0,1-.8.057.77.77,0,0,1-.421-.685V32.332c-3.511.025-6.59.377-9.542,5.578a.768.768,0,0,1-.672.389.691.691,0,0,1-.195-.025.766.766,0,0,1-.572-.741,15.046,15.046,0,0,1,1.671-7.557c1.765-3.022,4.893-4.743,9.31-5.12V21.7a.767.767,0,0,1,1.212-.628l9.6,6.866a.77.77,0,0,1,0,1.25Zm-9.278-5.993v2.387a.766.766,0,0,1-.729.766c-7.412.371-9.536,4.441-10.082,8.411,3.191-3.964,6.665-3.964,10.045-3.964h0a.781.781,0,0,1,.547.226.77.77,0,0,1,.226.547v2.387l7.507-5.39Z" transform="translate(3813.281 -161.941)"/>
  </g>
</svg>
