<svg xmlns="http://www.w3.org/2000/svg" width="303.705" height="540" viewBox="0 0 303.705 540"><defs><style>.a{fill:#dbb95e;}.b{fill:#fff;}</style></defs><g transform="translate(28.667)"><path class="a" d="M389.018,460.12a94.656,94.656,0,1,1,94.657-94.655A94.762,94.762,0,0,1,389.018,460.12Zm0-183.385a88.73,88.73,0,1,0,88.733,88.73A88.829,88.829,0,0,0,389.018,276.735Z" transform="translate(-265.79 -242.234)"/><path class="a" d="M412.426,473.223l-2.628-2.568c-.97-.938-23.7-23.344-23.7-44.092,0-21.531,23.709-33.023,24.715-33.5l1.612-.766,1.614.766c1.01.477,24.72,11.969,24.72,33.5,0,20.748-22.734,43.154-23.7,44.092Zm0-72.488c-4.822,2.749-18.794,11.91-18.794,25.828,0,13.789,13.07,29.65,18.794,35.934,5.726-6.283,18.8-22.144,18.8-35.934C431.225,412.648,417.261,403.487,412.426,400.735Z" transform="translate(-289.198 -273.234)"/><path class="a" d="M444.313,394.815h0c-13.782,0-25.819-8.2-26.324-8.549l-1.47-1.017-.146-1.778c-.09-1.113-1.989-27.392,16.657-38.156,5.9-3.409,13.768-5.138,23.378-5.138a110.164,110.164,0,0,1,26.66,3.615l3.538,1-.908,3.559c-.333,1.31-8.371,32.2-26.337,42.574A29.667,29.667,0,0,1,444.313,394.815ZM423.82,381.029c3.352,1.964,11.671,6.25,20.493,6.252a22.237,22.237,0,0,0,11.28-2.886c11.968-6.911,19.152-26.152,21.725-34.247a102.2,102.2,0,0,0-20.911-2.437c-8.267,0-14.867,1.388-19.613,4.126C424.687,358.828,423.774,375.481,423.82,381.029Z" transform="translate(-296.899 -259.935)"/><path class="a" d="M374.493,394.815h0a29.665,29.665,0,0,1-15.046-3.9c-17.968-10.373-26-41.263-26.338-42.574l-.906-3.559,3.536-1a110.178,110.178,0,0,1,26.661-3.615c9.609,0,17.474,1.729,23.379,5.138,18.646,10.764,16.744,37.043,16.654,38.156l-.144,1.778-1.468,1.017C400.31,386.614,388.279,394.815,374.493,394.815Zm-33.006-44.67c2.579,8.1,9.78,27.355,21.724,34.249a22.219,22.219,0,0,0,11.278,2.886h0c8.867,0,17.141-4.274,20.48-6.243.036-5.547-.908-22.237-12.965-29.2-4.746-2.738-11.344-4.126-19.613-4.126A101.886,101.886,0,0,0,341.488,350.146Z" transform="translate(-275.444 -259.935)"/><path class="a" d="M412.426,375.766,410.814,375c-1.006-.482-24.715-11.971-24.715-33.5,0-20.745,22.73-43.151,23.7-44.1l2.628-2.565,2.632,2.565c.968.945,23.7,23.351,23.7,44.1,0,21.534-23.71,33.023-24.72,33.5Zm0-70.205c-5.723,6.283-18.8,22.147-18.8,35.936,0,13.981,13.958,23.1,18.789,25.832,4.827-2.749,18.8-11.912,18.8-25.832C431.225,327.679,418.154,311.838,412.43,305.561Z" transform="translate(-289.198 -248.365)"/><path class="a" d="M456.407,436.893c-9.61,0-17.474-1.73-23.378-5.138-18.646-10.765-16.747-37.043-16.657-38.156l.146-1.779,1.47-1.017c.506-.351,12.538-8.548,26.324-8.548a29.689,29.689,0,0,1,15.047,3.892c17.966,10.374,26,41.264,26.337,42.574l.908,3.562-3.538.995A110.1,110.1,0,0,1,456.407,436.893Zm-32.58-40.856c-.034,5.551.915,22.234,12.967,29.2,4.746,2.735,11.346,4.128,19.613,4.128a102.2,102.2,0,0,0,20.907-2.438c-2.579-8.1-9.781-27.353-21.721-34.25a22.279,22.279,0,0,0-11.28-2.883C435.5,389.788,427.184,394.067,423.828,396.037Z" transform="translate(-296.899 -270.672)"/><path class="a" d="M362.4,436.893a110.113,110.113,0,0,1-26.661-3.615l-3.536-.995.906-3.562c.334-1.309,8.37-32.2,26.338-42.574a29.7,29.7,0,0,1,15.046-3.892c13.788,0,25.817,8.2,26.327,8.548l1.468,1.017.144,1.779c.09,1.113,1.992,27.391-16.654,38.156C379.87,435.163,372,436.893,362.4,436.893Zm-20.907-9.971A102.2,102.2,0,0,0,362.4,429.36c8.268,0,14.867-1.393,19.613-4.128,12.106-6.993,13.019-23.645,12.972-29.192-3.349-1.968-11.667-6.252-20.491-6.252a22.266,22.266,0,0,0-11.278,2.883C351.27,399.566,344.069,418.82,341.489,426.922Z" transform="translate(-275.444 -270.672)"/><path class="a" d="M433.529,441.589l-3.561-.9c-.932-.239-21.557-5.589-34.815-17.175C381.9,435.1,361.27,440.446,360.337,440.684l-3.559.9-1-3.536c-.26-.925-5.939-21.461-2.533-38.739-16.664-5.684-31.612-20.872-32.283-21.561l-2.564-2.63,2.564-2.631c.671-.688,15.619-15.876,32.285-21.563-3.408-17.275,2.272-37.815,2.531-38.74l1-3.535,3.56.9c.932.238,21.558,5.59,34.814,17.177,13.258-11.587,33.884-16.94,34.815-17.174l3.561-.907,1,3.535c.261.925,5.941,21.465,2.534,38.74,16.663,5.689,31.611,20.875,32.282,21.563l2.564,2.631-2.564,2.63c-.671.69-15.619,15.878-32.282,21.561,3.407,17.278-2.273,37.814-2.534,38.739Zm-104.4-66.467c5.317,4.838,17.488,14.932,29.527,17.945l3.779.945-1.069,3.745c-3.422,11.962-.764,27.528.774,34.545,6.848-2.184,21.678-7.68,30.307-16.6l2.706-2.8,2.707,2.8c8.629,8.92,23.456,14.414,30.306,16.6,1.534-7.021,4.19-22.608.776-34.541l-1.069-3.745,3.777-.945c12.04-3.013,24.213-13.107,29.527-17.945-5.314-4.841-17.487-14.935-29.529-17.948l-3.775-.944,1.069-3.743c3.413-11.934.757-27.52-.776-34.544-6.85,2.183-21.677,7.678-30.306,16.6l-2.707,2.8-2.706-2.8c-8.648-8.944-23.459-14.427-30.3-16.6-1.533,7.022-4.19,22.613-.776,34.547l1.07,3.743-3.778.944C346.618,360.187,334.446,370.281,329.129,375.122Z" transform="translate(-271.924 -251.89)"/><path class="a" d="M384.884,478.9l-2.628-2.566c-1.146-1.114-27.073-26.63-35.645-54.369a98.014,98.014,0,0,1-21.587,2.188,178.876,178.876,0,0,1-43.324-5.873l-3.536-1,.908-3.557c.394-1.553,9.526-36.762,29.262-58.057-19.736-21.291-28.868-56.5-29.262-58.055l-.908-3.559,3.536-.994a178.8,178.8,0,0,1,43.324-5.874,98.142,98.142,0,0,1,21.587,2.189c8.572-27.737,34.5-53.255,35.645-54.371l2.628-2.565,2.632,2.565c1.146,1.116,27.074,26.634,35.645,54.371a98.123,98.123,0,0,1,21.585-2.189,178.836,178.836,0,0,1,43.323,5.874l3.538.994-.906,3.559c-.395,1.552-9.528,36.765-29.263,58.055,19.733,21.295,28.868,56.5,29.263,58.057l.906,3.557-3.538,1a178.814,178.814,0,0,1-43.321,5.873h0a97.981,97.981,0,0,1-21.585-2.188c-8.572,27.737-34.5,53.255-35.645,54.369Zm-32.932-66.188.946,3.777c5.512,22.04,24.889,44.182,31.987,51.739,7.1-7.557,26.476-29.7,31.99-51.739l.944-3.777,3.748,1.071a85.2,85.2,0,0,0,23.18,2.837,172.952,172.952,0,0,0,37.616-4.669c-2.992-9.92-12.479-37.778-28.814-53.574l-2.8-2.708,2.8-2.708c16.357-15.818,25.831-43.652,28.814-53.571a173.394,173.394,0,0,0-37.617-4.672,85.01,85.01,0,0,0-23.18,2.839l-3.746,1.07-.947-3.778c-5.52-22.071-24.891-44.191-31.99-51.736-7.094,7.554-26.474,29.695-31.987,51.736l-.946,3.778-3.744-1.07a85.045,85.045,0,0,0-23.184-2.839,173.067,173.067,0,0,0-37.617,4.669c2.991,9.921,12.477,37.778,28.812,53.573l2.8,2.708-2.8,2.708c-16.357,15.82-25.825,43.654-28.812,53.573a173.586,173.586,0,0,0,37.617,4.669,85.1,85.1,0,0,0,23.184-2.837Z" transform="translate(-261.656 -232.444)"/><path class="a" d="M440.844,468.05l-3.558-.9c-1.553-.393-36.762-9.526-58.057-29.264-21.292,19.737-56.5,28.87-58.056,29.264l-3.558.9-1-3.535c-.434-1.542-10.13-36.6-3.685-64.908-27.737-8.572-53.252-34.5-54.371-35.645L256,361.332l2.564-2.631c1.119-1.145,26.634-27.071,54.371-35.647-6.445-28.306,3.251-63.367,3.685-64.907l1-3.536,3.558.907c1.553.391,36.764,9.525,58.056,29.261,21.3-19.736,56.5-28.87,58.057-29.261l3.558-.907.995,3.536c.434,1.54,10.129,36.6,3.685,64.907,27.74,8.575,53.252,34.5,54.37,35.647l2.565,2.629-2.565,2.632c-1.118,1.143-26.631,27.073-54.367,35.645,6.44,28.31-3.254,63.366-3.689,64.908ZM379.229,427.2l2.707,2.8c15.82,16.356,43.652,25.826,53.57,28.817,2.371-10.095,8.082-38.958,1.837-60.8l-1.071-3.744,3.779-.945c22.072-5.52,44.191-24.89,51.735-31.987-7.551-7.1-29.694-26.478-51.736-31.99l-3.781-.944,1.072-3.744c6.256-21.876.542-50.715-1.832-60.8-9.922,2.991-37.776,12.477-53.574,28.812l-2.707,2.8-2.706-2.8c-15.816-16.355-43.649-25.827-53.57-28.815-2.371,10.092-8.082,38.957-1.835,60.8l1.071,3.744-3.778.944c-22.041,5.513-44.182,24.891-51.737,31.99,7.555,7.1,29.695,26.475,51.737,31.987l3.778.945-1.071,3.744c-6.247,21.846-.537,50.708,1.835,60.8,9.925-2.993,37.775-12.479,53.57-28.811Z" transform="translate(-256 -238.1)"/></g><path class="a" d="M384.746,600.059a36.5,36.5,0,0,0-.647,7.605h-4.125V602c4.2-.161,2.045-16.694,2.045-16.694s-7.334,7.226-9.06,11.111.109,5.826.109,5.826v5.392h-6.794v-5.392c8.306-3.456-3.453-18.554-3.453-18.554s-11.759,15.1-3.454,18.554v5.392h-6.8v-5.392s1.835-1.942.108-5.826-9.06-11.111-9.06-11.111S341.461,601.84,345.668,602v5.663h-4.127a36.672,36.672,0,0,0-.646-7.605c-.73-2.751-5.825-15.454-9.388-10.68l.028.353s6.688,5.395,7.335,20.928v11h47.9v-11c.648-15.533,7.336-20.928,7.336-20.928l.027-.353C390.569,584.6,385.473,597.307,384.746,600.059Z" transform="translate(-246.6 -322.073)"/><g transform="translate(0 497.121)"><g transform="translate(0)"><path class="b" d="M234.971,911.867a16.425,16.425,0,0,1,4.173-.72,2.738,2.738,0,0,1,2.23.791,2.3,2.3,0,0,1,.647,1.223.381.381,0,0,1-.431.432l-.768-.048a27.466,27.466,0,0,0-5.659,1.223q-4.317,1.224-6.859,2.23a1.8,1.8,0,0,0-.191.816,2.973,2.973,0,0,0,.287,1.1,52.36,52.36,0,0,0,6.091-3.166,2.434,2.434,0,0,1,1.319-.432,14,14,0,0,1,1.991.216q1.342.216,1.607,1.1a5.23,5.23,0,0,1,.264,1.271c0,.257-.176.456-.527.6a6.215,6.215,0,0,0-1.607,1.3q-1.079,1.079-1.079,1.392c0,.208.183.367.551.479s.551.44.551.983q0,.336-.144.432a3.742,3.742,0,0,0-1.534,1.727q2.59,1.392,2.59,2.59a.8.8,0,0,1-.1.407,13.47,13.47,0,0,1-1.247,1.272q-1.151,1.1-1.343,1.294,1.534.1,2.375.1a2.225,2.225,0,0,0,1.126-.192,4.188,4.188,0,0,0,.84-1.462,24.682,24.682,0,0,0,1.175-4.054c.128-.51.256-.766.384-.766s.191.256.191.766l-.144,3.645a14.391,14.391,0,0,0,.144,2.207,10.55,10.55,0,0,1,.144,1.631,1.368,1.368,0,0,1-.5,1.127,2.049,2.049,0,0,1-1.583.264,16.07,16.07,0,0,0-5.659.241,30.448,30.448,0,0,0-3.358.816,33.139,33.139,0,0,0-4.628,2.158,3.744,3.744,0,0,1-1.511.527,3.314,3.314,0,0,1-2.135-2.183,1.81,1.81,0,0,1,.744-1.222,2.354,2.354,0,0,1,1.607-.672l.623.048a9.564,9.564,0,0,0,3.309-.983,13.339,13.339,0,0,0,4.317-3.166q2.061-2.181,1.823-3.286a14.861,14.861,0,0,0-3.837,3.549q-1.726,2.063-2.757,2.063t-1.032-1.63a3.359,3.359,0,0,1,.6-2.279,6,6,0,0,1,1.439-1.127q.839-.48.84-.719c0-.16-.048-.24-.144-.24a4.917,4.917,0,0,0-2.111.671,1.041,1.041,0,0,0-.048.551c.031.208.016.313-.048.313q-.481,0-1.534-1.584a6.253,6.253,0,0,1-1.055-3.549,18.2,18.2,0,0,1,1.151-4.6q-4.316,1.631-5.036,2.422a6.133,6.133,0,0,1-1.823,1.343,4.465,4.465,0,0,1-1.463.552c-.24,0-.416-.337-.527-1.008a10.8,10.8,0,0,1-.168-1.774,2.632,2.632,0,0,1,.144-1.055.994.994,0,0,1,.672-.433q2.255-.622,4.581-1.39t4.221-1.487a9.651,9.651,0,0,0,2.4-1.151,1.673,1.673,0,0,0,.6-1.007,7.414,7.414,0,0,1-3.238-2.278,10.4,10.4,0,0,1-1.559-1.943c0-.127.152-.144.456-.047a2.754,2.754,0,0,0,.816.143,1.4,1.4,0,0,0,.743-.24,33.088,33.088,0,0,1,3.645-1.774q.144-1.87.144-3.214t-.383-1.655a.89.89,0,0,1-.384-.695q0-.576,1.535-.576a5.226,5.226,0,0,1,2.877.863,2.463,2.463,0,0,1,1.343,2.063,3.676,3.676,0,0,1-.119.7q-.121.5-.264,1.511a4.2,4.2,0,0,1,2.494,1.342,3.01,3.01,0,0,1,.672,1.776q0,.575-.792.887a33.212,33.212,0,0,0-3.046,1.559Zm-5.708,11.75a29.832,29.832,0,0,0,2.758-1.991q1.462-1.174,1.463-1.606a.086.086,0,0,0-.1-.1.806.806,0,0,0-.24.048,24.256,24.256,0,0,1-4.221,1.439A3.848,3.848,0,0,0,229.263,923.618Zm23.5-2.014a22.873,22.873,0,0,0,3.382,2.11,2.792,2.792,0,0,1,1.319,1.055,2.587,2.587,0,0,1,.479,1.439,1.629,1.629,0,0,1-.479,1.2q-2.112,2.207-4.6,5.108t-3.454,4.293a8.889,8.889,0,0,1-4.2,3,14.648,14.648,0,0,1-5.349,1.175c-.48,0-.719-.081-.719-.24s.32-.431.959-.815q2.83-1.679,7.746-8.251t4.917-7.386q0-.287-.863-.287a4.037,4.037,0,0,0-2.015.574,10.692,10.692,0,0,0-2.255,1.871q-1.247,1.3-1.51,1.3c-.177,0-.288-.04-.335-.12a17.47,17.47,0,0,1-.408-1.967,16.945,16.945,0,0,1-.336-2.71q0-.863.623-1.055a9.228,9.228,0,0,0,3.286-2.781,12,12,0,0,0,2.086-2.734c0-.224-.08-.335-.241-.335s-.862.127-2.109.383a12.579,12.579,0,0,0-2.615.744,3.973,3.973,0,0,0-1.27.96q-.529.6-.744.6c-.144,0-.272-.319-.384-.959a10.523,10.523,0,0,1-.168-1.823,4.434,4.434,0,0,1,.695-2.087,34.714,34.714,0,0,1,2.974-4q2.278-2.781,2.278-3.405a1.549,1.549,0,0,0-.576-1.151,1.611,1.611,0,0,0-.959-.527q-.384,0-.959,1.486c-.128.287-.248.432-.36.432s-.168-.168-.168-.5a3.442,3.442,0,0,1,.527-1.463,1.633,1.633,0,0,1,1.487-.96,5.225,5.225,0,0,1,2.063.719q1.39.721,2.254,1.271a3.174,3.174,0,0,1,1.127,1.055,2.982,2.982,0,0,1,.264,1.368q0,.864-.671,1.006-.575.1-4.6,4.8a8.522,8.522,0,0,1,1.631-.192,5.925,5.925,0,0,1,3.285,1.247,3.374,3.374,0,0,1,1.8,2.591,1.517,1.517,0,0,1-.527,1.247A11.455,11.455,0,0,0,252.765,921.6Z" transform="translate(-217.512 -899.924)"/><path class="b" d="M314.9,905.219q5.133-.381,6.475-.671a10.647,10.647,0,0,1,2.015-.288,4,4,0,0,1,2.758,1.175q1.27,1.176,1.271,1.967a1.32,1.32,0,0,1-.5,1.151,1.894,1.894,0,0,1-1.128.36,8.376,8.376,0,0,1-1.007-.048,56.58,56.58,0,0,0-7-.289q-2.206,0-3.477.121t-4.126.624a36.189,36.189,0,0,0-4.436,1.007q-1.583.5-5.684,2.135a19.354,19.354,0,0,1-5.492,1.631,1.251,1.251,0,0,1-1.392-1.439,9.626,9.626,0,0,1,.264-1.847,3.241,3.241,0,0,1,.48-1.391.675.675,0,0,1,.407-.168q.384,0,.552.479a.6.6,0,0,0,.576.48,3.687,3.687,0,0,0,1.175-.288A75.9,75.9,0,0,1,306.9,906.85q1.87-.384,1.918-.961-2.3-3.261-2.806-3.98a2.261,2.261,0,0,1-.5-1.055c0-.223.127-.336.383-.336a6.116,6.116,0,0,1,1.391.288,20.842,20.842,0,0,0,3.069.527A4.843,4.843,0,0,1,314.9,905.219Zm-4.365,16.164a4.908,4.908,0,0,0,3.214-1.391,1.419,1.419,0,0,1,1.1-.48,7.03,7.03,0,0,1,2.47.912q1.8.911,1.8,2.11a1.345,1.345,0,0,1-.169.647,9.311,9.311,0,0,1-1.2,1.367q-1.033,1.057-2.854,2.686a2.6,2.6,0,0,1,1.1,1.823,1.28,1.28,0,0,1-.216.648,2.677,2.677,0,0,0-.215,1.272l.144,2.83a11.832,11.832,0,0,1-1.63,6.739q-1.631,2.375-2.206,2.374a.47.47,0,0,1-.241-.1,7.991,7.991,0,0,0-2.734-1.8,18.566,18.566,0,0,1-3.118-1.439q-1.967-1.078-1.966-1.318c0-.065.08-.1.24-.1a9.766,9.766,0,0,1,1.247.192,12.043,12.043,0,0,0,2.23.191,9.5,9.5,0,0,0,2.063-.191,4.723,4.723,0,0,0,1.39-.528,2.034,2.034,0,0,0,.768-.743,5.78,5.78,0,0,0,.36-1.727,22.174,22.174,0,0,0,.143-2.374q0-3.645-1.582-3.837a4.014,4.014,0,0,1-1.991-.671,1.455,1.455,0,0,1-.7-1.129,2.01,2.01,0,0,1,.408-1.175q.407-.577.672-.576a1.783,1.783,0,0,1,.551.1,6.355,6.355,0,0,0,2.158.241q2.59-2.062,2.59-2.974c0-.192-.112-.287-.336-.287A21.119,21.119,0,0,0,310.8,923.9a27.689,27.689,0,0,0-3.285,1.512q-4.367,3.02-4.821,3.021a.841.841,0,0,1-.719-.36,1.912,1.912,0,0,1-.264-1.126,3.683,3.683,0,0,1,.407-1.607,1.907,1.907,0,0,1,.839-1.007,19.122,19.122,0,0,0,2.375-1.536,29.489,29.489,0,0,0,2.565-1.942,8.04,8.04,0,0,0-1.39-.672q-.144,1.3-.863,1.3-1.006,0-1.775-1.367a3.86,3.86,0,0,1-.551-2.589,11.862,11.862,0,0,0,.216-1.943,1.85,1.85,0,0,0-.624-1.655q-.624-.408-.624-.648,0-.575,1.775-.575a13.786,13.786,0,0,1,1.487.1q5.372-3.644,8.442-3.646a5.556,5.556,0,0,1,3.357,1.272q1.679,1.27,1.68,2.278a1.034,1.034,0,0,1-.528.911q-2.015,1.392-2.014,2.062a.909.909,0,0,0,.335.575,1.2,1.2,0,0,1,.336.888c0,.367-.407.68-1.223.934a16.582,16.582,0,0,0-3.069,1.439A6.458,6.458,0,0,0,310.54,921.383Zm-3.693-3.838a41.643,41.643,0,0,0,5.252-2.493q1.175-.767,1.175-1.439c0-.448-.089-.672-.264-.672a2.2,2.2,0,0,0-.912.408,4.425,4.425,0,0,1-1.607.575,22.954,22.954,0,0,1-3.405.168,2.231,2.231,0,0,1,.24,1.007,3.949,3.949,0,0,1-.216,1.2A5.6,5.6,0,0,0,306.847,917.546Z" transform="translate(-236.82 -900.039)"/><path class="a" d="M383.838,936.427a69.467,69.467,0,0,1,7.914-.623,6.628,6.628,0,0,1,4.436,1.366q1.608,1.367,1.608,2.158a1.416,1.416,0,0,1-.481,1.175,1.975,1.975,0,0,1-1.271.384,9.219,9.219,0,0,1-2.588-.624,31.525,31.525,0,0,0-3.263-.959,13.8,13.8,0,0,0-3.093-.336,47.453,47.453,0,0,0-8.442,1.008q-5.277,1.009-6.81,2.014a3.432,3.432,0,0,1-1.2.527,7.973,7.973,0,0,1-1.39.1,3.489,3.489,0,0,1-1.079-.1c-.144-.064-.24-.272-.288-.622a4,4,0,0,0-1.031-1.632,1.285,1.285,0,0,1-.336-.719c0-.447.463-.736,1.391-.863l10.024-1.583a18.731,18.731,0,0,0,1.775-1.655,1.964,1.964,0,0,0,.48-1.174,6.923,6.923,0,0,1-2.542.719,5.416,5.416,0,0,1-2.614-1.151q-1.7-1.152-1.7-1.775c0-.414.241-.623.719-.623a31.889,31.889,0,0,0,6.092-1.1q-.1-1.388-.192-1.918a6.117,6.117,0,0,1-1.751.287,5.971,5.971,0,0,1-2.4-.839q-1.608-.838-1.607-1.366t.815-.817q.814-.286,3.548-.983t4.173-1.127a9.228,9.228,0,0,1,2.638-.432,3.064,3.064,0,0,1,2.566,1.009,2.984,2.984,0,0,1,.791,1.533c0,.353-.088.569-.264.648a3.2,3.2,0,0,1-1.1.12,13.6,13.6,0,0,0-3.046.623,4.416,4.416,0,0,1,.288,2.207,7.52,7.52,0,0,1,.815-.047,2.648,2.648,0,0,1,2.471,1.247,4.32,4.32,0,0,1,.743,1.774q0,.527-1.007.671a21.235,21.235,0,0,1-3.166.1A17.268,17.268,0,0,1,383.838,936.427Zm-.48-28.49a28.34,28.34,0,0,1,4.029-.527,3.945,3.945,0,0,1,1.7.311,8.163,8.163,0,0,1,1.8,1.414,11.292,11.292,0,0,1,1.63,1.848A2.524,2.524,0,0,1,393,912.3a2.682,2.682,0,0,1-.48,1.175q-.479.792-1.534,3.021a38.089,38.089,0,0,1-1.775,3.407,4.933,4.933,0,0,1-1.2,1.486,1.819,1.819,0,0,1-1.247.217,10.786,10.786,0,0,1-1.75.982,4.072,4.072,0,0,1-1.439.336q-.7.025-1.319.024a8.757,8.757,0,0,0-3.022.432,5.746,5.746,0,0,1-1.942.43,2.556,2.556,0,0,1-1.751-1.126,3.25,3.25,0,0,1-.96-1.7,1.4,1.4,0,0,1,.337-.959,4.981,4.981,0,0,1-.768-2.422,6.424,6.424,0,0,0-.575-2.446,4.33,4.33,0,0,0-1.1-1.751q-.528-.382-.528-1.774c0-.351.151-.544.456-.576a5.7,5.7,0,0,0,1.75-.839,23.834,23.834,0,0,0,3-2.254,17.95,17.95,0,0,0,2.062-1.942,1.6,1.6,0,0,0,.36-.96q0-.478-.767-1.1a.589.589,0,0,1-.241-.479q0-.767,1.607-.768a4.058,4.058,0,0,1,2.973,1.439,3.98,3.98,0,0,1,1.368,2.327Q384.51,907.361,383.358,907.936Zm-5.324,2.446a20.682,20.682,0,0,1-4.125,1.44,14.869,14.869,0,0,1,2.255,2.158A20.645,20.645,0,0,1,378.034,910.382Zm8.394,7.771a15.449,15.449,0,0,0,1.271-4.1,23.268,23.268,0,0,0,.407-3.022c0-.464-.112-.7-.335-.7a1.918,1.918,0,0,0-.816.239,8.242,8.242,0,0,1-3.766,1.248,16.49,16.49,0,0,1-4.292-.817,5.5,5.5,0,0,0-1.439,3.6,28.163,28.163,0,0,1,5.779-1.87,3.841,3.841,0,0,1,2.062.743,2.113,2.113,0,0,1,1.127,1.751.981.981,0,0,1-.168.576,7.123,7.123,0,0,1-1.151.984,4.918,4.918,0,0,1-1.678.911,9.746,9.746,0,0,1-2.111.167,5.625,5.625,0,0,1-2.086-.288,12.009,12.009,0,0,1-2.158-1.439,16.454,16.454,0,0,0,.288,4.125,14.411,14.411,0,0,0,3.358-.768,21.536,21.536,0,0,0,3.117-1.176,3.229,3.229,0,0,1,1.391-.455A3.1,3.1,0,0,1,386.428,918.153Z" transform="translate(-255.535 -900.598)"/><path class="a" d="M456.251,928.241q4.651.527,6.643.959a8.026,8.026,0,0,1,2.974,1.151,6.661,6.661,0,0,1,1.751,2.015,4.635,4.635,0,0,1,.767,2.279q0,.982-.671.983a6.284,6.284,0,0,1-1.367-.216,6.575,6.575,0,0,1-1.271-.409,24.73,24.73,0,0,0-9.018-3.069,17.753,17.753,0,0,1-1.606,6.211q-1.366,2.95-2.567,3.645a5.4,5.4,0,0,1-2.757.7,10.654,10.654,0,0,1-2.663-.288,7.931,7.931,0,0,1-2.638-1.463,19.646,19.646,0,0,1-2.806-2.614q-1.271-1.439-1.271-1.823a.084.084,0,0,1,.1-.095c.063,0,.231.135.5.408a3.751,3.751,0,0,0,1.223.742,9.864,9.864,0,0,1,.264-2.11,2.113,2.113,0,0,1,.839-1.247,17.674,17.674,0,0,0,2.446-1.919,11.993,11.993,0,0,0,1.535-1.583,1.452,1.452,0,0,0,.288-.791c0-.241-.248-.36-.743-.36a7.055,7.055,0,0,0-2.757,1.222,14.348,14.348,0,0,0-3,2.279q-.984,1.057-1.271,1.055c-.192,0-.288-.207-.288-.623q0-3.4,1.727-4.172a7.181,7.181,0,0,0,2.374-1.751q1.079-1.174,1.079-1.51c0-.128-.152-.192-.455-.192a12.551,12.551,0,0,0-2.614.792,10.978,10.978,0,0,1-2.854.791c-.463,0-.695-.134-.695-.407a9.228,9.228,0,0,1,.336-1.728,9.4,9.4,0,0,1,.624-1.869q.286-.552.719-.553a9.26,9.26,0,0,0,3.6-1.247A28.055,28.055,0,0,0,448,917.785a11.039,11.039,0,0,1-1.968.239q-1.534,0-1.534-1.27a3.753,3.753,0,0,1,.312-1.8,1.613,1.613,0,0,1,1.222-.671,37.825,37.825,0,0,0,6.213-1.679,44.113,44.113,0,0,0,6.643-2.926q3.068-1.678,3.07-2.253,0-.289-.768-.289a20.572,20.572,0,0,0-5.036.7q-2.734.694-7.987,2.325t-5.707,1.8a1.853,1.853,0,0,0-.768.529,4.692,4.692,0,0,0-.624,1.75,20.893,20.893,0,0,1-1.175,3.43,11.6,11.6,0,0,1-1.2,2.4,1.077,1.077,0,0,1-.816.36q-.479,0-.983-1.055a6.316,6.316,0,0,1-.5-2.71,7.212,7.212,0,0,1,.288-2.4,2.23,2.23,0,0,1,.983-1.151,4.676,4.676,0,0,0,1.463-1.967,6.977,6.977,0,0,0,.815-2.422,2.988,2.988,0,0,1,.408-1.439,3.238,3.238,0,0,1,.864-.935,1.6,1.6,0,0,1,.887-.36l.863.048a11.677,11.677,0,0,0,2.471-.264,12.739,12.739,0,0,0,2.254-.7,9.793,9.793,0,0,0,1.2-.552.413.413,0,0,0,.168-.359q0-.721-1.871-3.166a.837.837,0,0,1-.24-.479.17.17,0,0,1,.192-.192,1.868,1.868,0,0,1,.672.239,5.932,5.932,0,0,0,1.439.432,9.853,9.853,0,0,1,4.436,1.966,5.116,5.116,0,0,1,1.99,3.358,19.323,19.323,0,0,1,3.261-.288,10.09,10.09,0,0,1,5.565,1.319q2.013,1.321,2.013,2.806a1.438,1.438,0,0,1-.287.839,2.185,2.185,0,0,1-.792.672,1.723,1.723,0,0,1-.983.215h-.767a26.628,26.628,0,0,0-4.317.576,17.02,17.02,0,0,0-4.029,1.1,4.983,4.983,0,0,1-.192,2.086,2.622,2.622,0,0,1-1.583,1.271,31.425,31.425,0,0,0-5.276,3.645q5.659.431,7.339,4.7a18.237,18.237,0,0,0,3.141-3.141,5.248,5.248,0,0,0,1.368-2.59c0-.559-.224-.84-.673-.84a1.859,1.859,0,0,0-1.318.673q-.647.672-2.327,2.734a.433.433,0,0,1-.359.19c-.144,0-.216-.08-.216-.239a8.157,8.157,0,0,1,1.535-2.23q1.535-1.895,2.494-1.9a6.776,6.776,0,0,1,2.614.766q1.655.771,1.656,1.728a1.436,1.436,0,0,1-.241.694,29.937,29.937,0,0,1-2.4,2.687Q458.744,926.082,456.251,928.241Zm-6.091-20.721q-.384-1.2-2.255-1.2c-.256,0-.544.016-.863.048q-1.439.143-4.316.144-.623,0-.768.336a4.592,4.592,0,0,0-.143,1.462,8.814,8.814,0,0,0,.287,2.231A26.45,26.45,0,0,1,450.159,907.52Zm3.309,24.462a3.184,3.184,0,0,1-.912.143q-1.3,0-1.294-1.15t1.966-3.023a4.18,4.18,0,0,0-1.152-3.525,4.291,4.291,0,0,0-3.19-1.463,7.179,7.179,0,0,0-3.574,1.007,6.361,6.361,0,0,1,1.512,1.055,1.484,1.484,0,0,1,.456,1.031,3.67,3.67,0,0,1-.241,1.224,3.86,3.86,0,0,1,2.591,2.4,9.36,9.36,0,0,1,1.558-1.92c.112,0,.168.065.168.192q0,.625-2.494,4.006a25.5,25.5,0,0,1-4.749,5.108,4.34,4.34,0,0,0-.959,1.2,6.685,6.685,0,0,0,3.645.864q3.356,0,4.892-1.727A8.92,8.92,0,0,0,453.469,931.982Z" transform="translate(-273.365 -899.99)"/><path class="b" d="M516.565,912.846a6.334,6.334,0,0,0,2.183-1.343,3.116,3.116,0,0,0,1.223-2.4q0-1.342,1.966-1.343a2.569,2.569,0,0,1,2.11,1.03,3.17,3.17,0,0,1,.816,1.9q0,.863-1.871,1.919-2.688,1.486-2.686,2.11a.98.98,0,0,0,.359.6,1.655,1.655,0,0,1,.361,1.2,5.013,5.013,0,0,1-.192,1.463,3.48,3.48,0,0,0-.192.911c0,.192.079.288.241.288s.335-.2.527-.6a3.874,3.874,0,0,0,.359-1.055c.049-.3.352-.631.912-.983a3.158,3.158,0,0,1,1.7-.527q.479,0,.624-.624a7.676,7.676,0,0,1,2.062-3.357,10.043,10.043,0,0,1,3.789-2.47,10.554,10.554,0,0,1,3.094-.791,6.325,6.325,0,0,1,2.973,1.486q2.039,1.488,2.039,2.735a5.529,5.529,0,0,1-.7,2.038q-.7,1.415-1.63,3.549a17.53,17.53,0,0,1-1.942,3.478,7.554,7.554,0,0,1-2.254,2.062,5.542,5.542,0,0,1,3.957,1.895,4.974,4.974,0,0,1,1.271,3,1.469,1.469,0,0,1-.264.888,5.185,5.185,0,0,0-.5,1.8,48.243,48.243,0,0,1-1.487,6.836,7.583,7.583,0,0,1-1.415,2.71,15.075,15.075,0,0,0-1.2,1.367,3.871,3.871,0,0,1-.576.671.7.7,0,0,1-.359.073.723.723,0,0,1-.72-.576,4.659,4.659,0,0,0-1.464-2.325,2.621,2.621,0,0,1-1.055-1.224.716.716,0,0,0-.743-.576,8.849,8.849,0,0,0-2.159.5,7.8,7.8,0,0,0-2.83,1.606,1.015,1.015,0,0,1-.671.24q-.768,0-1.966-1.318a9.114,9.114,0,0,1-1.871-3.645,23.917,23.917,0,0,1-.863-4.773,7.466,7.466,0,0,0-.719-2.493,1.1,1.1,0,0,1-.144-.576.8.8,0,0,1,.287-.6.96.96,0,0,1,.673-.264q.623,0,1.486,1.414a10.228,10.228,0,0,1,1.247,3.238,28.268,28.268,0,0,0,.911,3.357,18.86,18.86,0,0,0,.672,1.8c.1.175.207.264.336.264a2.816,2.816,0,0,0,.671-.144,1.88,1.88,0,0,0,.839-.527,2.625,2.625,0,0,1,.839-.6,1.2,1.2,0,0,0,.648-.6,1.862,1.862,0,0,0,.167-.743q0-.361-1.055-.36a5.939,5.939,0,0,1-2.3-.527q-1.248-.529-1.247-1.343a.692.692,0,0,1,.215-.5,6.545,6.545,0,0,1,1.583-.743q1.367-.528,2.854-1.008c.031-.32.049-.847.049-1.583,0-.255-.216-.384-.648-.384a11.5,11.5,0,0,0-1.3.073,9.838,9.838,0,0,1-1.031.071q-1.438,0-1.439-.623a.768.768,0,0,1,.335-.527,3.6,3.6,0,0,1-1.342-.048q4.651-2.158,7.914-8.49a15.671,15.671,0,0,1-.24-2.566,9.732,9.732,0,0,1,.527-2.806,2.888,2.888,0,0,0-1.247.911,2.973,2.973,0,0,0-.551,1.367,19.637,19.637,0,0,0-.12,2.614q0,1.009-1.248,1.007a7.527,7.527,0,0,1-1.823-.288,9.524,9.524,0,0,1-1.846,3.333,7.119,7.119,0,0,0-1.392,1.9,1.17,1.17,0,0,1-1.1.816q-.743,0-1.391-1.27a5.442,5.442,0,0,1-.648-2.471,2.789,2.789,0,0,1,.576-1.871,2.384,2.384,0,0,0,.576-1.607q0-.934-.527-.983t-1.391-1.1a9.386,9.386,0,0,1-1.294.912,3.1,3.1,0,0,0-1.727,2.877,3.579,3.579,0,0,0,.408,1.656,3.107,3.107,0,0,1,.409,1.367,6.245,6.245,0,0,1-.072,1.007,4.878,4.878,0,0,0-.073.791q0,.36.168.36a2.6,2.6,0,0,0,.863-.5,9.149,9.149,0,0,0,1.08-.886,1.045,1.045,0,0,1,.623-.385c.319,0,.48.32.48.959a3.617,3.617,0,0,1-1.439,2.3q-.721.672-3.358,3.741a16.675,16.675,0,0,0-.144,2.326q0,1.32.312,4.484a28.091,28.091,0,0,0,.479,3.645,2.478,2.478,0,0,1,.168.767c0,.193-.137.288-.408.288s-.847-.622-1.727-1.87a6.454,6.454,0,0,1-1.318-3.741c0-.255.047-.783.144-1.583a16.633,16.633,0,0,0,.143-1.727,7.433,7.433,0,0,0-.048-.911q-3.357,3.261-4.652,3.262-.767,0-1.511-1.92a9.972,9.972,0,0,1-.743-2.4,1.156,1.156,0,0,1,.311-.815,9.73,9.73,0,0,1,1.919-1.2,15.581,15.581,0,0,0,2.71-1.8,11.776,11.776,0,0,0,2.206-2.662,17.481,17.481,0,0,0,.144-2.062,3.86,3.86,0,0,0-.288-1.535q-1.487,1.392-3.045,2.614a9.434,9.434,0,0,1-2.207,1.439,4.024,4.024,0,0,1-1.271.217,2.435,2.435,0,0,1-1.1-.241,7.689,7.689,0,0,1-1.63-1.511,17.407,17.407,0,0,1-1.847-2.375,4.2,4.2,0,0,1-.7-1.391q0-.287.264-.287a3.686,3.686,0,0,1,.935.215,5.011,5.011,0,0,0,1.535.215,3.538,3.538,0,0,0,2.542-.911l7.291-6.091a10.813,10.813,0,0,0,.431-2.614q0-.983-.528-1.223a1.489,1.489,0,0,1-1.055-1.344A2.213,2.213,0,0,1,510,905.6a2.945,2.945,0,0,1,1.823-.383,4.018,4.018,0,0,1,2.686,1.151,3.409,3.409,0,0,1,1.3,2.589,5.005,5.005,0,0,1-.192,1.127,4.882,4.882,0,0,0-.191,1.08c0,.225.087.352.264.384s.335.208.479.528A5.494,5.494,0,0,0,516.565,912.846Zm13,11.752a1.43,1.43,0,0,0,.1-.527,3.519,3.519,0,0,0-.959-1.871,10.164,10.164,0,0,1-2.686,2.972A34.681,34.681,0,0,1,529.564,924.6Zm-1.1,4.652a3.823,3.823,0,0,1,2.615,1.127,2.74,2.74,0,0,1,.694,1.63c0,.5-.215.744-.646.744a7.37,7.37,0,0,0-1.464.167,2.065,2.065,0,0,0-1.055.432,2.711,2.711,0,0,0-.456,1.031,4.719,4.719,0,0,0-.216,1.151.526.526,0,0,0,.383.527,3.659,3.659,0,0,1,1.535,1.224q.622.839,1.1.839a.852.852,0,0,0,.7-.264,24.308,24.308,0,0,0,1.03-3.957,28.394,28.394,0,0,0,.815-5.612q0-2.253-.959-2.253a12.014,12.014,0,0,0-2.11.336,7.147,7.147,0,0,0-1.8.527.539.539,0,0,0-.264.432,1.238,1.238,0,0,0,.072.431,1.644,1.644,0,0,1,.071.553Q528.508,928.673,528.461,929.25Zm.1-11.7a6.273,6.273,0,0,0,1.151-2.879c0-.288-.071-.431-.215-.431s-.344.127-.6.384a2.04,2.04,0,0,0-.384,1.439Q528.508,917.115,528.556,917.547Zm1.247,2.877q.624,1.056,1.3,1.055a.782.782,0,0,0,.456-.215,8.935,8.935,0,0,0,1.1-1.919A24.821,24.821,0,0,0,534.1,915.7a11.178,11.178,0,0,0,.6-2.638,4.252,4.252,0,0,0-.192-1.295q-.191-.6-.479-.6a.961.961,0,0,0-.624.312,3.465,3.465,0,0,1-1.247.6c-.192.1-.287.215-.287.359a.488.488,0,0,0,.144.359,2.129,2.129,0,0,1,.432,1.583,5.217,5.217,0,0,1-.481,1.918Q531.482,917.451,529.8,920.425Z" transform="translate(-289.123 -901.239)"/><path class="b" d="M599.6,936.327q1.536.048,3.166.048,4.174,0,6.044-.192t2.4-.192a1.729,1.729,0,0,1,1.056.407,1.194,1.194,0,0,1,.527.96,1.106,1.106,0,0,1-.6.935,20.028,20.028,0,0,1-3.932,1.223,22.584,22.584,0,0,1-4.8.839,25.624,25.624,0,0,1-4.868-.767,34.249,34.249,0,0,1-6.02-1.895,20.454,20.454,0,0,0-3.789-1.342,28.409,28.409,0,0,0-4.341-.217q-3.165,0-3.6.336a1.3,1.3,0,0,1-.742.336q-.314,0-.936-1.128a4.047,4.047,0,0,1-.623-1.63,1.543,1.543,0,0,1,.287-.912.792.792,0,0,1,.624-.407,1.228,1.228,0,0,1,.624.168,1.682,1.682,0,0,0,.839.167,5.3,5.3,0,0,0,1.032-.095q1.007-1.057,1.006-1.608t-.983-1.175a4.176,4.176,0,0,1-1.534-1.774,5.368,5.368,0,0,1-.552-2.35,2.76,2.76,0,0,1,.384-1.68,1.428,1.428,0,0,0,.384-.839q0-.358-.527-.359l-.672.048a2.743,2.743,0,0,1-2.255-1.008,4.138,4.138,0,0,1-.815-2.686c0-.415.04-.624.119-.624s.2.08.36.241a2.237,2.237,0,0,0,1.726.671,5.92,5.92,0,0,0,.792-.073,7.746,7.746,0,0,1,1.079-.072,4.337,4.337,0,0,1,3.118,1.055,2.918,2.918,0,0,1,1.1,1.991q0,.935-1.318,1.775t-1.32,1.751a1.456,1.456,0,0,0,.719,1.344,6.135,6.135,0,0,1,3.165,5.707,53.751,53.751,0,0,1,7.675,1.775,19.851,19.851,0,0,0,4.172,1.055,56.783,56.783,0,0,1-.191-5.8,17.881,17.881,0,0,0-5.133,2.447,1.908,1.908,0,0,1-1.152.287,2.342,2.342,0,0,1-1.534-.671,2.293,2.293,0,0,1-.767-1.823q0-1.152,1.055-1.151a2.185,2.185,0,0,1,.576.1q2.781-1.727,4-2.686a4.928,4.928,0,0,0,1.655-2.111q-3.118,1.824-4.2,1.823a1.933,1.933,0,0,1-1.534-.527,3.664,3.664,0,0,1-.7-1.606,8.256,8.256,0,0,1-.24-1.56.552.552,0,0,1,.361-.6,2.772,2.772,0,0,1,1.127-.025,24,24,0,0,0,1.63-2.926q-2.543-1.341-2.542-2.205,0-.432,1.008-.72a20.623,20.623,0,0,0,3.933-2.111,5.112,5.112,0,0,1-2.015-2.205q-2.013,2.062-2.926,2.062a.521.521,0,0,1-.383-.144,7.943,7.943,0,0,1-.695-1.3,10.26,10.26,0,0,1-.7-1.727,4.934,4.934,0,0,1-.144-1.2q0-1.582.576-1.583a1.375,1.375,0,0,1,.623.216,1.783,1.783,0,0,0,.888.215,10.616,10.616,0,0,0,2.422-.671c.031-.512.049-1.063.049-1.655a1.519,1.519,0,0,0-.409-1.224,2.608,2.608,0,0,1-.671-.862,10.268,10.268,0,0,1-.6-1.871,2.128,2.128,0,0,0,1.055.383,3.7,3.7,0,0,0,.767-.071,2.958,2.958,0,0,1,.624-.072,4.1,4.1,0,0,1,2.517.934,3.936,3.936,0,0,1,1.511,2.519,34.893,34.893,0,0,0,3.79-.864,12.727,12.727,0,0,0,.24-2.278,2.657,2.657,0,0,0-.384-1.534,1.734,1.734,0,0,1-.384-.888c0-.384.4-.575,1.2-.575a3.64,3.64,0,0,1,2.566.864,3.1,3.1,0,0,1,.935,2.4,6.515,6.515,0,0,1-.192,1.486,10.363,10.363,0,0,1,1.559,1.224,1.65,1.65,0,0,1,.553,1.174,1.3,1.3,0,0,1-.217.863.73.73,0,0,1-.695.168,5.6,5.6,0,0,0-.816-.071,4.173,4.173,0,0,0-2.207.72,26.888,26.888,0,0,1-2.638,3.884,3.942,3.942,0,0,1,2.182,1.056,2.045,2.045,0,0,1,.456,1.2.863.863,0,0,1-.288.768,2.768,2.768,0,0,1-1.1.287,9.379,9.379,0,0,0-4.557,2.111,7.34,7.34,0,0,1,1.344-.144,1.7,1.7,0,0,1,1.871,1.3q3.6,0,3.6,2.446a1.374,1.374,0,0,1-.719,1.15,13.953,13.953,0,0,1-2.927,1.2q0,1.295-.144,2.734a8.2,8.2,0,0,1,1.942-.191,3.994,3.994,0,0,1,2.231.694,1.985,1.985,0,0,1,1.055,1.656q0,.959-.552.958a6.267,6.267,0,0,1-1.175-.119,9.439,9.439,0,0,0-1.7-.12q-1.08,0-1.989.047Q600.37,931.2,599.6,936.327Zm-18.993-23.07a10.819,10.819,0,0,1-1.223-1.992,4.982,4.982,0,0,1-.455-1.175c0-.128.055-.192.168-.192a1.761,1.761,0,0,1,.624.241,2.771,2.771,0,0,0,1.27.24l.72-.048a5.069,5.069,0,0,1,2.878,1.3,3.59,3.59,0,0,1,1.679,2.781q0,.817-.959.816a7.238,7.238,0,0,1-.984-.1,9.106,9.106,0,0,0-1.319-.1,9.623,9.623,0,0,0-5.132,1.583A19.275,19.275,0,0,0,580.609,913.258Zm17.17,7.193q.048-.479.048-.934a.6.6,0,0,0-.527-.6,10.68,10.68,0,0,0-1.918,2.3Q596.005,920.98,597.78,920.451Zm-.191,7.148a5.542,5.542,0,0,1,0-1.056,7.4,7.4,0,0,0-1.535,1.488A9.03,9.03,0,0,1,597.589,927.6Zm2.254-18.083a7.471,7.471,0,0,1-1.774.1q-.288,0-.624.528a10.192,10.192,0,0,1-.48,1.774,7.4,7.4,0,0,1,1.871-.288A21.862,21.862,0,0,0,599.843,909.516Z" transform="translate(-309.088 -899.875)"/></g></g><g transform="translate(9.187 308.758)"><g transform="translate(0 0)"><path class="b" d="M284.541,666.25c0-9.735,0-11.482-.124-13.479-.125-2.122-.625-3.12-2.684-3.557a11.631,11.631,0,0,0-2.122-.188c-.25,0-.5-.125-.5-.374,0-.375.312-.5,1-.5,2.809,0,6.74.188,7.052.188.687,0,5.429-.188,7.363-.188,3.932,0,8.113.375,11.42,2.747a10.924,10.924,0,0,1,4.306,8.487c0,4.618-1.935,9.235-7.551,14.415,5.117,6.552,9.36,12.106,12.979,15.975,3.37,3.556,6.053,4.243,7.614,4.492a14.914,14.914,0,0,0,2.433.188c.312,0,.562.187.562.374,0,.374-.374.5-1.5.5h-4.43c-3.495,0-5.054-.311-6.677-1.186-2.683-1.435-4.867-4.493-8.424-9.173-2.621-3.432-5.554-7.614-6.8-9.236a1.007,1.007,0,0,0-.811-.374l-7.676-.125c-.312,0-.437.188-.437.5v1.5c0,5.991,0,10.921.312,13.542.187,1.81.561,3.182,2.433,3.432a27.333,27.333,0,0,0,2.808.25c.375,0,.5.187.5.374,0,.313-.312.5-1,.5-3.432,0-7.363-.187-7.676-.187-.062,0-3.994.187-5.865.187-.687,0-1-.125-1-.5,0-.187.124-.374.5-.374a9.652,9.652,0,0,0,1.872-.25c1.248-.25,1.56-1.622,1.81-3.432.312-2.621.312-7.551.312-13.542Zm4.993,5.43a.815.815,0,0,0,.437.749c.936.562,3.807,1,6.552,1a8.078,8.078,0,0,0,4.681-1.186c2.184-1.5,3.807-4.867,3.807-9.609,0-7.8-4.119-12.481-10.8-12.481a18.876,18.876,0,0,0-4.181.374.752.752,0,0,0-.5.748Z" transform="translate(-242.417 -647.279)"/><path class="b" d="M365.869,646.98c14.041,0,24.524,8.862,24.524,23.4,0,13.979-9.859,25.523-24.9,25.523-17.1,0-24.213-13.292-24.213-24.523C341.282,661.271,348.645,646.98,365.869,646.98Zm1.311,46.553c5.616,0,17.223-3.245,17.223-21.4,0-14.977-9.111-23.027-18.971-23.027-10.421,0-18.221,6.864-18.221,20.531C347.21,684.172,355.946,693.533,367.18,693.533Z" transform="translate(-258.281 -646.98)"/><path class="b" d="M429.12,679.167a13.221,13.221,0,0,0-1.436-6.551c-.437-1-8.8-14.727-10.983-17.973a17.464,17.464,0,0,0-4.244-4.618,5.97,5.97,0,0,0-2.683-1c-.311,0-.623-.125-.623-.437,0-.249.249-.437.81-.437,1.186,0,5.866.188,6.178.188.437,0,2.809-.188,5.243-.188.686,0,.81.188.81.437s-.374.312-.936.562a1.262,1.262,0,0,0-.812,1.123,5.322,5.322,0,0,0,.812,2.434c1,1.81,10.359,17.909,11.482,19.719,1.186-2.62,9.112-16.288,10.359-18.348a6.079,6.079,0,0,0,1.061-3.182c0-.874-.249-1.561-1-1.748-.561-.187-.936-.312-.936-.624,0-.25.375-.375,1-.375,1.622,0,3.618.188,4.118.188.374,0,4.867-.188,6.053-.188.437,0,.81.125.81.375,0,.312-.312.5-.81.5a5.949,5.949,0,0,0-2.871.874,11.867,11.867,0,0,0-3.306,3.182c-2.06,2.5-10.8,17.161-11.919,19.845a14.926,14.926,0,0,0-.936,6.24v5.367c0,1,0,3.62.187,6.241.125,1.81.687,3.182,2.559,3.432a27.33,27.33,0,0,0,2.808.25c.374,0,.5.187.5.374,0,.313-.312.5-1,.5-3.432,0-7.363-.187-7.675-.187s-4.244.187-6.116.187c-.686,0-1-.125-1-.5,0-.187.124-.374.5-.374a9.661,9.661,0,0,0,1.872-.25c1.248-.25,1.81-1.622,1.934-3.432.188-2.621.188-5.242.188-6.241Z" transform="translate(-275.599 -647.279)"/><path class="b" d="M482.289,649.414c.749-2.06,1-2.434,1.374-2.434s.624.312,1.372,2.247c.936,2.371,10.734,28.143,14.541,37.628,2.246,5.554,4.056,6.552,5.366,6.928a8.046,8.046,0,0,0,2.5.374c.375,0,.624.063.624.375,0,.374-.561.5-1.248.5-.936,0-5.492,0-9.8-.125-1.186-.062-1.872-.062-1.872-.437,0-.249.188-.373.437-.437.375-.124.748-.687.375-1.685L490.152,677a.544.544,0,0,0-.561-.374H476.174a.657.657,0,0,0-.625.5l-3.744,11.045a13.167,13.167,0,0,0-.874,4.182c0,1.248,1.311,1.81,2.371,1.81h.624c.438,0,.624.125.624.375,0,.374-.374.5-.936.5-1.5,0-4.18-.187-4.867-.187s-4.118.187-7.052.187c-.811,0-1.185-.125-1.185-.5,0-.25.249-.375.561-.375.437,0,1.311-.061,1.81-.125,2.871-.375,4.119-2.746,5.241-5.867Zm6.49,24.961c.312,0,.312-.186.249-.436L483.1,657.089q-.467-1.4-.936,0l-5.491,16.849c-.124.311,0,.436.188.436Z" transform="translate(-288.705 -646.98)"/><path class="b" d="M539.717,677.358c0,9.174.25,13.168,1.373,14.291,1,1,2.62,1.435,7.489,1.435,3.307,0,6.053-.061,7.551-1.871a8.713,8.713,0,0,0,1.622-3.744c.062-.5.188-.812.562-.812.312,0,.374.25.374.936a39.713,39.713,0,0,1-.936,6.241c-.438,1.435-.624,1.685-3.932,1.685-4.494,0-7.738-.124-10.359-.187-2.62-.125-4.555-.187-6.364-.187-.249,0-1.311.061-2.559.061-1.247.062-2.62.125-3.556.125-.686,0-1-.125-1-.5,0-.187.124-.374.5-.374a9.659,9.659,0,0,0,1.872-.25c1.248-.25,1.559-1.622,1.81-3.432.312-2.621.312-7.551.312-13.542V666.25c0-9.735,0-11.482-.124-13.479-.126-2.122-.624-3.12-2.683-3.557a11.645,11.645,0,0,0-2.122-.188c-.25,0-.5-.125-.5-.374,0-.375.313-.5,1-.5,2.808,0,6.739.188,7.051.188s4.868-.188,6.74-.188c.686,0,1,.125,1,.5,0,.249-.25.374-.5.374a14.6,14.6,0,0,0-2.059.188c-1.81.312-2.309,1.373-2.433,3.557-.126,2-.126,3.744-.126,13.479Z" transform="translate(-306.194 -647.279)"/><path class="b" d="M235.275,742.452c0-9.735,0-11.482-.124-13.479-.125-2.122-.625-3.12-2.684-3.557a11.733,11.733,0,0,0-2.122-.187c-.25,0-.5-.125-.5-.374,0-.375.312-.5,1-.5,2.809,0,6.552.188,7.051.188,1.374,0,4.993-.188,7.864-.188,7.8,0,10.609,2.622,11.606,3.558a10.84,10.84,0,0,1,3.12,7.426c0,8.862-6.49,14.852-15.352,14.852a9.18,9.18,0,0,1-1.31-.063c-.312,0-.686-.125-.686-.436,0-.5.374-.562,1.684-.562,6.054,0,10.8-4.431,10.8-10.171a13.239,13.239,0,0,0-3.495-9.611,10.836,10.836,0,0,0-8.549-3.119,7.7,7.7,0,0,0-2.684.374c-.375.125-.5.561-.5,1.186v25.648c0,5.99,0,10.92.312,13.542.187,1.81.562,3.182,2.434,3.432a27.2,27.2,0,0,0,2.808.249c.374,0,.5.186.5.374,0,.312-.312.5-1,.5-3.433,0-7.364-.188-7.676-.188-.187,0-4.118.188-5.991.188-.687,0-1-.125-1-.5,0-.188.125-.374.5-.374a9.639,9.639,0,0,0,1.872-.249c1.248-.25,1.56-1.622,1.81-3.432.312-2.622.312-7.551.312-13.542Z" transform="translate(-229.846 -666.724)"/><path class="b" d="M291.759,725.616c.749-2.06,1-2.434,1.373-2.434s.624.312,1.373,2.247c.936,2.371,10.733,28.143,14.539,37.629,2.247,5.554,4.057,6.552,5.367,6.928a8.048,8.048,0,0,0,2.5.374c.374,0,.623.062.623.374,0,.374-.562.5-1.248.5-.936,0-5.491,0-9.8-.125-1.186-.063-1.872-.063-1.872-.436,0-.25.188-.374.436-.437.375-.125.75-.687.375-1.685l-5.8-15.351a.547.547,0,0,0-.562-.375H285.643a.656.656,0,0,0-.624.5l-3.744,11.045a13.184,13.184,0,0,0-.874,4.182c0,1.248,1.31,1.81,2.371,1.81h.624c.436,0,.624.124.624.374,0,.374-.375.5-.936.5-1.5,0-4.181-.188-4.867-.188s-4.118.188-7.051.188c-.812,0-1.186-.125-1.186-.5,0-.25.25-.374.562-.374.437,0,1.31-.062,1.809-.125,2.871-.375,4.119-2.746,5.243-5.866Zm6.489,24.961c.312,0,.312-.186.25-.436l-5.929-16.849q-.468-1.4-.936,0l-5.492,16.849c-.124.312,0,.436.188.436Z" transform="translate(-240.087 -666.425)"/><path class="b" d="M381.637,753.436c0,5.99,0,10.92.312,13.542.187,1.81.562,3.182,2.434,3.432a27.2,27.2,0,0,0,2.808.249c.374,0,.5.186.5.374,0,.312-.312.5-1,.5-3.432,0-7.363-.188-7.676-.188s-4.243.188-6.115.188c-.687,0-1-.125-1-.5,0-.188.125-.374.5-.374a9.647,9.647,0,0,0,1.872-.249c1.247-.25,1.56-1.622,1.81-3.432.312-2.622.312-7.551.312-13.542v-6.553a.36.36,0,0,0-.375-.374H349.562a.328.328,0,0,0-.375.374v6.553c0,5.99,0,10.92.312,13.542.188,1.81.562,3.182,2.433,3.432a27.266,27.266,0,0,0,2.809.249c.375,0,.5.186.5.374,0,.312-.312.5-1,.5-3.432,0-7.363-.188-7.676-.188s-4.243.188-6.115.188c-.687,0-1-.125-1-.5,0-.188.125-.374.5-.374a9.636,9.636,0,0,0,1.872-.249c1.248-.25,1.56-1.622,1.809-3.432.312-2.622.312-7.551.312-13.542V742.452c0-9.735,0-11.482-.124-13.479-.124-2.122-.624-3.12-2.683-3.557a11.724,11.724,0,0,0-2.121-.187c-.25,0-.5-.125-.5-.374,0-.375.311-.5,1-.5,2.808,0,6.739.188,7.051.188s4.244-.188,6.116-.188c.687,0,1,.125,1,.5,0,.249-.25.374-.5.374a9.33,9.33,0,0,0-1.56.187c-1.686.313-2.185,1.374-2.309,3.557-.125,2-.125,3.744-.125,13.479v1.31a.329.329,0,0,0,.375.375h26.459a.329.329,0,0,0,.375-.375v-1.31c0-9.735,0-11.482-.125-13.479-.125-2.122-.624-3.12-2.683-3.557a11.734,11.734,0,0,0-2.122-.187c-.249,0-.5-.125-.5-.374,0-.375.312-.5,1-.5,2.808,0,6.74.188,7.051.188s4.243-.188,6.116-.188c.686,0,1,.125,1,.5,0,.249-.249.374-.5.374a9.333,9.333,0,0,0-1.56.187c-1.685.313-2.185,1.374-2.31,3.557-.124,2-.124,3.744-.124,13.479Z" transform="translate(-257.576 -666.724)"/><path class="b" d="M430.843,725.616c.75-2.06,1-2.434,1.373-2.434s.624.312,1.373,2.247c.935,2.371,10.733,28.143,14.541,37.629,2.247,5.554,4.056,6.552,5.367,6.928a8.047,8.047,0,0,0,2.5.374c.374,0,.623.062.623.374,0,.374-.562.5-1.248.5-.936,0-5.491,0-9.8-.125-1.186-.063-1.872-.063-1.872-.436,0-.25.187-.374.437-.437.374-.125.748-.687.374-1.685l-5.8-15.351a.545.545,0,0,0-.562-.375H424.727a.656.656,0,0,0-.623.5l-3.744,11.045a13.178,13.178,0,0,0-.874,4.182c0,1.248,1.311,1.81,2.372,1.81h.624c.437,0,.624.124.624.374,0,.374-.374.5-.936.5-1.5,0-4.181-.188-4.868-.188s-4.119.188-7.053.188c-.81,0-1.184-.125-1.184-.5,0-.25.249-.374.561-.374.437,0,1.311-.062,1.809-.125,2.872-.375,4.12-2.746,5.243-5.866Zm6.491,24.961c.312,0,.312-.186.249-.436l-5.928-16.849q-.468-1.4-.936,0l-5.491,16.849c-.125.312,0,.436.187.436Z" transform="translate(-275.578 -666.425)"/><path class="b" d="M484.181,762.746c.124,5.117.748,6.74,2.434,7.24a13.658,13.658,0,0,0,3.12.374c.312,0,.5.124.5.374,0,.374-.375.5-1.123.5-3.558,0-6.054-.188-6.616-.188s-3.182.188-5.99.188c-.624,0-1-.063-1-.5,0-.25.188-.374.5-.374a8.941,8.941,0,0,0,2.558-.374c1.56-.438,1.872-2.247,1.872-7.925L480.5,726.3c0-2.434.186-3.12.686-3.12s1.56,1.373,2.184,2c.936,1.06,10.234,11.108,19.845,21.4,6.178,6.616,12.979,14.228,14.976,16.287l-.686-31.7c-.062-4.056-.5-5.428-2.434-5.928a16.657,16.657,0,0,0-3.058-.312c-.436,0-.5-.188-.5-.437,0-.374.5-.436,1.248-.436,2.808,0,5.8.188,6.49.188s2.746-.188,5.3-.188c.687,0,1.124.062,1.124.436,0,.25-.25.437-.687.437a5.506,5.506,0,0,0-1.5.187c-2.059.438-2.31,1.81-2.31,5.555l-.124,36.568c0,4.118-.125,4.43-.562,4.43-.5,0-1.248-.686-4.555-3.994-.687-.624-9.672-9.8-16.288-16.911-7.239-7.8-14.29-15.663-16.287-17.91Z" transform="translate(-292.532 -666.425)"/><path class="b" d="M590.184,755.32c0-5.055-.312-5.741-2.809-6.427a11.58,11.58,0,0,0-2.12-.188c-.25,0-.5-.124-.5-.374,0-.374.312-.5,1-.5,2.808,0,6.74.188,7.051.188s4.244-.188,6.116-.188c.686,0,1,.125,1,.5,0,.25-.249.374-.5.374a9.175,9.175,0,0,0-1.559.188c-1.686.312-2.185,1.372-2.31,3.557-.124,2-.124,3.869-.124,6.49v6.989c0,2.808-.064,2.933-.812,3.37-3.994,2.122-9.609,2.808-13.229,2.808-4.742,0-13.6-.624-20.531-6.677-3.806-3.308-7.426-9.985-7.426-17.785,0-9.985,4.867-17.036,10.422-20.531,5.616-3.494,11.794-3.931,16.6-3.931A53.436,53.436,0,0,1,590,724.243a31.18,31.18,0,0,0,5.055.624c.625.062.749.312.749.561a78.793,78.793,0,0,0-.438,8.861c0,1-.124,1.311-.56,1.311-.312,0-.375-.374-.437-.935a9.608,9.608,0,0,0-1.31-4.12c-1.56-2.371-6.616-5.053-14.665-5.053-3.932,0-8.612.374-13.354,4.118-3.62,2.87-6.178,8.549-6.178,15.851a25.451,25.451,0,0,0,6.614,17.285,22.711,22.711,0,0,0,16.349,6.677c2.248,0,5.491-.374,7.115-1.311a2.267,2.267,0,0,0,1.248-2.184Z" transform="translate(-312.415 -666.425)"/><path class="b" d="M300.887,814.71c0-6.243,0-7.394-.082-8.709-.082-1.4-.411-2.054-1.767-2.341a8.427,8.427,0,0,0-1.6-.124c-.452,0-.7-.082-.7-.369s.288-.37.9-.37c2.177,0,4.765.124,5.915.124,1.274,0,3.861-.124,6.326-.124,5.134,0,11.995,0,16.472,4.682a14.679,14.679,0,0,1,3.985,10.435,16.321,16.321,0,0,1-4.477,11.461c-1.889,1.931-6.162,4.847-13.761,4.847-1.479,0-3.162-.124-4.723-.246s-3-.247-4.026-.247c-.452,0-1.356,0-2.342.04-.945,0-2.013.083-2.834.083-.534,0-.821-.123-.821-.41,0-.205.165-.329.658-.329a6.669,6.669,0,0,0,1.479-.164c.822-.164,1.027-1.068,1.191-2.259.206-1.725.206-4.971.206-8.75Zm5.134,4.519c0,4.354.041,7.517.082,8.3a8.986,8.986,0,0,0,.452,3.122c.534.78,2.136,1.643,5.381,1.643,4.19,0,6.983-.821,9.448-2.957,2.628-2.26,3.451-6,3.451-10.228a13.959,13.959,0,0,0-3.944-10.27c-3.779-3.615-8.462-4.108-11.666-4.108a10.9,10.9,0,0,0-2.67.289.742.742,0,0,0-.493.821c-.041,1.4-.041,4.97-.041,8.215Z" transform="translate(-246.915 -686.741)"/><path class="b" d="M350.132,814.71c0-6.243,0-7.394-.083-8.709-.082-1.4-.41-2.054-1.765-2.341a8.447,8.447,0,0,0-1.6-.124c-.452,0-.7-.082-.7-.369s.288-.37.9-.37c2.177,0,4.765.124,6,.124.986,0,3.574-.124,5.052-.124.617,0,.9.082.9.37s-.247.369-.658.369a6.165,6.165,0,0,0-1.191.124c-1.109.205-1.438.9-1.52,2.341-.082,1.315-.082,2.465-.082,8.709v5.751c0,5.955,1.192,8.462,3.2,10.1a7.6,7.6,0,0,0,5.134,1.685,8.044,8.044,0,0,0,5.669-2.219c2.259-2.259,2.383-5.956,2.383-10.188V814.71c0-6.243,0-7.394-.082-8.709-.083-1.4-.411-2.054-1.767-2.341a7.947,7.947,0,0,0-1.478-.124c-.451,0-.7-.082-.7-.369s.287-.37.863-.37c2.095,0,4.682.124,4.724.124.492,0,3.081-.124,4.683-.124.575,0,.863.082.863.37s-.247.369-.74.369a6.173,6.173,0,0,0-1.191.124c-1.109.205-1.438.9-1.519,2.341-.083,1.315-.083,2.465-.083,8.709v4.4c0,4.559-.452,9.406-3.9,12.364a12.258,12.258,0,0,1-8.544,2.957c-2.177,0-6.121-.124-9.12-2.834-2.1-1.89-3.656-4.929-3.656-10.886Z" transform="translate(-259.481 -686.741)"/><path class="b" d="M399.487,814.71c0-6.243,0-7.394-.083-8.709-.082-1.4-.411-2.054-1.767-2.341a8.427,8.427,0,0,0-1.6-.124c-.452,0-.7-.082-.7-.369s.288-.37.9-.37c2.177,0,4.765.124,5.628.124,1.4,0,4.518-.124,5.792-.124,2.589,0,5.341.246,7.559,1.766a7.12,7.12,0,0,1,2.794,5.628c0,3.04-1.274,5.833-5.423,9.2,3.656,4.6,6.491,8.257,8.914,10.8,2.3,2.382,3.986,2.669,4.6,2.793a6.476,6.476,0,0,0,1.15.123c.329,0,.494.124.494.329,0,.327-.288.41-.78.41h-3.9c-2.3,0-3.327-.206-4.394-.781-1.767-.944-3.329-2.875-5.628-6.038-1.644-2.259-3.534-5.053-4.068-5.668a.857.857,0,0,0-.74-.288l-3.574-.083c-.2,0-.328.083-.328.33v.574c0,3.82,0,7.066.2,8.791.124,1.191.37,2.1,1.6,2.259a18.733,18.733,0,0,0,2.013.164c.329,0,.492.124.492.329,0,.287-.287.41-.822.41-2.382,0-5.422-.123-6.038-.123-.781,0-3.368.123-5.011.123-.534,0-.821-.123-.821-.41,0-.205.164-.329.657-.329a6.666,6.666,0,0,0,1.478-.164c.822-.164,1.027-1.068,1.191-2.259.206-1.725.206-4.971.206-8.75Zm4.847,3.245c0,.452.081.617.369.74a10.838,10.838,0,0,0,3.122.411c1.644,0,2.179-.165,2.918-.7,1.233-.9,2.424-2.793,2.424-6.16,0-5.834-3.862-7.519-6.286-7.519a8.978,8.978,0,0,0-2.177.166c-.288.081-.369.245-.369.574Z" transform="translate(-272.075 -686.741)"/><path class="b" d="M441.3,814.71c0-6.243,0-7.394-.081-8.709-.083-1.4-.493-2.094-1.4-2.3a5.814,5.814,0,0,0-1.479-.165c-.41,0-.657-.082-.657-.411,0-.247.328-.328.985-.328,1.561,0,4.15.124,5.341.124,1.027,0,3.45-.124,5.011-.124.534,0,.864.082.864.328,0,.329-.247.411-.658.411a6.941,6.941,0,0,0-1.233.124c-1.108.205-1.437.9-1.52,2.341-.082,1.315-.082,2.465-.082,8.709v7.229c0,3.985,0,7.23.164,9,.123,1.109.41,1.849,1.643,2.013a17.183,17.183,0,0,0,2.1.164c.451,0,.658.124.658.329,0,.287-.329.41-.781.41-2.712,0-5.3-.123-6.409-.123-.944,0-3.532.123-5.176.123-.533,0-.822-.123-.822-.41,0-.205.165-.329.658-.329a6.671,6.671,0,0,0,1.479-.164c.822-.164,1.068-.862,1.192-2.054.2-1.725.2-4.97.2-8.955Z" transform="translate(-282.883 -686.741)"/><path class="b" d="M465.9,822.821c-.206,0-.288.082-.369.329l-2.219,5.874a7.977,7.977,0,0,0-.616,2.506c0,.739.369,1.273,1.643,1.273h.617c.492,0,.615.083.615.329,0,.328-.246.41-.7.41-1.314,0-3.081-.123-4.354-.123-.452,0-2.711.123-4.847.123-.534,0-.781-.083-.781-.41,0-.247.164-.329.493-.329a12.641,12.641,0,0,0,1.272-.081c1.891-.246,2.671-1.644,3.493-3.7l10.31-25.8c.493-1.191.74-1.642,1.15-1.642.37,0,.617.369,1.027,1.314.985,2.259,7.558,19.018,10.187,25.262,1.561,3.7,2.752,4.272,3.616,4.478a9.04,9.04,0,0,0,1.725.163c.329,0,.534.042.534.329,0,.328-.37.41-1.889.41-1.479,0-4.478,0-7.764-.083-.74-.04-1.233-.04-1.233-.328,0-.247.165-.329.576-.37a.67.67,0,0,0,.369-.945l-3.286-8.708a.4.4,0,0,0-.411-.289Zm8.38-2.053c.2,0,.246-.124.2-.246l-3.7-10.146c-.041-.165-.083-.37-.206-.37s-.2.205-.245.37l-3.779,10.105c-.043.164,0,.287.164.287Z" transform="translate(-287.273 -686.431)"/><path class="b" d="M506.726,828.026c.082,3.2.616,4.273,1.438,4.56a6.528,6.528,0,0,0,2.136.287c.451,0,.7.083.7.329,0,.328-.37.41-.945.41-2.669,0-4.313-.123-5.094-.123-.369,0-2.3.123-4.435.123-.536,0-.9-.04-.9-.41,0-.247.247-.329.658-.329a7.306,7.306,0,0,0,1.848-.2c1.068-.329,1.232-1.52,1.273-5.094l.37-24.318c0-.82.123-1.4.533-1.4.453,0,.823.533,1.521,1.274.493.534,6.736,7.229,12.733,13.185,2.793,2.794,8.339,8.709,9.036,9.367h.207l-.411-18.445c-.04-2.506-.41-3.286-1.4-3.7a6.694,6.694,0,0,0-2.176-.247c-.494,0-.658-.124-.658-.369,0-.329.451-.37,1.068-.37,2.135,0,4.108.124,4.97.124.451,0,2.012-.124,4.025-.124.534,0,.945.041.945.37,0,.245-.245.369-.738.369a4.455,4.455,0,0,0-1.232.124c-1.151.328-1.48,1.191-1.521,3.492l-.452,25.919c0,.9-.164,1.274-.534,1.274-.452,0-.944-.453-1.4-.9-2.588-2.465-7.846-7.846-12.118-12.077-4.477-4.437-9.038-9.572-9.778-10.352h-.123Z" transform="translate(-298.685 -686.501)"/></g></g><g transform="translate(250.49 446.749)"><path class="b" d="M559.934,832.246v.946h-2.476v7.469h-1.163v-7.469h-2.477v-.946Z" transform="translate(-553.818 -832.246)"/><path class="b" d="M570.872,832.246h1.049l.606,8.415h-1.113l-.4-6.558-2.426,5.043H567.4l-2.426-5.043-.4,6.558h-1.112l.607-8.415h1.049l2.88,5.951Z" transform="translate(-556.277 -832.246)"/></g></svg>