<svg xmlns="http://www.w3.org/2000/svg" width="37.5" height="35" viewBox="0 0 37.5 35"><defs><style>.a{fill:#f1faee;}</style></defs><g transform="translate(2505 -55)"><path class="a" d="M33.75,2h-30A3.8,3.8,0,0,0,0,5.75V26.375a3.8,3.8,0,0,0,3.75,3.75h5v6.25a.625.625,0,0,0,.4.583.626.626,0,0,0,.688-.162L15.9,30.125H33.75a3.8,3.8,0,0,0,3.75-3.75V5.75A3.8,3.8,0,0,0,33.75,2Zm1.578,23.647c0,1.355-.682,2.5-2.037,2.5H16.956a9.2,9.2,0,0,0-1.594,0,4.123,4.123,0,0,0-1.291.862,47.387,47.387,0,0,0-3.312,3.8V28.772a.625.625,0,0,0-.625-.625H4.658a2.534,2.534,0,0,1-2.5-2.5V6.516a2.534,2.534,0,0,1,2.5-2.5H33.291c1.355,0,2.037,1.145,2.037,2.5Z" transform="translate(-2505 53)"/><g transform="translate(-2499.516 61.275)"><path class="a" d="M26.3,5.793,13.427.036a.391.391,0,0,0-.32,0L7.887,2.37a.393.393,0,0,0,.321.717L13.266.825,17.9,2.9V5.786a16.094,16.094,0,0,0-4.62-.97h-.022A16.216,16.216,0,0,0,8.094,6,13.378,13.378,0,0,0,5.183,7.615a.392.392,0,0,0-.137.187L1.354,6.151l6.852-3.07a.392.392,0,0,0-.32-.717L.232,5.793a.393.393,0,0,0,0,.717L5.024,8.652v1.88a.393.393,0,0,0,.785,0V8.406h0V8.13A12.7,12.7,0,0,1,8.391,6.722,15.785,15.785,0,0,1,13.266,5.6a14.623,14.623,0,0,1,2.562.386,15.682,15.682,0,0,1,2.069.638v3.817l-.411,3.417a14.667,14.667,0,0,0-4.22,1.264c-2.329-1.223-6.229-1.569-7.457-1.65V10.533a.393.393,0,1,0-.785,0v3.311a.393.393,0,0,0,.375.392c.051,0,5.152.24,7.673,1.676a.392.392,0,0,0,.389,0,24.513,24.513,0,0,1,3.7-1.2l2.136-.323,1.837-.157a.393.393,0,0,0,.376-.392V12.372a.393.393,0,0,0-.785,0v1.1c-.366.025-.975.073-1.715.163l-.326-3.111V6.958A12.434,12.434,0,0,1,20.724,8.13v.275h0v2.126a.393.393,0,0,0,.785,0V8.652L26.3,6.509a.392.392,0,0,0,0-.717ZM21.487,7.8a.392.392,0,0,0-.137-.187A13.26,13.26,0,0,0,18.683,6.1V3.246l6.5,2.9Zm0,0" transform="translate(0 -0.002)"/></g></g></svg>