<svg xmlns="http://www.w3.org/2000/svg" width="80" height="74.667" viewBox="0 0 80 74.667">
  <g id="logo-big" transform="translate(2505 -55)">
    <path id="chat" d="M72,2H8a8.108,8.108,0,0,0-8,8V54a8.108,8.108,0,0,0,8,8H18.667V75.333a1.334,1.334,0,0,0,.852,1.244,1.336,1.336,0,0,0,1.468-.347L33.923,62H72a8.108,8.108,0,0,0,8-8V10A8.108,8.108,0,0,0,72,2Zm3.367,50.447c0,2.891-1.455,5.333-4.346,5.333H36.173a19.636,19.636,0,0,0-3.4,0,8.8,8.8,0,0,0-2.754,1.839,101.093,101.093,0,0,0-7.066,8.109V59.114a1.334,1.334,0,0,0-1.333-1.333H9.938A5.405,5.405,0,0,1,4.6,52.447V11.634A5.405,5.405,0,0,1,9.938,6.3H71.021c2.891,0,4.346,2.443,4.346,5.333Z" transform="translate(-2505 53)" fill="#f1faee"/>
    <g id="Logo" transform="translate(-2493.301 68.388)">
      <path id="mortarboard" d="M56.107,12.356,28.643.075a.835.835,0,0,0-.684,0L16.825,5.054a.837.837,0,0,0,.684,1.529L28.3,1.757l9.88,4.418v6.168a34.333,34.333,0,0,0-9.857-2.069h-.047a34.594,34.594,0,0,0-11.011,2.515,28.54,28.54,0,0,0-6.211,3.455.837.837,0,0,0-.292.4L2.889,13.12,17.506,6.57a.837.837,0,0,0-.684-1.529L.5,12.356a.837.837,0,0,0,0,1.529l10.222,4.572v4.01a.837.837,0,1,0,1.675,0V17.342a27.09,27.09,0,0,1,5.508-3,33.674,33.674,0,0,1,10.4-2.39,31.2,31.2,0,0,1,5.465.823,33.454,33.454,0,0,1,4.414,1.36v8.143l-.877,7.29a31.289,31.289,0,0,0-9,2.7c-4.968-2.61-13.288-3.348-15.909-3.521V22.467a.837.837,0,1,0-1.675,0v7.064a.838.838,0,0,0,.8.836c.109,0,10.992.513,16.369,3.575a.837.837,0,0,0,.829,0c1.808-1.03,7.894-2.551,7.894-2.551l4.556-.689,3.918-.335a.837.837,0,0,0,.8-.836v-3.14a.837.837,0,1,0-1.675,0v2.35c-.782.053-2.081.157-3.658.347l-.7-6.637V14.841a26.526,26.526,0,0,1,4.354,2.5v5.123a.837.837,0,1,0,1.675,0v-4.01l10.222-4.572a.837.837,0,0,0,0-1.529ZM45.838,16.642a.837.837,0,0,0-.292-.4,28.289,28.289,0,0,0-5.69-3.234V6.923l13.858,6.2Zm0,0" transform="translate(0 -0.002)" fill="#f1faee"/>
    </g>
  </g>
</svg>
