<svg xmlns="http://www.w3.org/2000/svg" width="85.714" height="80" viewBox="0 0 85.714 80"><g transform="translate(2505 -55)"><path d="M77.143,2H8.571A8.687,8.687,0,0,0,0,10.571V57.714a8.687,8.687,0,0,0,8.571,8.571H20V80.571a1.43,1.43,0,0,0,.913,1.333,1.432,1.432,0,0,0,1.573-.371l13.86-15.247h40.8a8.687,8.687,0,0,0,8.571-8.571V10.571A8.687,8.687,0,0,0,77.143,2ZM80.75,56.05c0,3.1-1.559,5.714-4.656,5.714H38.756a21.04,21.04,0,0,0-3.643,0,9.424,9.424,0,0,0-2.951,1.97,108.312,108.312,0,0,0-7.571,8.688v-9.23a1.429,1.429,0,0,0-1.429-1.429H10.648A5.791,5.791,0,0,1,4.934,56.05V12.322a5.791,5.791,0,0,1,5.714-5.714H76.094c3.1,0,4.656,2.617,4.656,5.714Z" transform="translate(-2505 53)" fill="#0169ff"/><g transform="translate(-2492.466 69.344)"><path d="M60.115,13.238,30.689.08a.894.894,0,0,0-.732,0L18.027,5.415a.9.9,0,0,0,.733,1.638L30.323,1.882,40.909,6.615v6.608a36.786,36.786,0,0,0-10.561-2.216H30.3A37.065,37.065,0,0,0,18.5,13.7a30.579,30.579,0,0,0-6.654,3.7.9.9,0,0,0-.313.428L3.095,14.057,18.756,7.039A.9.9,0,0,0,18.024,5.4L.531,13.238a.9.9,0,0,0,0,1.638l10.952,4.9v4.3a.9.9,0,0,0,1.794,0V18.581a29.025,29.025,0,0,1,5.9-3.218A36.079,36.079,0,0,1,30.323,12.8a33.425,33.425,0,0,1,5.856.881,35.844,35.844,0,0,1,4.73,1.457v8.724l-.939,7.811a33.524,33.524,0,0,0-9.647,2.89c-5.323-2.8-14.237-3.587-17.045-3.772V24.072a.9.9,0,0,0-1.794,0v7.569a.9.9,0,0,0,.858.9c.117.005,11.777.55,17.538,3.831a.9.9,0,0,0,.888,0c1.937-1.1,8.458-2.734,8.458-2.734l4.881-.738,4.2-.359a.9.9,0,0,0,.858-.9V28.276a.9.9,0,0,0-1.794,0v2.518c-.837.056-2.229.168-3.919.372L42.7,24.056V15.9a28.421,28.421,0,0,1,4.665,2.68V24.07a.9.9,0,0,0,1.794,0v-4.3l10.952-4.9a.9.9,0,0,0,0-1.638Zm-11,4.593A.9.9,0,0,0,48.8,17.4a30.309,30.309,0,0,0-6.1-3.465V7.418l14.848,6.639Zm0,0" transform="translate(0 -0.002)" fill="#0169ff"/></g></g></svg>