<svg xmlns="http://www.w3.org/2000/svg" width="30.323" height="18.242" viewBox="0 0 30.323 18.242"><path d="M30.058,6.62,15.345.041a.447.447,0,0,0-.366,0L9.013,2.708a.449.449,0,0,0,.366.819L15.162.942l5.293,2.367v3.3A18.393,18.393,0,0,0,15.174,5.5h-.025a18.533,18.533,0,0,0-5.9,1.347A15.29,15.29,0,0,0,5.923,8.7a.448.448,0,0,0-.156.214L1.547,7.029,9.378,3.521A.449.449,0,0,0,9.012,2.7L.265,6.62a.449.449,0,0,0,0,.819L5.742,9.888v2.148a.449.449,0,1,0,.9,0V9.607h0V9.291A14.513,14.513,0,0,1,9.59,7.682,18.04,18.04,0,0,1,15.162,6.4a16.712,16.712,0,0,1,2.928.441,17.922,17.922,0,0,1,2.365.729v4.362l-.47,3.906a16.762,16.762,0,0,0-4.823,1.445C12.5,15.886,8.043,15.49,6.639,15.4V12.037a.449.449,0,1,0-.9,0v3.784a.449.449,0,0,0,.429.448c.059,0,5.888.275,8.769,1.915a.448.448,0,0,0,.444,0,28.015,28.015,0,0,1,4.229-1.367l2.441-.369,2.1-.18a.449.449,0,0,0,.429-.448V14.139a.449.449,0,0,0-.9,0V15.4c-.419.028-1.115.084-1.96.186l-.373-3.555V7.951a14.21,14.21,0,0,1,2.333,1.34v.314h0v2.429a.449.449,0,1,0,.9,0V9.888l5.476-2.449a.449.449,0,0,0,0-.819Zm-5.5,2.3A.448.448,0,0,0,24.4,8.7,15.155,15.155,0,0,0,21.352,6.97V3.71l7.424,3.32Zm0,0" transform="translate(0 -0.002)" fill="#fff"/></svg>