<svg xmlns="http://www.w3.org/2000/svg" width="38.973" height="45" viewBox="0 0 38.973 45">
  <defs>
    <style>
      .cls-1 {
        fill: #677694;
      }
    </style>
  </defs>
  <path id="male" class="cls-1" d="M26.4,31.509H24.151v-2.4a11.256,11.256,0,0,0,5.033-7.425c1.537-.445,2.462-2.727,2.462-4.417a2.7,2.7,0,0,0-1.881-2.831A6.739,6.739,0,0,0,23.78,3.121,9.743,9.743,0,0,0,8.8,15.54a2.847,2.847,0,0,0-1.14,2.478c0,1.754,1,4.153,2.64,4.462a11.224,11.224,0,0,0,4.854,6.63v2.4H12.909A12.725,12.725,0,0,0,.168,44.25.749.749,0,0,0,.917,45H38.391a.75.75,0,0,0,.749-.749A12.756,12.756,0,0,0,26.4,31.509Zm-9.743,1.249V29.923c.067.029.138.047.207.075.291.121.588.229.89.326.113.036.225.075.34.105a11.572,11.572,0,0,0,1.213.283l.225.037a.709.709,0,0,0,.246,0L20,30.712a11.5,11.5,0,0,0,1.214-.279c.115-.033.225-.07.341-.106q.455-.144.894-.327c.066-.027.136-.045.2-.075v2.83l-1.881,2.5H18.53ZM29.4,19.69V15.885c.513.2.749.643.749,1.384A4.5,4.5,0,0,1,29.4,19.69ZM9.162,18.018a1.321,1.321,0,0,1,.647-1.329c.034.034.067.069.1.1v2.831q0,.438.034.871A4.5,4.5,0,0,1,9.162,18.018Zm2.456,3.574a9.308,9.308,0,0,1-.207-1.97V16.467a1.417,1.417,0,0,1,.07-.4c.008-.025.015-.05.024-.075a1.467,1.467,0,0,1,.193-.369l.026-.031a1.509,1.509,0,0,1,.3-.293l.009-.008a1.528,1.528,0,0,1,.375-.191c.021-.008.042-.014.064-.02a1.482,1.482,0,0,1,.421-.07h.17a11.293,11.293,0,0,0,6.759-2.323l3.6-2.728c.4.289,1.031.762,1.7,1.334q.291.25.555.5A7.2,7.2,0,0,1,27.855,14.7a1.32,1.32,0,0,1,.044.319v4.6a8.679,8.679,0,0,1-.091,1.289,9.767,9.767,0,0,1-4.784,7.15,9.533,9.533,0,0,1-3.267,1.175l-.1.013-.1-.016a9.749,9.749,0,0,1-7.938-7.642ZM4.954,36.3a11.2,11.2,0,0,1,7.955-3.289h2.248a.75.75,0,0,0,.15.45l2.052,2.736L16.03,43.5H1.691A11.188,11.188,0,0,1,4.954,36.3Zm12.6,7.2,1.226-6.745H20.53L21.753,43.5Zm5.724,0-1.329-7.307,1.937-2.586.113-.15a.75.75,0,0,0,.151-.45H26.4A11.257,11.257,0,0,1,37.617,43.5Zm0,0" transform="translate(-0.168 0.001)"/>
</svg>
