<svg xmlns="http://www.w3.org/2000/svg" width="27.154" height="30" viewBox="0 0 27.154 30"><defs><style>.a{fill:#a9aaac;}</style></defs><g transform="translate(-24.16 0)"><path class="a" d="M48.2,19.624a.779.779,0,0,1-.778-.778V13.351a9.706,9.706,0,0,0-6.8-9.25,3.064,3.064,0,1,0-5.77,0,9.706,9.706,0,0,0-6.8,9.25v5.495a.779.779,0,0,1-.778.778,3.111,3.111,0,0,0,0,6.221h7.256a3.317,3.317,0,1,0,6.42,0H48.2a3.111,3.111,0,0,0,0-6.221ZM36.439,3.065a1.3,1.3,0,1,1,2.415.662,9.662,9.662,0,0,0-2.232,0A1.289,1.289,0,0,1,36.439,3.065Zm2.848,23.618a1.55,1.55,0,1,1-2.854-.838h2.608A1.539,1.539,0,0,1,39.287,26.683ZM48.2,24.078H27.271a1.344,1.344,0,0,1,0-2.687,2.548,2.548,0,0,0,2.545-2.545V13.351a7.922,7.922,0,0,1,15.843,0v5.495A2.548,2.548,0,0,0,48.2,21.391a1.344,1.344,0,1,1,0,2.687Z"/></g></svg>