<svg xmlns="http://www.w3.org/2000/svg" width="180" height="180" viewBox="0 0 180 180"><defs><style>.a{fill:#fff;stroke:#677694;stroke-width:5px;}.b{fill:#677694;}.c{stroke:none;}.d{fill:none;}</style></defs><g transform="translate(-396.664 -553)"><g class="a" transform="translate(396.664 553)"><rect class="c" width="180" height="180" rx="90"/><rect class="d" x="2.5" y="2.5" width="175" height="175" rx="87.5"/></g><g transform="translate(440.887 583)"><path class="b" d="M88.883,129.788c-2.4-7.737-14.8-18.326-27.158-20.3A28.012,28.012,0,0,0,73.7,95.453c6.393-.012,11.59-4.831,11.59-10.753a10.027,10.027,0,0,0-1.05-4.46C89.125,66.9,88.874,56.392,83.484,49c-5.282-7.246-13.9-9.238-17.737-9.777a14.476,14.476,0,0,0-6.157-7.033c-8.346-5.111-22.341-4.977-41.6.4C10.8,34.6,5.871,38.318,3.342,43.651-.48,51.711,1.364,63.235,8.816,77.914A10.228,10.228,0,0,0,6.2,84.7c0,5.922,5.2,10.74,11.59,10.753A28.012,28.012,0,0,0,29.777,109.5a37.127,37.127,0,0,0-17.452,7.671,2.3,2.3,0,0,0-.254,3.412,2.76,2.76,0,0,0,3.685.236,31.838,31.838,0,0,1,16.467-6.762,14.708,14.708,0,0,0,4.1,8.618,13.156,13.156,0,0,0,9.428,3.42,13.156,13.156,0,0,0,9.433-3.424,14.7,14.7,0,0,0,4.094-8.62c15.185,1.679,27,13.675,27,28.179v1.39c-12.015.191-16.525-.306-81.048,0v-1.39A26.769,26.769,0,0,1,9.58,127.634a2.319,2.319,0,0,0-.894-3.318,2.732,2.732,0,0,0-3.583.827A31.337,31.337,0,0,0,0,142.226v3.807a2.52,2.52,0,0,0,2.612,2.418c44.715,0,88.884-.536,88.884-.536v-5.69s.129,4.1,0-.013S91.286,137.525,88.883,129.788ZM75.033,90.482a25.494,25.494,0,0,0,.326-4.053V78.991a5.826,5.826,0,0,1-.326,11.491ZM11.426,84.7a6.016,6.016,0,0,1,4.71-5.71v7.438a25.533,25.533,0,0,0,.326,4.053A6.052,6.052,0,0,1,11.426,84.7Zm9.933,1.728V68.723c5.924-.108,20.17-1.632,35.6-12.49C59.132,60.316,63.7,67.6,70.135,71.221V86.429c0,12.45-10.94,22.58-24.388,22.58S21.359,98.879,21.359,86.429Zm24.388,34.826a7.833,7.833,0,0,1-5.682-1.954,9.812,9.812,0,0,1-2.6-5.457H54.026a9.8,9.8,0,0,1-2.595,5.454,7.831,7.831,0,0,1-5.684,1.956Z" transform="translate(0 -28.451)"/><path class="b" d="M114.249,222.268a2.414,2.414,0,0,0,1.7-2.06,13.126,13.126,0,0,0-3.02-9.391c-2.432-2.7-6.05-4.067-10.752-4.067s-8.319,1.368-10.752,4.067a13.128,13.128,0,0,0-3.02,9.391,2.414,2.414,0,0,0,1.7,2.06c2.855.868,8.373,1.259,12.073-2.067a11.486,11.486,0,0,0,7.771,2.673,15.232,15.232,0,0,0,4.3-.606Zm-9.9-7.026q-.05-.1-.109-.2a2.414,2.414,0,0,0-2.064-1.162h0a2.414,2.414,0,0,0-2.064,1.162c-.039.065-.076.132-.109.2-1.512,2.81-4.7,2.969-6.717,2.743a7.42,7.42,0,0,1,1.725-3.936c1.478-1.64,3.889-2.471,7.166-2.471,3.257,0,5.659.821,7.139,2.442a7.418,7.418,0,0,1,1.748,3.966C109.046,218.21,105.86,218.049,104.35,215.242Z" transform="translate(-56.4 -148.92)"/></g></g></svg>