<svg xmlns="http://www.w3.org/2000/svg" width="32.002" height="30" viewBox="0 0 32.002 30"><g transform="translate(0 -16.02)"><g transform="translate(9 22.02)"><path d="M155,118.02h-1v-2a4,4,0,1,0-8,0v2h-1a1,1,0,0,0-1,1v8a1,1,0,0,0,1,1h10a1,1,0,0,0,1-1v-8A1,1,0,0,0,155,118.02Zm-7-2a2,2,0,1,1,4,0v2h-4Zm6,10h-8v-6h8Z" transform="translate(-144 -112.02)"/></g><g transform="translate(0 16.02)"><path d="M31.374,25.092a1,1,0,0,0-1.3.558l-.6,1.5a14.984,14.984,0,1,0-3.87,14.48,1,1,0,0,0-1.414-1.414,13,13,0,1,1,3.52-11.892l-2.006-2.008a1,1,0,0,0-1.414,1.414l4,4c.022.022.052.03.076.05a.961.961,0,0,0,.246.164.938.938,0,0,0,.384.08,1,1,0,0,0,.2-.02c.028-.006.048-.028.074-.036a1,1,0,0,0,.28-.134,1.057,1.057,0,0,0,.11-.074,1.007,1.007,0,0,0,.26-.358s0,0,0-.006l2-5A1,1,0,0,0,31.374,25.092Z" transform="translate(0 -16.02)"/></g></g></svg>