<svg id="school" xmlns="http://www.w3.org/2000/svg" width="45" height="45" viewBox="0 0 45 45">
  <defs>
    <style>
      .cls-1 {
        fill: #677694;
      }
    </style>
  </defs>
  <g id="Group_2899" data-name="Group 2899">
    <g id="Group_2898" data-name="Group 2898">
      <path id="Path_3341" data-name="Path 3341" class="cls-1" d="M44.25,18H31.5V15.75a.75.75,0,0,0-.309-.607L23.25,9.368V6.75H31.5A.75.75,0,0,0,32.25,6V1.5A.75.75,0,0,0,31.5.75H23.25a.75.75,0,0,0-1.5,0V9.368l-7.941,5.775a.75.75,0,0,0-.309.607V18H.75a.75.75,0,0,0-.75.75v25.5A.75.75,0,0,0,.75,45h43.5a.75.75,0,0,0,.75-.75V18.75A.75.75,0,0,0,44.25,18Zm-21-15.75h7.5v3h-7.5ZM13.5,43.5H1.5v-24h12Zm12,0h-6V36h6Zm4.5,0H27V35.25a.75.75,0,0,0-.75-.75h-7.5a.75.75,0,0,0-.75.75V43.5H15V16.132l7.5-5.455L30,16.132Zm13.5,0h-12v-24h12Z"/>
      <rect id="Rectangle_16167" data-name="Rectangle 16167" class="cls-1" width="3" height="1.5" transform="translate(3.75 21.75)"/>
      <rect id="Rectangle_16168" data-name="Rectangle 16168" class="cls-1" width="3" height="1.5" transform="translate(8.25 21.75)"/>
      <rect id="Rectangle_16169" data-name="Rectangle 16169" class="cls-1" width="3" height="1.5" transform="translate(3.75 24.75)"/>
      <rect id="Rectangle_16170" data-name="Rectangle 16170" class="cls-1" width="3" height="1.5" transform="translate(8.25 24.75)"/>
      <rect id="Rectangle_16171" data-name="Rectangle 16171" class="cls-1" width="3" height="1.5" transform="translate(3.75 27.75)"/>
      <rect id="Rectangle_16172" data-name="Rectangle 16172" class="cls-1" width="3" height="1.5" transform="translate(8.25 27.75)"/>
      <rect id="Rectangle_16173" data-name="Rectangle 16173" class="cls-1" width="3" height="1.5" transform="translate(3.75 30.75)"/>
      <rect id="Rectangle_16174" data-name="Rectangle 16174" class="cls-1" width="3" height="1.5" transform="translate(8.25 30.75)"/>
      <rect id="Rectangle_16175" data-name="Rectangle 16175" class="cls-1" width="3" height="1.5" transform="translate(3.75 33.75)"/>
      <rect id="Rectangle_16176" data-name="Rectangle 16176" class="cls-1" width="3" height="1.5" transform="translate(8.25 33.75)"/>
      <rect id="Rectangle_16177" data-name="Rectangle 16177" class="cls-1" width="3" height="1.5" transform="translate(33.75 21.75)"/>
      <rect id="Rectangle_16178" data-name="Rectangle 16178" class="cls-1" width="3" height="1.5" transform="translate(38.25 21.75)"/>
      <rect id="Rectangle_16179" data-name="Rectangle 16179" class="cls-1" width="3" height="1.5" transform="translate(33.75 24.75)"/>
      <rect id="Rectangle_16180" data-name="Rectangle 16180" class="cls-1" width="3" height="1.5" transform="translate(38.25 24.75)"/>
      <rect id="Rectangle_16181" data-name="Rectangle 16181" class="cls-1" width="3" height="1.5" transform="translate(33.75 27.75)"/>
      <rect id="Rectangle_16182" data-name="Rectangle 16182" class="cls-1" width="3" height="1.5" transform="translate(38.25 27.75)"/>
      <rect id="Rectangle_16183" data-name="Rectangle 16183" class="cls-1" width="3" height="1.5" transform="translate(33.75 30.75)"/>
      <rect id="Rectangle_16184" data-name="Rectangle 16184" class="cls-1" width="3" height="1.5" transform="translate(38.25 30.75)"/>
      <rect id="Rectangle_16185" data-name="Rectangle 16185" class="cls-1" width="3" height="1.5" transform="translate(33.75 33.75)"/>
      <rect id="Rectangle_16186" data-name="Rectangle 16186" class="cls-1" width="3" height="1.5" transform="translate(38.25 33.75)"/>
      <path id="Path_3342" data-name="Path 3342" class="cls-1" d="M184,189.25a5.25,5.25,0,1,0,5.25-5.25A5.256,5.256,0,0,0,184,189.25Zm9,0a3.75,3.75,0,1,1-3.75-3.75A3.75,3.75,0,0,1,193,189.25Z" transform="translate(-166.75 -166.75)"/>
      <path id="Path_3343" data-name="Path 3343" class="cls-1" d="M217.5,210.25H216v1.5h3V208h-1.5Z" transform="translate(-195.75 -188.5)"/>
    </g>
  </g>
</svg>
