<svg id="Capa_1" enable-background="new 0 0 512 512" height="512" viewBox="0 0 512 512" width="512" xmlns="http://www.w3.org/2000/svg"><g><g><path d="m485.355 501.777h-458.711c-9.166 0-16.596-7.43-16.596-16.596v-58.737c0-9.166 7.43-16.596 16.596-16.596h458.711c9.166 0 16.596 7.43 16.596 16.596v58.737c.001 9.165-7.43 16.596-16.596 16.596z" fill="#bdf4e3"/><path d="m159.16 409.848-53.783 91.929h292.624l-59.252-91.929z" fill="#fef2a8"/><path d="m485.355 409.848h-40.925c6.431 0 11.645 5.213 11.645 11.645v26.623c0 6.431-5.213 11.645-11.645 11.645h-422.737c-6.431 0-11.645-5.214-11.645-11.645v37.065c0 9.166 7.43 16.596 16.596 16.596h458.711c9.166 0 16.596-7.43 16.596-16.596v-58.737c.001-9.166-7.43-16.596-16.596-16.596z" fill="#b1b7e3"/><path d="m129.959 459.76-24.582 42.017h292.624l-27.082-42.017z" fill="#eeb6a8"/><path d="m258.085 18.298h70.621v52.214h-70.621z" fill="#ef8bbd"/><path d="m251.544 6.205c-6.679 0-12.093 5.414-12.093 12.093v104.911h24.187v-104.911c0-6.679-5.414-12.093-12.094-12.093z" fill="#fef2a8"/><path d="m478.308 409.847h-455.196v-231.819c0-13.823 11.206-25.029 25.029-25.029h405.137c13.823 0 25.029 11.206 25.029 25.029v231.819z" fill="#ffa585"/><path d="m345.503 409.847h-189.586v-277.127c0-13.591 11.017-24.608 24.608-24.608h140.37c13.591 0 24.608 11.017 24.608 24.608z" fill="#ffa585"/><path d="m155.917 302.157h189.586v107.69h-189.586z" fill="#b07676"/><path d="m155.917 302.157h33.653v107.69h-33.653z" fill="#ffc7b6"/><path d="m310.433 302.157h35.07v107.69h-35.07z" fill="#ffc7b6"/><ellipse cx="249.889" cy="187.228" fill="#fff" rx="46.812" ry="46.812" transform="matrix(.973 -.23 .23 .973 -36.331 62.421)"/><g fill="#b2e7f1"><path d="m106.158 368.526h-34.438c-3.799 0-6.879-3.08-6.879-6.879v-56.682c0-3.799 3.08-6.879 6.879-6.879h34.438c3.799 0 6.879 3.08 6.879 6.879v56.682c0 3.799-3.08 6.879-6.879 6.879z"/><path d="m106.158 264.76h-34.438c-3.799 0-6.879-3.08-6.879-6.879v-56.682c0-3.799 3.08-6.879 6.879-6.879h34.438c3.799 0 6.879 3.08 6.879 6.879v56.682c0 3.799-3.08 6.879-6.879 6.879z"/><path d="m430.023 368.526h-34.438c-3.799 0-6.879-3.08-6.879-6.879v-56.682c0-3.799 3.08-6.879 6.879-6.879h34.438c3.799 0 6.879 3.08 6.879 6.879v56.682c0 3.799-3.08 6.879-6.879 6.879z"/><path d="m430.023 264.76h-34.438c-3.799 0-6.879-3.08-6.879-6.879v-56.682c0-3.799 3.08-6.879 6.879-6.879h34.438c3.799 0 6.879 3.08 6.879 6.879v56.682c0 3.799-3.08 6.879-6.879 6.879z"/></g><path d="m345.503 148.748h43.203v261.1h-43.203z" fill="#ef7c85"/><path d="m112.215 148.748h43.203v261.1h-43.203z" fill="#ef7c85"/><path d="m191.867 303.944h118.205v49.323h-118.205z" fill="#a45775"/></g><g fill="#440a29"><path d="m488.355 399.973v-221.945c0-19.342-15.736-35.077-35.077-35.077h-97.727v-10.231c0-19.109-15.547-34.656-34.656-34.656h-51.228v-21.524h59.039c3.329 0 6.029-2.7 6.029-6.029v-52.213c0-3.329-2.7-6.029-6.029-6.029h-60.092c-2.492-7.034-9.193-12.094-17.07-12.094-9.992 0-18.122 8.13-18.122 18.123v79.766h-52.897c-19.109 0-34.656 15.547-34.656 34.656v10.231h-97.727c-19.342 0-35.077 15.736-35.077 35.077v225.503c-7.815 4.65-13.065 13.179-13.065 22.913v58.737c0 14.691 11.953 26.644 26.644 26.644h458.711c14.691 0 26.644-11.953 26.644-26.644v-58.737c.001-13.678-10.36-24.975-23.644-26.471zm-35.077-236.926c8.26 0 14.981 6.721 14.981 14.981v221.77h-112.708v-236.751zm-316.111 298.794h226.832l18.596 29.887h-264.025zm7.502-12.058 18.597-29.888h174.634l18.597 29.888zm21.296-139.81h19.873v89.826h-19.873zm138.079 0v89.826h-106.148v-89.826zm31.411 0v89.826h-19.353v-89.826zm-12.778-245.491h-53.01v-40.155h53.01zm-77.197-46.184c0-3.344 2.72-6.065 6.064-6.065s6.065 2.721 6.065 6.065v79.766h-12.129zm-64.955 99.862h140.37c8.029 0 14.56 6.531 14.56 14.56v165.195h-169.49v-165.195c0-8.028 6.531-14.56 14.56-14.56zm-147.364 59.868c0-8.26 6.721-14.981 14.981-14.981h97.727v236.751h-112.708zm-13.065 307.153v-58.737c0-3.611 2.938-6.549 6.548-6.549h122.419l-44.696 71.833h-77.723c-3.61.001-6.548-2.937-6.548-6.547zm471.808 0c0 3.61-2.938 6.548-6.548 6.548h-88.558l-44.695-71.833h133.254c3.61 0 6.548 2.938 6.548 6.549v58.736z"/><path d="m249.889 240.069c29.137 0 52.841-23.704 52.841-52.841s-23.704-52.841-52.841-52.841-52.841 23.704-52.841 52.841c0 29.136 23.704 52.841 52.841 52.841zm0-93.625c22.488 0 40.783 18.296 40.783 40.783s-18.296 40.783-40.783 40.783-40.783-18.296-40.783-40.783 18.295-40.783 40.783-40.783z"/><path d="m71.72 374.555h34.438c7.117 0 12.908-5.79 12.908-12.908v-56.682c0-7.117-5.79-12.908-12.908-12.908h-34.438c-7.117 0-12.907 5.79-12.907 12.908v56.682c-.001 7.117 5.79 12.908 12.907 12.908zm-.85-69.589c0-.469.381-.85.85-.85h34.438c.469 0 .85.381.85.85v56.682c0 .469-.381.85-.85.85h-34.438c-.469 0-.85-.381-.85-.85z"/><path d="m71.72 270.789h34.438c7.117 0 12.908-5.79 12.908-12.908v-56.683c0-7.117-5.79-12.908-12.908-12.908h-34.438c-7.117 0-12.907 5.79-12.907 12.908v56.683c-.001 7.118 5.79 12.908 12.907 12.908zm-.85-69.59c0-.469.381-.85.85-.85h34.438c.469 0 .85.381.85.85v56.683c0 .469-.381.85-.85.85h-34.438c-.469 0-.85-.381-.85-.85z"/><path d="m395.585 374.555h34.438c7.117 0 12.908-5.79 12.908-12.908v-56.682c0-7.117-5.79-12.908-12.908-12.908h-34.438c-7.117 0-12.908 5.79-12.908 12.908v56.682c0 7.117 5.791 12.908 12.908 12.908zm-.85-69.589c0-.469.381-.85.85-.85h34.438c.469 0 .85.381.85.85v56.682c0 .469-.381.85-.85.85h-34.438c-.469 0-.85-.381-.85-.85z"/><path d="m395.585 270.789h34.438c7.117 0 12.908-5.79 12.908-12.908v-56.683c0-7.117-5.79-12.908-12.908-12.908h-34.438c-7.117 0-12.908 5.79-12.908 12.908v56.683c0 7.118 5.791 12.908 12.908 12.908zm-.85-69.59c0-.469.381-.85.85-.85h34.438c.469 0 .85.381.85.85v56.683c0 .469-.381.85-.85.85h-34.438c-.469 0-.85-.381-.85-.85z"/><path d="m259.399 205.112c1.175 1.163 2.707 1.743 4.239 1.743 1.554 0 3.108-.598 4.286-1.79 2.341-2.367 2.321-6.184-.047-8.525l-11.96-11.829v-21.997c0-3.329-2.7-6.029-6.029-6.029s-6.029 2.699-6.029 6.029v24.514c0 1.61.645 3.154 1.79 4.286z"/><path d="m417.401 434.662c-3.329 0-6.029 2.699-6.029 6.029v12.83c0 3.329 2.699 6.029 6.029 6.029 3.329 0 6.029-2.699 6.029-6.029v-12.83c0-3.329-2.699-6.029-6.029-6.029z"/><path d="m459.367 449.783c-3.329 0-6.029 2.7-6.029 6.029v12.829c0 3.329 2.699 6.029 6.029 6.029 3.329 0 6.029-2.699 6.029-6.029v-12.829c0-3.329-2.7-6.029-6.029-6.029z"/><path d="m75.033 443.369c-3.329 0-6.029 2.699-6.029 6.029v12.829c0 3.329 2.7 6.029 6.029 6.029s6.029-2.699 6.029-6.029v-12.829c0-3.33-2.699-6.029-6.029-6.029z"/></g><g><ellipse cx="147.801" cy="28.354" fill="#ffa585" rx="18.636" ry="18.636" transform="matrix(.23 -.973 .973 .23 86.247 165.687)"/><circle cx="485.659" cy="108.112" fill="#ffa585" r="7.892"/><g fill="#ffc7b6"><path d="m419.878 41.126 6.331 17.802c.271.762.808 1.366 1.485 1.671l15.816 7.126c2.234 1.007 2.234 4.567 0 5.574l-15.816 7.126c-.677.305-1.214.909-1.485 1.671l-6.331 17.802c-.895 2.515-4.057 2.515-4.952 0l-6.331-17.802c-.271-.762-.808-1.366-1.485-1.671l-15.816-7.126c-2.234-1.007-2.234-4.567 0-5.574l15.816-7.126c.677-.305 1.214-.909 1.485-1.671l6.331-17.802c.894-2.515 4.057-2.515 4.952 0z"/><path d="m54.164 30.897 8.699 23.998c.373 1.027 1.11 1.842 2.04 2.253l21.733 9.606c3.07 1.357 3.07 6.157 0 7.514l-21.733 9.606c-.93.411-1.668 1.226-2.04 2.253l-8.699 23.998c-1.229 3.391-5.575 3.391-6.804 0l-8.7-23.997c-.372-1.027-1.11-1.842-2.04-2.253l-21.733-9.606c-3.07-1.357-3.07-6.157 0-7.514l21.733-9.606c.931-.411 1.668-1.226 2.04-2.253l8.699-23.998c1.23-3.391 5.576-3.391 6.805-.001z"/></g></g></g></svg>