<svg xmlns="http://www.w3.org/2000/svg" width="30" height="30" viewBox="0 0 30 30"><path d="M28.73.05.666,9.221A.968.968,0,0,0,.48,10.977l10.606,6.167a.968.968,0,0,0,1.063-.06l2.981-2.214-2.214,2.981a.968.968,0,0,0-.06,1.063l6.167,10.606a.969.969,0,0,0,1.756-.186l9.17-28.064A.969.969,0,0,0,28.73.05Zm-9.119,26.63-4.761-8.187,5.741-7.73A.968.968,0,0,0,19.238,9.41l-7.73,5.741L3.32,10.389l24.2-7.907Zm-9.451-5.472L3.735,27.635a.968.968,0,1,1-1.369-1.369L8.792,19.84a.968.968,0,0,1,1.369,1.369Zm-8.489.243a.968.968,0,0,1,0-1.369l2.535-2.535a.968.968,0,0,1,1.369,1.369L3.041,21.452a.968.968,0,0,1-1.369,0Zm10.781,2.973a.968.968,0,0,1,0,1.369L9.918,28.329a.968.968,0,1,1-1.368-1.369l2.535-2.535a.968.968,0,0,1,1.368,0Z" transform="translate(0 -0.001)"/></svg>