<?xml version="1.0" encoding="UTF-8" standalone="no"?>
<svg
   xmlns:dc="http://purl.org/dc/elements/1.1/"
   xmlns:cc="http://creativecommons.org/ns#"
   xmlns:rdf="http://www.w3.org/1999/02/22-rdf-syntax-ns#"
   xmlns:svg="http://www.w3.org/2000/svg"
   xmlns="http://www.w3.org/2000/svg"
   xmlns:sodipodi="http://sodipodi.sourceforge.net/DTD/sodipodi-0.dtd"
   xmlns:inkscape="http://www.inkscape.org/namespaces/inkscape"
   width="800px"
   height="170px"
   viewBox="0 0 800 170"
   version="1.1"
   id="SVGRoot"
   sodipodi:docname="Viettel.svg"
   inkscape:version="1.0.1 (3bc2e813f5, 2020-09-07)">
  <defs
     id="defs850" />
  <sodipodi:namedview
     id="base"
     pagecolor="#ffffff"
     bordercolor="#666666"
     borderopacity="1.0"
     inkscape:pageopacity="0.0"
     inkscape:pageshadow="2"
     inkscape:zoom="1.5685571"
     inkscape:cx="408.39348"
     inkscape:cy="89.268691"
     inkscape:document-units="px"
     inkscape:current-layer="layer1"
     inkscape:document-rotation="0"
     showgrid="false"
     inkscape:window-width="1920"
     inkscape:window-height="1001"
     inkscape:window-x="-9"
     inkscape:window-y="-9"
     inkscape:window-maximized="1"
     showguides="true"
     inkscape:guide-bbox="true" />
  <metadata
     id="metadata853">
    <rdf:RDF>
      <cc:Work
         rdf:about="">
        <dc:format>image/svg+xml</dc:format>
        <dc:type
           rdf:resource="http://purl.org/dc/dcmitype/StillImage" />
        <dc:title />
      </cc:Work>
    </rdf:RDF>
  </metadata>
  <g
     inkscape:label="Lớp 1"
     inkscape:groupmode="layer"
     id="layer1">
    <path
       id="path851"
       style="fill:#ef0032;fill-opacity:1;stroke:none;stroke-width:1.32864px;stroke-linecap:butt;stroke-linejoin:miter;stroke-opacity:1"
       d="m 171.16587,8.5084951 c 0,0 -7.86886,0.5597729 -7.87848,7.7876329 l -0.0323,24.246488 c 0,0 6.15627,-8.23524 14.81863,-8.23524 h 10.31259 c 0,0 8.43381,-0.502774 8.43381,-7.515166 v -8.662164 c 0,0 -0.001,-7.6215641 -8.61805,-7.6215509 z m 221.05127,5.5818779 c -9.3718,0 -9.37061,8.449364 -9.37061,8.449364 V 41.745455 H 362.10458 V 54.65047 c 0,0 -10e-4,8.296265 9.37059,8.296265 h 11.37136 V 127.3213 c 0.61456,21.102 22.88978,33.34596 41.94066,33.34595 h 25.3507 c 6.91362,0 7.99006,-9.53408 7.99006,-9.53408 v -12.29 c -12.59816,2.45819 -22.89323,-0.15312 -22.89323,-0.15312 -19.51178,-5.68452 -18.8969,-20.43315 -18.8969,-20.43315 V 62.946735 h 66.06391 V 127.3213 c 0.61456,21.102 22.89238,33.34596 41.94326,33.34595 h 25.34812 c 6.91361,0 7.99004,-9.53408 7.99004,-9.53408 v -12.29 c -12.59816,2.45819 -22.89064,-0.15312 -22.89064,-0.15312 -19.51178,-5.68452 -18.89689,-20.43315 -18.89689,-20.43315 V 62.946735 h 32.1237 c 9.38384,0 9.20192,-7.608585 9.20192,-7.608585 V 41.745455 H 515.89562 V 23.463561 c 0,-8.845502 -7.99008,-9.373188 -7.99008,-9.373188 h -16.1332 c -9.3718,0 -9.37061,8.449364 -9.37061,8.449364 V 41.745455 H 416.33782 V 23.463561 c 0,-8.845502 -7.98746,-9.373188 -7.98746,-9.373188 z m 340.54916,0 c -9.37181,0 -9.37061,8.449364 -9.37061,8.449364 V 127.3213 c 0.61455,21.102 22.88977,33.34596 41.94065,33.34595 h 25.35071 c 6.91362,0 7.99006,-9.53408 7.99006,-9.53408 v -12.29 c -12.59817,2.45819 -22.89323,-0.15312 -22.89323,-0.15312 -19.51179,-5.68452 -18.89691,-20.43315 -18.89691,-20.43315 V 23.463561 c 0,-8.845502 -7.98746,-9.373188 -7.98746,-9.373188 z M 279.46629,40.904672 c -5.52287,0.0133 -28.72782,0.703998 -46.52346,10.930206 -11.68394,6.714124 -19.1474,17.942571 -19.47819,41.434627 0,0 0.0738,34.819845 4.99023,43.116185 0,0 5.76835,11.8377 18.66333,18.98254 5.57287,3.0878 16.77735,5.29902 25.12237,5.29902 h 81.88833 c 0,0 7.99005,-0.7757 7.99005,-10.60842 v -10.75375 h -81.42901 c 0,0 -21.81471,-0.61529 -22.27562,-25.3507 -0.0242,-1.29657 -0.0281,-2.33823 -0.0441,-3.53443 h 92.22428 c 0,0 16.13321,-1.228 16.13321,-22.122499 0,0 2.61129,-21.510684 -14.13505,-34.877018 -16.74635,-13.366347 -43.62137,-12.105552 -61.90929,-12.505383 0,0 -0.4281,-0.01196 -1.21707,-0.01063 z m 349.98723,0 c -5.52288,0.01197 -28.72781,0.703998 -46.52346,10.930206 -11.68395,6.714124 -19.1474,17.942571 -19.4782,41.434627 0,0 0.0738,34.819845 4.99023,43.116185 0,0 5.76837,11.8377 18.66336,18.98254 5.57284,3.0878 16.77732,5.29902 25.12235,5.29902 h 81.88832 c 0,0 7.99007,-0.77569 7.99007,-10.60842 v -10.75375 h -81.42902 c 0,0 -21.81471,-0.61529 -22.27563,-25.3507 -0.024,-1.29657 -0.0307,-2.33823 -0.0467,-3.53443 h 92.22689 c 0,0 16.13322,-1.228 16.13322,-22.122499 0,0 2.61127,-21.510684 -14.13506,-34.877018 -16.74634,-13.366347 -43.62137,-12.105552 -61.9093,-12.505383 0,0 -0.42809,-0.01196 -1.21705,-0.01063 z M 1.7269052,42.163249 58.882137,152.47478 c 0,0 3.048704,9.33688 20.004972,9.33688 h 6.095693 c 0,0 12.574499,0.57039 18.671138,-10.28923 6.09664,-10.85964 57.15783,-109.359181 57.15783,-109.359181 H 134.7085 c 0,0 -9.90574,1.524836 -16.19289,14.480193 -6.28718,12.955357 -35.245528,74.492538 -35.245528,74.492538 0,0 -2.28683,3.42936 -4.001504,0 -1.714688,-3.42936 -37.723746,-78.494055 -37.723746,-78.494055 0,0 -6.477492,-10.478676 -13.717257,-10.478676 z m 169.7529748,0 c 0,0 -8.19249,0.0013 -8.19249,9.336875 V 152.66682 c 0,0 0.57104,8.00043 8.76339,8.00043 h 18.28968 c 0,0 6.47974,-0.37963 6.47976,-10.28665 V 50.355719 c 0,0 -1.33592,-8.19247 -7.8136,-8.19247 z m 113.49303,19.82852 c 9.57375,0.0039 23.76201,1.398177 31.34779,8.791918 0,0 5.68569,4.607738 5.68569,11.674978 0,7.220873 -4.60919,7.221937 -5.99191,7.221923 h -51.46954 c 0,0 -8.3591,-0.723796 -16.19031,6.723691 0.1607,-10.178365 0.67471,-13.330595 0.67471,-13.330595 0,0 -0.15552,-17.823418 26.11625,-20.588854 0,0 4.08306,-0.495759 9.82732,-0.493061 z m 349.98724,0 c 9.57373,0.0039 23.762,1.398177 31.34779,8.791918 0,0 5.68567,4.607738 5.68567,11.674978 0,7.220873 -4.60918,7.22195 -5.99189,7.221923 h -51.46954 c 0,0 -8.3591,-0.723796 -16.19032,6.723691 0.1607,-10.178365 0.67471,-13.330595 0.67471,-13.330595 0,0 -0.15553,-17.823405 26.11624,-20.588854 0,0 4.08308,-0.495719 9.82734,-0.493061 z"
       sodipodi:nodetypes="cscscscscsccccsccsscccccccsscccccscccscscccscssccssccccscscsccsscsccscccsccccsccsscsccscccscccccscsccscscsccscscccscccsccccccccscccccc" />
  </g>
</svg>
