<svg width="300" height="300" viewBox="0 0 300 300" fill="none" xmlns="http://www.w3.org/2000/svg">
<path d="M295.082 58.3569C292.326 54.3879 288.514 51.2699 284.078 49.3561C279.641 47.4424 274.757 46.8093 269.979 47.5288L22.6434 82.3059C17.8045 82.9821 13.25 84.9939 9.49113 88.1153C5.73228 91.2366 2.91799 95.3441 1.36426 99.9763C-0.189477 104.609 -0.421137 109.582 0.695291 114.339C1.81172 119.096 4.23203 123.447 7.68445 126.904L158.74 278.508C161.162 280.961 164.046 282.91 167.227 284.239C170.408 285.568 173.821 286.252 177.268 286.251C178.645 286.249 180.019 286.143 181.379 285.933C185.477 285.32 189.37 283.738 192.733 281.318C196.097 278.898 198.834 275.711 200.718 272.02L296.993 85.6252C299.255 81.3555 300.275 76.5375 299.937 71.7177C299.599 66.8979 297.917 62.2693 295.082 58.3569ZM294.564 84.3737L198.284 270.745C196.597 274.052 194.145 276.908 191.132 279.077C188.118 281.245 184.631 282.662 180.959 283.21C179.737 283.397 178.504 283.492 177.268 283.494C174.181 283.495 171.125 282.882 168.278 281.691C165.43 280.5 162.848 278.755 160.681 276.557L9.62032 124.949C6.53308 121.85 4.36989 117.953 3.37322 113.694C2.37655 109.435 2.58581 104.982 3.97753 100.836C5.36925 96.689 7.88842 93.0118 11.2527 90.2165C14.6169 87.4211 18.6932 85.618 23.0247 85.0092L270.361 50.237C271.502 50.0773 272.654 49.9973 273.807 49.9975C277.835 50.0279 281.787 51.0902 285.287 53.0829C288.787 55.0756 291.718 57.9323 293.8 61.3802C295.882 64.828 297.045 68.752 297.179 72.7774C297.313 76.8028 296.412 80.7953 294.564 84.3737Z" fill="#EE0033"/>
<path d="M266.337 55.3896L28.4754 88.8321C24.5292 89.3832 20.8145 91.023 17.7483 93.5675C14.682 96.1121 12.3855 99.4608 11.1163 103.238C9.84716 107.015 9.65559 111.071 10.5631 114.951C11.4706 118.83 13.4413 122.381 16.2541 125.203L161.542 270.989C163.515 272.992 165.868 274.581 168.462 275.666C171.056 276.75 173.84 277.307 176.652 277.305C177.775 277.304 178.896 277.217 180.006 277.046C183.349 276.548 186.525 275.257 189.269 273.283C192.014 271.308 194.246 268.707 195.781 265.695L288.375 86.466C290.179 82.9715 290.988 79.0481 290.712 75.1249C290.437 71.2017 289.088 67.4299 286.813 64.2218C284.538 61.0137 281.424 58.493 277.813 56.9353C274.202 55.3775 270.232 54.8428 266.337 55.3896ZM285.94 85.2097L193.351 264.443C191.999 267.061 190.047 269.322 187.655 271.042C185.263 272.762 182.499 273.893 179.587 274.343C176.676 274.793 173.699 274.549 170.899 273.63C168.1 272.712 165.557 271.145 163.477 269.058L18.2095 123.272C15.7569 120.811 14.0379 117.716 13.2452 114.334C12.4524 110.951 12.6172 107.415 13.721 104.121C14.8248 100.827 16.824 97.9049 19.4947 95.6829C22.1654 93.4609 25.4021 92.0265 28.8421 91.5404L266.714 58.0978C267.62 57.9679 268.535 57.9026 269.451 57.9023C272.65 57.9279 275.789 58.7727 278.569 60.356C281.348 61.9393 283.676 64.2083 285.329 66.9467C286.983 69.6851 287.907 72.8015 288.014 75.9986C288.121 79.1957 287.407 82.3669 285.94 85.2097Z" fill="#EE0033"/>
<path d="M261.708 63.3823L35.3243 95.2116C32.1751 95.6522 29.211 96.9617 26.7646 98.9932C24.3182 101.025 22.4863 103.698 21.4745 106.712C20.4627 109.727 20.311 112.964 21.0364 116.06C21.7619 119.156 23.3357 121.988 25.5814 124.24L163.844 262.996C165.419 264.594 167.297 265.863 169.368 266.728C171.438 267.594 173.66 268.038 175.904 268.036C176.801 268.036 177.697 267.967 178.583 267.831C181.251 267.432 183.785 266.403 185.975 264.827C188.164 263.251 189.946 261.176 191.171 258.772L279.297 88.1868C280.741 85.3971 281.389 82.2637 281.17 79.1302C280.951 75.9966 279.873 72.9838 278.056 70.4219C276.238 67.8601 273.75 65.848 270.865 64.6063C267.98 63.3646 264.808 62.9411 261.698 63.3823H261.708ZM276.862 86.9304L188.741 257.541C187.703 259.556 186.203 261.296 184.363 262.621C182.524 263.946 180.397 264.816 178.157 265.163C175.916 265.509 173.626 265.32 171.472 264.612C169.319 263.904 167.363 262.697 165.765 261.09L27.5222 122.309C25.6365 120.418 24.3144 118.04 23.7042 115.441C23.094 112.841 23.2197 110.123 24.0673 107.591C24.9148 105.06 26.4507 102.814 28.5029 101.105C30.555 99.3971 33.0423 98.2941 35.686 97.9199L262.07 66.0954C262.766 65.9945 263.468 65.9438 264.172 65.9439C266.63 65.9632 269.043 66.6121 271.179 67.8289C273.315 69.0456 275.104 70.7896 276.375 72.8943C277.646 74.999 278.356 77.3942 278.438 79.8514C278.52 82.3086 277.971 84.7458 276.843 86.9304H276.862Z" fill="#EE0033"/>
<path d="M258.066 71.2431L41.1514 101.738C38.8945 102.055 36.7705 102.994 35.0174 104.451C33.2644 105.907 31.9517 107.823 31.2264 109.984C30.5011 112.145 30.3919 114.465 30.9111 116.684C31.4302 118.903 32.5572 120.934 34.1657 122.548L166.645 255.517C167.775 256.662 169.121 257.572 170.606 258.192C172.091 258.812 173.684 259.131 175.293 259.129C175.935 259.129 176.575 259.08 177.209 258.983C179.127 258.698 180.948 257.959 182.521 256.827C184.094 255.695 185.374 254.203 186.253 252.476L270.678 89.0227C271.711 87.0231 272.173 84.778 272.016 82.533C271.858 80.2881 271.085 78.1298 269.783 76.2943C268.481 74.4588 266.699 73.0167 264.633 72.1258C262.566 71.2349 260.294 70.9295 258.066 71.2431ZM268.244 87.7664L183.809 251.22C183.12 252.554 182.125 253.706 180.906 254.583C179.688 255.459 178.279 256.036 176.795 256.265C175.311 256.494 173.794 256.369 172.368 255.901C170.941 255.433 169.646 254.635 168.586 253.571L36.1065 120.603C34.8596 119.347 33.9871 117.768 33.5865 116.044C33.186 114.321 33.2732 112.519 33.8385 110.842C34.4038 109.165 35.4248 107.678 36.7872 106.549C38.1496 105.419 39.7995 104.691 41.5523 104.446L258.467 73.9514C258.927 73.8853 259.391 73.8526 259.855 73.8536C261.486 73.8649 263.086 74.2941 264.503 75.1002C265.921 75.9062 267.108 77.0622 267.951 78.4577C268.795 79.8533 269.266 81.4417 269.321 83.0714C269.376 84.701 269.011 86.3175 268.263 87.7664H268.244Z" fill="#EE0033"/>
<path d="M254.429 79.099L46.9737 108.264C45.6084 108.457 44.3237 109.026 43.2636 109.907C42.2034 110.789 41.4096 111.948 40.9712 113.256C40.5327 114.563 40.4669 115.966 40.7811 117.309C41.0952 118.651 41.777 119.88 42.75 120.857L169.446 248.013C170.131 248.705 170.947 249.255 171.845 249.63C172.744 250.005 173.708 250.198 174.682 250.198C175.07 250.198 175.457 250.169 175.841 250.11C176.996 249.94 178.095 249.497 179.045 248.817C179.995 248.136 180.768 247.239 181.301 246.199L262.06 89.8782C262.683 88.6684 262.962 87.3105 262.866 85.9529C262.77 84.5953 262.302 83.2903 261.515 82.1803C260.727 81.0703 259.65 80.1982 258.4 79.6591C257.15 79.12 255.777 78.9347 254.429 79.1234V79.099ZM259.625 88.6023L178.871 244.923C178.533 245.58 178.045 246.147 177.446 246.579C176.847 247.011 176.154 247.295 175.424 247.408C174.694 247.521 173.948 247.459 173.247 247.229C172.545 246.999 171.908 246.605 171.387 246.082L44.6858 118.926C44.0706 118.309 43.6393 117.533 43.4405 116.685C43.2418 115.836 43.2833 114.95 43.5605 114.124C43.8377 113.298 44.3395 112.565 45.0098 112.009C45.68 111.452 46.4922 111.093 47.355 110.972L254.81 81.8072C255.662 81.688 256.529 81.8051 257.319 82.1459C258.108 82.4867 258.788 83.038 259.286 83.7395C259.783 84.4409 260.077 85.2656 260.137 86.1233C260.197 86.9809 260.02 87.8385 259.625 88.6023Z" fill="#EE0033"/>
<path d="M246.148 87.6099L57.6014 114.116C56.6803 114.244 55.8132 114.626 55.0975 115.22C54.3818 115.814 53.8458 116.595 53.5498 117.477C53.2537 118.358 53.2093 119.305 53.4216 120.21C53.6338 121.116 54.0943 121.944 54.7513 122.602L169.906 238.167C170.367 238.633 170.916 239.002 171.521 239.253C172.126 239.505 172.775 239.635 173.431 239.634C173.692 239.634 173.954 239.614 174.213 239.575C174.993 239.458 175.734 239.157 176.374 238.696C177.014 238.235 177.535 237.628 177.894 236.926L251.271 94.8597C251.691 94.0442 251.879 93.129 251.814 92.2141C251.749 91.2991 251.434 90.4195 250.903 89.6714C250.373 88.9233 249.647 88.3353 248.804 87.9718C247.962 87.6082 247.036 87.4831 246.128 87.6099H246.148ZM248.856 93.6033L175.464 235.674C175.301 235.992 175.065 236.266 174.776 236.475C174.486 236.684 174.151 236.821 173.799 236.876C173.446 236.931 173.085 236.902 172.746 236.79C172.407 236.679 172.098 236.489 171.847 236.236L56.7068 120.671C56.4094 120.373 56.201 119.997 56.1049 119.587C56.0089 119.177 56.029 118.748 56.1629 118.349C56.2969 117.949 56.5395 117.595 56.8635 117.326C57.1875 117.056 57.5801 116.883 57.9973 116.824L246.529 90.3182C246.64 90.3111 246.751 90.3111 246.861 90.3182C247.249 90.3217 247.629 90.4244 247.965 90.6165C248.302 90.8086 248.584 91.0837 248.784 91.4156C248.984 91.7474 249.095 92.125 249.108 92.5122C249.12 92.8995 249.034 93.2835 248.856 93.6277V93.6033Z" fill="#EE0033"/>
<path d="M275.958 116.418C272.697 111.197 268.174 106.88 262.808 103.864L195.287 65.7093L109.166 17.034C87.4704 4.77358 60.9794 22.1035 63.5214 46.8884L67.2905 83.704L80.2598 210.273L84.7035 253.63C87.8077 283.939 124.174 297.676 146.544 277.002L146.651 276.904L235.447 194.855L269.706 163.192C276.036 157.346 280.126 149.473 281.267 140.933C282.409 132.392 280.531 123.721 275.958 116.418Z" fill="#EE0033"/>
<path d="M193.845 130.673C192.839 130.673 191.874 131.073 191.163 131.784C190.451 132.496 190.052 133.461 190.052 134.467V137.747C186.534 134.321 182.085 132.009 177.261 131.099C172.436 130.188 167.45 130.721 162.927 132.63C158.403 134.538 154.543 137.739 151.829 141.83C149.114 145.921 147.667 150.722 147.667 155.632C147.667 160.541 149.114 165.342 151.829 169.433C154.543 173.525 158.403 176.725 162.927 178.634C167.45 180.542 172.436 181.075 177.261 180.165C182.085 179.255 186.534 176.942 190.052 173.516V176.801C190.052 177.808 190.451 178.772 191.163 179.484C191.874 180.195 192.839 180.595 193.845 180.595C194.851 180.595 195.816 180.195 196.528 179.484C197.239 178.772 197.639 177.808 197.639 176.801V134.467C197.639 133.968 197.542 133.475 197.351 133.014C197.161 132.554 196.881 132.135 196.529 131.783C196.177 131.43 195.758 131.151 195.298 130.961C194.837 130.77 194.343 130.673 193.845 130.673ZM172.678 173.008C169.241 173.008 165.882 171.989 163.025 170.08C160.168 168.171 157.941 165.457 156.626 162.283C155.311 159.108 154.967 155.615 155.638 152.245C156.308 148.874 157.963 145.779 160.393 143.349C162.822 140.919 165.918 139.264 169.288 138.594C172.658 137.924 176.152 138.268 179.326 139.583C182.501 140.898 185.214 143.125 187.124 145.982C189.033 148.839 190.052 152.198 190.052 155.634C190.046 160.24 188.214 164.656 184.957 167.914C181.7 171.171 177.284 173.003 172.678 173.008Z" fill="white"/>
<path d="M117.54 130.673C111.047 130.672 104.811 133.211 100.166 137.747V134.467C100.166 133.461 99.7662 132.496 99.0548 131.784C98.3434 131.073 97.3785 130.673 96.3724 130.673C95.3663 130.673 94.4014 131.073 93.69 131.784C92.9786 132.496 92.5789 133.461 92.5789 134.467V193.999C92.5789 195.005 92.9786 195.97 93.69 196.682C94.4014 197.393 95.3663 197.793 96.3724 197.793C97.3785 197.793 98.3434 197.393 99.0548 196.682C99.7662 195.97 100.166 195.005 100.166 193.999V173.516C103.098 176.356 106.683 178.431 110.605 179.562C114.527 180.692 118.667 180.842 122.66 179.998C126.654 179.155 130.379 177.344 133.509 174.724C136.639 172.104 139.078 168.756 140.612 164.974C142.146 161.191 142.728 157.09 142.307 153.03C141.885 148.971 140.473 145.076 138.195 141.69C135.917 138.303 132.842 135.527 129.241 133.606C125.639 131.686 121.621 130.678 117.54 130.673ZM117.54 173.008C114.104 173.006 110.746 171.985 107.89 170.075C105.034 168.165 102.809 165.451 101.495 162.276C100.182 159.101 99.8392 155.608 100.511 152.239C101.182 148.869 102.838 145.774 105.268 143.345C107.698 140.917 110.794 139.263 114.164 138.593C117.534 137.924 121.026 138.268 124.201 139.584C127.375 140.899 130.087 143.126 131.996 145.983C133.905 148.84 134.923 152.198 134.923 155.634C134.918 160.242 133.085 164.66 129.826 167.917C126.566 171.174 122.148 173.005 117.54 173.008Z" fill="white"/>
<path d="M249.491 131.186C249.06 130.937 248.584 130.775 248.09 130.709C247.596 130.644 247.094 130.677 246.612 130.806C246.131 130.935 245.68 131.157 245.285 131.461C244.89 131.764 244.558 132.143 244.31 132.575L226.779 162.938L209.229 132.57C208.983 132.134 208.652 131.751 208.257 131.443C207.861 131.136 207.409 130.909 206.925 130.777C206.442 130.646 205.937 130.611 205.44 130.675C204.944 130.739 204.464 130.902 204.03 131.152C203.597 131.403 203.217 131.737 202.913 132.135C202.608 132.533 202.386 132.987 202.259 133.472C202.131 133.956 202.101 134.461 202.17 134.958C202.238 135.454 202.405 135.932 202.659 136.363L222.389 170.525L209.933 192.103C209.682 192.535 209.518 193.013 209.452 193.509C209.386 194.005 209.419 194.509 209.549 194.992C209.679 195.475 209.904 195.928 210.21 196.324C210.516 196.72 210.897 197.051 211.331 197.299C211.908 197.627 212.56 197.796 213.223 197.788C213.89 197.789 214.545 197.614 215.123 197.281C215.7 196.948 216.18 196.469 216.513 195.891L250.88 136.359C251.129 135.928 251.29 135.452 251.355 134.959C251.42 134.466 251.387 133.965 251.258 133.485C251.129 133.004 250.907 132.554 250.603 132.16C250.3 131.765 249.922 131.435 249.491 131.186Z" fill="white"/>
<path d="M181.213 155.282C177.943 154.133 174.178 150.369 173.054 147.099C173.029 147.025 172.982 146.961 172.919 146.916C172.856 146.87 172.78 146.846 172.702 146.846C172.624 146.846 172.549 146.87 172.485 146.916C172.422 146.961 172.375 147.025 172.35 147.099C171.201 150.384 167.462 154.133 164.172 155.282C164.095 155.304 164.029 155.351 163.981 155.414C163.933 155.478 163.908 155.555 163.908 155.634C163.908 155.713 163.933 155.791 163.981 155.854C164.029 155.918 164.095 155.964 164.172 155.986C167.457 157.135 171.201 160.875 172.35 164.169C172.372 164.246 172.419 164.313 172.482 164.36C172.546 164.408 172.623 164.433 172.702 164.433C172.781 164.433 172.859 164.408 172.922 164.36C172.986 164.313 173.032 164.246 173.054 164.169C174.203 160.884 177.943 157.135 181.238 155.986C181.313 155.961 181.378 155.913 181.424 155.848C181.469 155.782 181.493 155.704 181.49 155.625C181.487 155.545 181.459 155.469 181.409 155.407C181.359 155.345 181.29 155.302 181.213 155.282Z" fill="white"/>
<path d="M119.705 105.996H117.765C116.99 105.996 116.362 106.624 116.362 107.399V121.8C116.362 122.575 116.99 123.203 117.765 123.203H119.705C120.48 123.203 121.108 122.575 121.108 121.8V107.399C121.108 106.624 120.48 105.996 119.705 105.996Z" fill="white"/>
<path d="M104.223 123.404C105.402 123.404 106.78 123.335 107.513 121.874L115.711 105.996H112.715C112.133 106 111.564 106.171 111.075 106.488C110.587 106.805 110.199 107.255 109.958 107.785L104.795 118.76C104.673 119.019 104.429 119.439 104.223 119.439C104.018 119.439 103.779 119.019 103.656 118.76L98.4549 107.785C98.2145 107.255 97.8276 106.806 97.34 106.489C96.8524 106.172 96.2843 106.001 95.7027 105.996H92.6962L100.894 121.874C101.711 123.433 103.373 123.404 104.223 123.404Z" fill="white"/>
<path d="M208.032 123.208C208.403 123.207 208.758 123.059 209.021 122.796C209.283 122.533 209.43 122.177 209.43 121.805V120.285H208.252C207.396 120.285 205.612 120.251 204.556 119.537C203.177 118.628 203.299 117.005 203.299 115.836V103.361C203.294 102.992 203.144 102.639 202.882 102.38C202.62 102.12 202.266 101.974 201.896 101.973H199.941C199.569 101.974 199.213 102.122 198.95 102.385C198.688 102.648 198.539 103.004 198.538 103.376V117.616C198.538 119.791 199.31 121.038 200.689 121.967C202.068 122.895 203.573 123.233 206.453 123.233L208.032 123.208Z" fill="white"/>
<path d="M148.548 117.616C148.548 119.791 149.32 121.038 150.699 121.967C152.077 122.895 153.583 123.233 156.462 123.233H158.027C158.398 123.231 158.754 123.083 159.016 122.82C159.278 122.557 159.425 122.201 159.425 121.83V120.309H158.252C157.396 120.309 155.612 120.275 154.556 119.561C153.177 118.652 153.3 117.029 153.3 115.861V108.919H163.199V117.616C163.199 119.791 163.971 121.038 165.355 121.967C166.738 122.895 168.234 123.233 171.118 123.233H172.678C173.049 123.231 173.406 123.083 173.668 122.82C173.931 122.558 174.079 122.201 174.081 121.83V120.309H172.903C172.052 120.309 170.263 120.275 169.207 119.561C167.828 118.652 167.95 117.029 167.95 115.861V108.919H172.565C172.937 108.919 173.294 108.771 173.557 108.508C173.82 108.245 173.968 107.888 173.968 107.516V105.996H167.95V103.361C167.949 102.989 167.801 102.633 167.538 102.37C167.275 102.107 166.919 101.959 166.547 101.958H164.592C164.22 101.959 163.864 102.107 163.601 102.37C163.339 102.633 163.19 102.989 163.189 103.361V105.996H153.3V103.361C153.298 102.989 153.15 102.633 152.887 102.37C152.624 102.107 152.268 101.959 151.897 101.958H149.941C149.569 101.959 149.213 102.107 148.95 102.37C148.688 102.633 148.539 102.989 148.538 103.361V105.996H145.576V107.516C145.576 107.888 145.723 108.245 145.987 108.508C146.25 108.771 146.607 108.919 146.979 108.919H148.538L148.548 117.616Z" fill="white"/>
<path d="M143.518 115.22C144.407 114.507 144.529 113.5 144.529 112.62C144.529 110.444 144.002 108.303 141.484 107.037C139.499 106.03 136.898 105.932 134.381 105.932C132.352 105.932 128.7 105.932 126.349 107.555C123.998 109.178 123.787 111.549 123.787 114.766C123.787 117.039 123.91 119.41 125.332 121.033C127.116 123.047 129.732 123.208 131.907 123.208H142.437C142.621 123.208 142.804 123.172 142.974 123.102C143.144 123.031 143.299 122.928 143.429 122.797C143.56 122.667 143.663 122.512 143.733 122.342C143.804 122.172 143.84 121.99 143.84 121.805V120.285H133.33C131.585 120.285 129.595 120.089 128.984 118.242C128.797 117.465 128.702 116.669 128.7 115.871H141.2C142.025 115.928 142.843 115.698 143.518 115.22ZM138.565 112.947H131.809C130.094 112.947 128.7 113.729 128.7 114.702V112.947C128.739 111.808 128.7 110.87 129.678 110.014C130.978 108.846 132.929 108.88 134.185 108.88C135.525 108.88 137.065 108.944 138.243 109.657C138.65 109.893 138.99 110.229 139.232 110.633C139.474 111.036 139.61 111.494 139.626 111.965C139.621 112.395 139.499 112.947 138.565 112.947Z" fill="white"/>
<path d="M183.252 123.208H193.782C194.154 123.208 194.511 123.061 194.774 122.797C195.037 122.534 195.185 122.177 195.185 121.805V120.285H184.674C182.929 120.285 180.939 120.089 180.328 118.242C180.141 117.465 180.046 116.669 180.045 115.871H192.545C193.369 115.928 194.188 115.698 194.862 115.22C195.752 114.507 195.874 113.5 195.874 112.62C195.874 110.444 195.346 108.303 192.828 107.037C190.844 106.03 188.243 105.932 185.73 105.932C183.696 105.932 180.045 105.932 177.693 107.555C175.342 109.178 175.137 111.549 175.137 114.766C175.137 117.039 175.254 119.41 176.677 121.033C178.461 123.047 181.062 123.208 183.252 123.208ZM180.045 112.942C180.084 111.803 180.045 110.865 181.022 110.009C182.323 108.841 184.273 108.875 185.53 108.875C186.869 108.875 188.414 108.939 189.587 109.652C189.994 109.889 190.334 110.224 190.576 110.628C190.818 111.031 190.954 111.49 190.971 111.96C190.971 112.414 190.848 112.967 189.915 112.967H183.154C181.438 112.967 180.045 113.749 180.045 114.722V112.942Z" fill="white"/>
<path d="M118.738 104.373H119.715C119.899 104.373 120.081 104.336 120.251 104.266C120.421 104.195 120.576 104.092 120.706 103.962C120.835 103.831 120.938 103.677 121.008 103.506C121.078 103.336 121.114 103.154 121.113 102.97V102.584C121.113 102.212 120.966 101.856 120.704 101.593C120.442 101.33 120.086 101.182 119.715 101.181H117.76C117.388 101.181 117.031 101.328 116.768 101.592C116.505 101.855 116.357 102.212 116.357 102.584V106.006C116.513 105.204 117.418 104.373 118.738 104.373Z" fill="white"/>
</svg>
