<svg xmlns="http://www.w3.org/2000/svg" width="36.725" height="45" viewBox="0 0 36.725 45"><defs><style>.a{fill:#677694;}</style></defs><g transform="translate(5.048 -6.39)"><g transform="translate(-5.048 6.39)"><path class="a" d="M42.911,28.442c0-12.366-6.536-17.052-14.6-17.052s-14.6,4.688-14.6,17.052v16.11a18.283,18.283,0,0,0-3.762,11.1v.735H46.677v-.735a18.3,18.3,0,0,0-3.762-11.1V28.442Zm-24.646.817a.736.736,0,0,1,.57.1V28.114l1.215-.089A13.4,13.4,0,0,0,30.713,23.3,12.436,12.436,0,0,0,37.8,27.615v1.743a.717.717,0,0,1,.568-.1c.623.19.894,1.324.6,2.539a2.572,2.572,0,0,1-2.292,1.876A13.892,13.892,0,0,1,34.1,38.235c-.171.2-.334.4-.509.592-.2.211-.385.412-.587.6A16.821,16.821,0,0,1,37,41.19l-3.879,4.533-2.938,3.439-.752-3.439-.372-1.705,1.405-1.4-.877-.875L28.3,40.457l-1.3,1.289-.864.868,1.405,1.4-.374,1.705-.712,3.264L23.59,45.722,19.6,41.194a16.8,16.8,0,0,1,3.946-1.751c-.2-.194-.384-.393-.573-.6-.171-.19-.342-.389-.505-.592a13.968,13.968,0,0,1-2.518-4.58,2.556,2.556,0,0,1-2.307-1.872C17.369,30.586,17.645,29.447,18.266,29.259ZM45.184,54.921H11.441a16.745,16.745,0,0,1,3.221-9.191,16.969,16.969,0,0,1,3.709-3.7l3.264,3.7,6.249,7.1a.745.745,0,0,0,.556.253h0A.733.733,0,0,0,29,52.82l6.071-7.094,3.167-3.7a16.842,16.842,0,0,1,6.946,12.9Z" transform="translate(-9.952 -11.39)"/></g></g></svg>