<svg xmlns="http://www.w3.org/2000/svg" xmlns:xlink="http://www.w3.org/1999/xlink" width="468.33" height="406.078" viewBox="0 0 468.33 406.078"><defs><style>.a{fill:#46455b;}.b{fill:#6c63ff;}.c{fill:#a8a8a8;}.d{fill:#ccc;}.e,.h,.j{opacity:0.2;isolation:isolate;}.f{fill:#3f3d56;}.g{fill:#2b294f;}.h{fill:#818181;}.i{fill:#2a294e;}.j{fill:#848484;}.k{fill:#ffb8b8;}.l{fill:#2f2e41;}.m{filter:url(#s);}.n{filter:url(#q);}.o{filter:url(#o);}.p{filter:url(#m);}.q{filter:url(#k);}.r{filter:url(#i);}.s{filter:url(#g);}.t{filter:url(#e);}.u{filter:url(#c);}.v{filter:url(#a);}</style><filter id="a" x="25.704" y="167.391" width="50.294" height="188.777" filterUnits="userSpaceOnUse"><feOffset dy="20" input="SourceAlpha"/><feGaussianBlur stdDeviation="7.5" result="b"/><feFlood flood-opacity="0.161"/><feComposite operator="in" in2="b"/><feComposite in="SourceGraphic"/></filter><filter id="c" x="91.524" y="237.516" width="49.55" height="168.562" filterUnits="userSpaceOnUse"><feOffset dy="20" input="SourceAlpha"/><feGaussianBlur stdDeviation="7.5" result="d"/><feFlood flood-opacity="0.161"/><feComposite operator="in" in2="d"/><feComposite in="SourceGraphic"/></filter><filter id="e" x="149.614" y="110.767" width="51.377" height="218.177" filterUnits="userSpaceOnUse"><feOffset dy="20" input="SourceAlpha"/><feGaussianBlur stdDeviation="7.5" result="f"/><feFlood flood-opacity="0.161"/><feComposite operator="in" in2="f"/><feComposite in="SourceGraphic"/></filter><filter id="g" x="393.312" y="305.849" width="24.241" height="34.258" filterUnits="userSpaceOnUse"><feOffset dy="10" input="SourceAlpha"/><feGaussianBlur stdDeviation="3" result="h"/><feFlood flood-opacity="0.161"/><feComposite operator="in" in2="h"/><feComposite in="SourceGraphic"/></filter><filter id="i" x="386.995" y="319.816" width="31.636" height="24.126" filterUnits="userSpaceOnUse"><feOffset dy="10" input="SourceAlpha"/><feGaussianBlur stdDeviation="3" result="j"/><feFlood flood-opacity="0.161"/><feComposite operator="in" in2="j"/><feComposite in="SourceGraphic"/></filter><filter id="k" x="427.878" y="281.275" width="34.821" height="27.675" filterUnits="userSpaceOnUse"><feOffset dy="10" input="SourceAlpha"/><feGaussianBlur stdDeviation="3" result="l"/><feFlood flood-opacity="0.161"/><feComposite operator="in" in2="l"/><feComposite in="SourceGraphic"/></filter><filter id="m" x="442.32" y="279.544" width="26.011" height="31.641" filterUnits="userSpaceOnUse"><feOffset dy="10" input="SourceAlpha"/><feGaussianBlur stdDeviation="3" result="n"/><feFlood flood-opacity="0.161"/><feComposite operator="in" in2="n"/><feComposite in="SourceGraphic"/></filter><filter id="o" x="395.031" y="267.357" width="61.907" height="45.844" filterUnits="userSpaceOnUse"><feOffset dy="10" input="SourceAlpha"/><feGaussianBlur stdDeviation="3" result="p"/><feFlood flood-opacity="0.161"/><feComposite operator="in" in2="p"/><feComposite in="SourceGraphic"/></filter><filter id="q" x="388.757" y="273.952" width="35.17" height="58.274" filterUnits="userSpaceOnUse"><feOffset dy="10" input="SourceAlpha"/><feGaussianBlur stdDeviation="3" result="r"/><feFlood flood-opacity="0.161"/><feComposite operator="in" in2="r"/><feComposite in="SourceGraphic"/></filter><filter id="s" x="375.332" y="321.229" width="57.14" height="22.983" filterUnits="userSpaceOnUse"><feOffset dy="10" input="SourceAlpha"/><feGaussianBlur stdDeviation="3" result="t"/><feFlood flood-opacity="0.161"/><feComposite operator="in" in2="t"/><feComposite in="SourceGraphic"/></filter></defs><g transform="translate(-194.563 -462.851)"><g transform="translate(268 445.568)"><path class="a" d="M148.31,711.36c0,6.855,4.3,12.393,9.607,12.393" transform="translate(-135.274 -348.809)"/><path class="b" d="M204.37,723.082c0-6.927,4.8-12.532,10.722-12.532" transform="translate(-181.727 -348.138)"/><path class="b" d="M168.62,715c0,6.512,2.742,11.773,6.126,11.773" transform="translate(-152.104 -351.826)"/><path class="a" d="M204.37,706.244c0-8.851,5.544-16.014,12.393-16.014" transform="translate(-181.727 -331.3)"/><path class="c" d="M192.58,780.58a4.873,4.873,0,0,0,1.772-.343c.41-.3,2.1-.643,2.2-.171s2.048,2.332.514,2.344a13.108,13.108,0,0,1-3.984-.488C192.671,781.673,192.58,780.58,192.58,780.58Z" transform="translate(-171.958 -405.549)"/></g><g transform="translate(329 467.5)"><path class="a" d="M148.31,711.36c0,6.677,4.185,12.072,9.358,12.072" transform="translate(-135.274 -348.903)"/><path class="b" d="M204.37,722.757c0-6.747,4.674-12.207,10.445-12.207" transform="translate(-181.976 -348.229)"/><path class="b" d="M168.62,715c0,6.343,2.671,11.468,5.968,11.468" transform="translate(-152.194 -351.936)"/><path class="a" d="M204.37,705.829c0-8.622,5.4-15.6,12.072-15.6" transform="translate(-181.976 -331.3)"/><path class="c" d="M192.58,780.561a4.747,4.747,0,0,0,1.726-.334c.4-.292,2.043-.626,2.142-.167s1.995,2.272.5,2.284a12.77,12.77,0,0,1-3.881-.476C192.668,781.626,192.58,780.561,192.58,780.561Z" transform="translate(-172.154 -405.947)"/></g><g transform="translate(113.971 445.705)"><circle class="d" cx="50.712" cy="50.712" r="50.712" transform="translate(80.592 136.325)"/><path class="e" d="M279.828,392.614a50.716,50.716,0,0,0,84.5,53.672,50.716,50.716,0,1,1-84.5-53.672Z" transform="translate(-185.968 -239.449)"/><g class="v" transform="matrix(1, 0, 0, 1, 80.59, 17.15)"><path class="f" d="M201.349,288.553h.14L204,432.33H198.7Z" transform="translate(-150.5 -118.66)"/></g><path class="g" d="M43.582,0A43.582,43.582,0,1,1,0,43.582,43.582,43.582,0,0,1,43.582,0Z" transform="translate(153.189 213.58)"/><path class="h" d="M389.931,508.148a43.585,43.585,0,0,0,72.62,46.126,43.586,43.586,0,1,1-72.62-46.126Z" transform="translate(-225.339 -280.095)"/><g class="u" transform="matrix(1, 0, 0, 1, 80.59, 17.15)"><path class="f" d="M302.521,396.739h.12L304.8,520.3h-4.55Z" transform="translate(-186.22 -156.72)"/></g><circle class="i" cx="61.082" cy="61.082" r="61.082" transform="translate(194.98 69.33)"/><path class="j" d="M551.379,294.57A61.087,61.087,0,0,1,449.6,359.218,61.087,61.087,0,1,0,551.379,294.57Z" transform="translate(-250.217 -204.956)"/><g class="t" transform="matrix(1, 0, 0, 1, 80.59, 17.15)"><path class="f" d="M393.052,201.2h-.168l-3.021,173.177h6.377Z" transform="translate(-217.75 -87.93)"/></g><path class="f" d="M674.036,269.254l8.293-6.633c-6.443-.711-9.09,2.8-10.173,5.584-5.033-2.09-10.513.649-10.513.649l16.594,6.024A12.556,12.556,0,0,0,674.036,269.254Z" transform="translate(-324.816 -193.683)"/><path class="f" d="M690.62,189.5l8.293-6.633c-6.443-.711-9.09,2.8-10.173,5.584-5.033-2.09-10.513.649-10.513.649l16.594,6.024a12.557,12.557,0,0,0-4.2-5.624Z" transform="translate(-330.651 -165.623)"/><path class="f" d="M782.748,273.448l8.293-6.633c-6.443-.711-9.09,2.8-10.174,5.584-5.033-2.09-10.513.649-10.513.649l16.594,6.024A12.557,12.557,0,0,0,782.748,273.448Z" transform="translate(-363.062 -195.159)"/><g transform="translate(-3 56.926)"><g class="s" transform="matrix(1, 0, 0, 1, 83.59, -39.78)"><path class="k" d="M766.977,462.552h-4.229l-2.011-15.258h6.241Z" transform="translate(-358.42 -141.44)"/></g><g class="r" transform="matrix(1, 0, 0, 1, 83.59, -39.78)"><path class="l" d="M903.547,639.05H889.911v-.161a5.145,5.145,0,0,1,5.307-4.965h8.329Z" transform="translate(-493.92 -314.11)"/></g><g class="q" transform="matrix(1, 0, 0, 1, 83.59, -39.78)"><path class="k" d="M846.921,393.957l.817,3.881-15.615,4.794-1.206-5.728Z" transform="translate(-394.04 -112.68)"/></g><g class="p" transform="matrix(1, 0, 0, 1, 83.59, -39.78)"><path class="l" d="M1007.613,546.517l2.634,12.515-.169.031a5.3,5.3,0,0,1-6.233-3.912h0l-1.609-7.644Z" transform="translate(-550.92 -266.97)"/></g><g class="o" transform="matrix(1, 0, 0, 1, 83.59, -39.78)"><path class="l" d="M906.225,526.962s12.179,11.692,16.986,17.089,7.692,1.5,7.692,1.5l12.29-3.08,6.939-2.016s-1.282-5.7-1.6-5.4-19.135,1.927-19.135,1.927-4.9-5.525-5.223-9.123-8.653-7.795-8.653-7.795Z" transform="translate(-502.19 -252.71)"/></g><g class="n" transform="matrix(1, 0, 0, 1, 83.59, -39.78)"><path class="l" d="M902,534.381s-2.564,10.193-6.253,13.124-1.759,5.464-1.759,5.464l5.128,20.686,6.41-.3s-2.285-16.874-2.6-18.972,7.733-11.907,7.733-11.907Z" transform="translate(-495.73 -260.43)"/></g><ellipse class="k" cx="5.448" cy="5.097" rx="5.448" ry="5.097" transform="translate(463.308 209.606)"/><path class="b" d="M886.5,506.777c.961,0,3.846,5.1,3.846,5.1s6.41,1.8,7.371.3a14.841,14.841,0,0,1,5.769-4.8c2.243-.9,1.282-1.8,0-2.7a46.592,46.592,0,0,1-9.294-7.5c-3.846-4.2-9.935-5.1-10.576-5.1s-2.243,6-2.243,6C880.414,499.881,885.542,506.777,886.5,506.777Z" transform="translate(-405.932 -277.401)"/><path class="l" d="M859.914,481.225c1.113.485,2.41,3.026,3.973,1.92a3.86,3.86,0,0,1,.42-.318,1.14,1.14,0,0,1,1.268.339c.318.331.5.755.809,1.1a1.194,1.194,0,0,0,1.249.427l.747-1.517a4.92,4.92,0,0,0,.444-1.126,3.33,3.33,0,0,0-1.027-2.9,10.954,10.954,0,0,0-2.718-1.862,7.625,7.625,0,0,0-2.158-.9,2.624,2.624,0,0,0-2.226.477,2.532,2.532,0,0,1-1.989,1.053,3.762,3.762,0,0,0-1.8,1.887,2.42,2.42,0,0,0-.409,1.1C856.46,482.683,858.919,480.791,859.914,481.225Z" transform="translate(-393.369 -268.895)"/><g class="m" transform="matrix(1, 0, 0, 1, 83.59, -39.78)"><path class="l" d="M876.8,640.952c8.861-.3,22.915,0,23.057,0l.2,0,.093-.161c.022-.037,2.172-3.7,5.1-3.146l.126-.588c-3.052-.572-5.213,2.525-5.7,3.288-1.719-.034-14.587-.274-22.9,0-8.568.287-9.935-2.485-9.948-2.514l-.594.226c.053.124,1.34,2.908,9.327,2.908Q876.152,640.974,876.8,640.952Z" transform="translate(-481.9 -315.76)"/></g><rect class="l" width="2.564" height="2.398" rx="1.199" transform="translate(475.914 286.01)"/><path class="l" d="M786.538,490.574h.188a1.151,1.151,0,0,1,1.188,1.111v.176a1.151,1.151,0,0,1-1.188,1.111h-.188a1.151,1.151,0,0,1-1.188-1.111v-.176a1.151,1.151,0,0,1,1.188-1.111Z" transform="translate(-287.323 -204.563)"/><path class="k" d="M886.331,532.213a2.3,2.3,0,0,1,.331-.08l4.138-8.762-1.465-1.881,2.745-2.439,2.939,3.094a1.468,1.468,0,0,1,.164,1.848l-6.194,9.229a1.928,1.928,0,0,1-.35,2.281,2.273,2.273,0,0,1-2.405.5,1.984,1.984,0,0,1,.1-3.792Z" transform="translate(-407.772 -291.942)"/></g><path class="b" d="M898.213,514.343c0,.422-5.061,6.327-6.494,5.762s-1.941-2.388-4.1-4.271-4.166-12.036-4.166-12.036S898.213,513.921,898.213,514.343Z" transform="translate(-402.851 -278.565)"/></g></g></svg>