<svg xmlns="http://www.w3.org/2000/svg" width="496" height="256.561" viewBox="0 0 496 256.561"><defs><style>.a{fill:#6c63ff;}.b{fill:#fff;}.c{fill:#ff6584;}.d{fill:#0956c6;}</style></defs><g transform="translate(-1328.819 -10.185)"><g transform="translate(988.815 -32)"><path class="a" d="M505,157.445l-2.044-1.3,1.3-2.044-.558-.354-1.3,2.044-2.044-1.3-.355.557,2.044,1.3-1.3,2.044.558.355,1.3-2.044,2.044,1.3Z"/><path class="a" d="M411,287.445l-2.044-1.3,1.3-2.044-.558-.354-1.3,2.044-2.044-1.3-.355.557,2.044,1.3-1.3,2.044.558.355,1.3-2.044,2.044,1.3Z"/><path class="a" d="M424,346.445l-2.044-1.3,1.3-2.044-.558-.354-1.3,2.044-2.044-1.3-.355.557,2.044,1.3-1.3,2.044.558.355,1.3-2.044,2.044,1.3Z" transform="translate(37 -123)"/><path class="a" d="M836,297.445l-2.044-1.3,1.3-2.044-.558-.354-1.3,2.044-2.044-1.3-.355.557,2.044,1.3-1.3,2.044.558.355,1.3-2.044,2.044,1.3Z"/><path class="b" d="M553,198.924l-2.862-1.82,1.821-2.862-.78-.5-1.821,2.861-2.861-1.821-.5.781,2.862,1.82-1.821,2.862.78.5,1.821-2.862,2.861,1.821Z" transform="translate(13 -16)"/><circle class="c" cx="3" cy="3" r="3" transform="translate(534.004 120.746)"/><circle class="c" cx="2" cy="2" r="2" transform="translate(700.004 130.246)"/><circle class="c" cx="2" cy="2" r="2" transform="translate(529.004 58.746)"/><circle class="d" cx="2" cy="2" r="2" transform="translate(447.004 151.746)"/><circle class="b" cx="2" cy="2" r="2" transform="translate(472.004 84.746)"/><circle class="b" cx="3" cy="3" r="3" transform="translate(639.004 145.746)"/><path class="b" d="M595,383.445l-2.044-1.3,1.3-2.044-.558-.354-1.3,2.044-2.044-1.3-.355.557,2.044,1.3-1.3,2.044.558.355,1.3-2.044,2.044,1.3Z" transform="translate(-250 -238)"/></g><path class="b" d="M10,0A10,10,0,1,1,0,10,10,10,0,0,1,10,0Z" transform="translate(1667.819 169.365)"/><g transform="translate(1592.383 9.532)"><g transform="translate(0 0.652)"><path class="b" d="M73.6,43.459a2.653,2.653,0,0,0-2.219.482A28.3,28.3,0,0,1,62.8,48.957a26.884,26.884,0,0,1-9.743,1.736,28.323,28.323,0,0,1-28.36-28.36,29.728,29.728,0,0,1,1.543-9.357,25.9,25.9,0,0,1,4.63-8.3,2.462,2.462,0,0,0-.386-3.473A2.653,2.653,0,0,0,28.263.726a38.926,38.926,0,0,0-20.45,13.7A38.194,38.194,0,1,0,75.337,46.449,2.34,2.34,0,0,0,73.6,43.459Z" transform="translate(0 -0.652)"/></g></g></g></svg>