<svg xmlns="http://www.w3.org/2000/svg" xmlns:xlink="http://www.w3.org/1999/xlink" width="1922.762" height="638.876" viewBox="0 0 1922.762 638.876"><defs><style>.a{fill:#ff6584;}.b{fill:#f2f2f2;}.c{fill:#e6e6e6;}.d{fill:url(#a);}</style><linearGradient id="a" x1="0.5" x2="0.5" y2="1" gradientUnits="objectBoundingBox"><stop offset="0" stop-color="#8ab8f7"/><stop offset="1" stop-color="#0281ff"/></linearGradient></defs><g transform="translate(0 -445.705)"><path class="a" d="M47.318,0A47.318,47.318,0,1,1,0,47.318,47.318,47.318,0,0,1,47.318,0Z" transform="translate(227.927 478.737)"/><path class="b" d="M427.18,276.1H40.957L179.78,77.614,234.065,0l41.322,59.076Z" transform="translate(99.562 445.705)"/><path class="b" d="M534.5,115.96,393.956,316.9H675.041L534.5,115.96,393.956,316.9H675.041Z" transform="translate(-24.627 404.909)"/><path class="c" d="M476.88,156.317l3.2,55.718-10.56,80.178s87.225,45.923,87.46,48.015S538.6,401.2,538.6,401.2L669.995,432.42Z" transform="translate(-143.253 289.388)"/><path class="c" d="M752.779,272.277l22.914,53.915,40.627,81.557,24.049,12.3s-1.577,19.1-1.47,21.55,54.422,31.621,54.422,31.621Z" transform="translate(-242.908 248.592)"/><path class="d" d="M0,692.7a172.555,172.555,0,0,0,48.405,6.792c27.554,0,27.679-9.34,61.811-6.792s23.264,16.981,74.717,16.981S316.027,692.7,316.027,692.7s29.547,16.981,84.905,16.981,63.3-16.981,136.528-16.981,46.077,19.924,156.38,16.981,284.831-28.752,284.831-28.752h268.436l161.66,28.752s34.811-26.066,126.339-28.752,218.207,18.01,239.773,18.01,48.736-18.01,79.472-18.01,29.777,11.657,43.472,18.01,5.414,7.405,11.309,7.405,9.2-27.569,12.268-7.405,0,88.062,0,88.062v297.583L0,1081.159Z"/></g></svg>