<svg xmlns="http://www.w3.org/2000/svg" xmlns:xlink="http://www.w3.org/1999/xlink" width="416.263" height="423.535" viewBox="0 0 416.263 423.535"><defs><style>.a{fill:#0080ff;}.a,.g,.m,.u,.v{opacity:0.1;}.b,.m{fill:#6c63ff;}.c{fill:#0956c6;}.d{fill:#444053;}.e{fill:#d5d6db;}.f{fill:#0169ff;}.h{fill:#013887;}.i,.k{fill:#fff;}.i{opacity:0.3;}.j{fill:#3a3768;}.k{opacity:0.45;}.l{fill:#013e96;}.n{fill:url(#bk);}.o{fill:#be6f72;}.p{fill:#3e373a;}.q{fill:#4b4b5b;}.r{opacity:0.02;}.s{fill:#e7c7ca;}.t{fill:#c3c7d9;}.v{fill:none;stroke:#000;stroke-miterlimit:10;}.w{filter:url(#bi);}.x{filter:url(#bg);}.y{filter:url(#be);}.z{filter:url(#bc);}.aa{filter:url(#ba);}.ab{filter:url(#ay);}.ac{filter:url(#aw);}.ad{filter:url(#au);}.ae{filter:url(#as);}.af{filter:url(#aq);}.ag{filter:url(#ao);}.ah{filter:url(#am);}.ai{filter:url(#ak);}.aj{filter:url(#ai);}.ak{filter:url(#ag);}.al{filter:url(#ae);}.am{filter:url(#ac);}.an{filter:url(#aa);}.ao{filter:url(#y);}.ap{filter:url(#w);}.aq{filter:url(#u);}.ar{filter:url(#s);}.as{filter:url(#q);}.at{filter:url(#o);}.au{filter:url(#m);}.av{filter:url(#k);}.aw{filter:url(#i);}.ax{filter:url(#g);}.ay{filter:url(#e);}.az{filter:url(#c);}.ba{filter:url(#a);}</style><filter id="a" x="165.77" y="280.912" width="139.561" height="140.446" filterUnits="userSpaceOnUse"><feOffset dy="50" input="SourceAlpha"/><feGaussianBlur stdDeviation="7.5" result="b"/><feFlood flood-opacity="0.161"/><feComposite operator="in" in2="b"/><feComposite in="SourceGraphic"/></filter><filter id="c" x="4.226" y="252.437" width="305.989" height="129.455" filterUnits="userSpaceOnUse"><feOffset dy="50" input="SourceAlpha"/><feGaussianBlur stdDeviation="7.5" result="d"/><feFlood flood-opacity="0.161"/><feComposite operator="in" in2="d"/><feComposite in="SourceGraphic"/></filter><filter id="e" x="0" y="272.896" width="217.818" height="146.831" filterUnits="userSpaceOnUse"><feOffset dy="50" input="SourceAlpha"/><feGaussianBlur stdDeviation="7.5" result="f"/><feFlood flood-opacity="0.161"/><feComposite operator="in" in2="f"/><feComposite in="SourceGraphic"/></filter><filter id="g" x="5.825" y="307.572" width="307.358" height="115.963" filterUnits="userSpaceOnUse"><feOffset dy="50" input="SourceAlpha"/><feGaussianBlur stdDeviation="7.5" result="h"/><feFlood flood-opacity="0.161"/><feComposite operator="in" in2="h"/><feComposite in="SourceGraphic"/></filter><filter id="i" x="167.858" y="313.214" width="85.338" height="86.336" filterUnits="userSpaceOnUse"><feOffset dy="50" input="SourceAlpha"/><feGaussianBlur stdDeviation="7.5" result="j"/><feFlood flood-opacity="0.161"/><feComposite operator="in" in2="j"/><feComposite in="SourceGraphic"/></filter><filter id="k" x="167.843" y="311.881" width="93.419" height="91.27" filterUnits="userSpaceOnUse"><feOffset dy="50" input="SourceAlpha"/><feGaussianBlur stdDeviation="7.5" result="l"/><feFlood flood-opacity="0.161"/><feComposite operator="in" in2="l"/><feComposite in="SourceGraphic"/></filter><filter id="m" x="168.112" y="311.815" width="100.554" height="95.584" filterUnits="userSpaceOnUse"><feOffset dy="50" input="SourceAlpha"/><feGaussianBlur stdDeviation="7.5" result="n"/><feFlood flood-opacity="0.161"/><feComposite operator="in" in2="n"/><feComposite in="SourceGraphic"/></filter><filter id="o" x="168.758" y="309.876" width="107.963" height="101.267" filterUnits="userSpaceOnUse"><feOffset dy="50" input="SourceAlpha"/><feGaussianBlur stdDeviation="7.5" result="p"/><feFlood flood-opacity="0.161"/><feComposite operator="in" in2="p"/><feComposite in="SourceGraphic"/></filter><filter id="q" x="169.257" y="309.883" width="114.216" height="103.086" filterUnits="userSpaceOnUse"><feOffset dy="50" input="SourceAlpha"/><feGaussianBlur stdDeviation="7.5" result="r"/><feFlood flood-opacity="0.161"/><feComposite operator="in" in2="r"/><feComposite in="SourceGraphic"/></filter><filter id="s" x="170.299" y="307.374" width="127.948" height="108.661" filterUnits="userSpaceOnUse"><feOffset dy="50" input="SourceAlpha"/><feGaussianBlur stdDeviation="7.5" result="t"/><feFlood flood-opacity="0.161"/><feComposite operator="in" in2="t"/><feComposite in="SourceGraphic"/></filter><filter id="u" x="210.263" y="237.816" width="139.557" height="140.455" filterUnits="userSpaceOnUse"><feOffset dy="50" input="SourceAlpha"/><feGaussianBlur stdDeviation="7.5" result="v"/><feFlood flood-opacity="0.161"/><feComposite operator="in" in2="v"/><feComposite in="SourceGraphic"/></filter><filter id="w" x="48.719" y="209.341" width="305.989" height="129.455" filterUnits="userSpaceOnUse"><feOffset dy="50" input="SourceAlpha"/><feGaussianBlur stdDeviation="7.5" result="x"/><feFlood flood-opacity="0.161"/><feComposite operator="in" in2="x"/><feComposite in="SourceGraphic"/></filter><filter id="y" x="44.473" y="229.8" width="217.834" height="146.831" filterUnits="userSpaceOnUse"><feOffset dy="50" input="SourceAlpha"/><feGaussianBlur stdDeviation="7.5" result="z"/><feFlood flood-opacity="0.161"/><feComposite operator="in" in2="z"/><feComposite in="SourceGraphic"/></filter><filter id="aa" x="50.315" y="264.476" width="307.359" height="115.963" filterUnits="userSpaceOnUse"><feOffset dy="50" input="SourceAlpha"/><feGaussianBlur stdDeviation="7.5" result="ab"/><feFlood flood-opacity="0.161"/><feComposite operator="in" in2="ab"/><feComposite in="SourceGraphic"/></filter><filter id="ac" x="212.35" y="270.123" width="85.338" height="86.336" filterUnits="userSpaceOnUse"><feOffset dy="50" input="SourceAlpha"/><feGaussianBlur stdDeviation="7.5" result="ad"/><feFlood flood-opacity="0.161"/><feComposite operator="in" in2="ad"/><feComposite in="SourceGraphic"/></filter><filter id="ae" x="212.341" y="268.788" width="93.419" height="91.27" filterUnits="userSpaceOnUse"><feOffset dy="50" input="SourceAlpha"/><feGaussianBlur stdDeviation="7.5" result="af"/><feFlood flood-opacity="0.161"/><feComposite operator="in" in2="af"/><feComposite in="SourceGraphic"/></filter><filter id="ag" x="212.604" y="268.716" width="100.554" height="95.584" filterUnits="userSpaceOnUse"><feOffset dy="50" input="SourceAlpha"/><feGaussianBlur stdDeviation="7.5" result="ah"/><feFlood flood-opacity="0.161"/><feComposite operator="in" in2="ah"/><feComposite in="SourceGraphic"/></filter><filter id="ai" x="213.255" y="266.777" width="107.963" height="101.267" filterUnits="userSpaceOnUse"><feOffset dy="50" input="SourceAlpha"/><feGaussianBlur stdDeviation="7.5" result="aj"/><feFlood flood-opacity="0.161"/><feComposite operator="in" in2="aj"/><feComposite in="SourceGraphic"/></filter><filter id="ak" x="213.747" y="266.779" width="114.216" height="103.086" filterUnits="userSpaceOnUse"><feOffset dy="50" input="SourceAlpha"/><feGaussianBlur stdDeviation="7.5" result="al"/><feFlood flood-opacity="0.161"/><feComposite operator="in" in2="al"/><feComposite in="SourceGraphic"/></filter><filter id="am" x="214.792" y="264.269" width="127.948" height="108.661" filterUnits="userSpaceOnUse"><feOffset dy="50" input="SourceAlpha"/><feGaussianBlur stdDeviation="7.5" result="an"/><feFlood flood-opacity="0.161"/><feComposite operator="in" in2="an"/><feComposite in="SourceGraphic"/></filter><filter id="ao" x="214.489" y="188.515" width="139.543" height="140.459" filterUnits="userSpaceOnUse"><feOffset dy="50" input="SourceAlpha"/><feGaussianBlur stdDeviation="7.5" result="ap"/><feFlood flood-opacity="0.161"/><feComposite operator="in" in2="ap"/><feComposite in="SourceGraphic"/></filter><filter id="aq" x="52.945" y="160.039" width="305.994" height="129.455" filterUnits="userSpaceOnUse"><feOffset dy="50" input="SourceAlpha"/><feGaussianBlur stdDeviation="7.5" result="ar"/><feFlood flood-opacity="0.161"/><feComposite operator="in" in2="ar"/><feComposite in="SourceGraphic"/></filter><filter id="as" x="48.707" y="180.498" width="217.826" height="146.831" filterUnits="userSpaceOnUse"><feOffset dy="50" input="SourceAlpha"/><feGaussianBlur stdDeviation="7.5" result="at"/><feFlood flood-opacity="0.161"/><feComposite operator="in" in2="at"/><feComposite in="SourceGraphic"/></filter><filter id="au" x="54.544" y="218.759" width="307.358" height="112.379" filterUnits="userSpaceOnUse"><feOffset dy="50" input="SourceAlpha"/><feGaussianBlur stdDeviation="7.5" result="av"/><feFlood flood-opacity="0.161"/><feComposite operator="in" in2="av"/><feComposite in="SourceGraphic"/></filter><filter id="aw" x="216.581" y="220.821" width="85.338" height="86.336" filterUnits="userSpaceOnUse"><feOffset dy="50" input="SourceAlpha"/><feGaussianBlur stdDeviation="7.5" result="ax"/><feFlood flood-opacity="0.161"/><feComposite operator="in" in2="ax"/><feComposite in="SourceGraphic"/></filter><filter id="ay" x="216.569" y="219.488" width="93.419" height="91.27" filterUnits="userSpaceOnUse"><feOffset dy="50" input="SourceAlpha"/><feGaussianBlur stdDeviation="7.5" result="az"/><feFlood flood-opacity="0.161"/><feComposite operator="in" in2="az"/><feComposite in="SourceGraphic"/></filter><filter id="ba" x="216.828" y="219.418" width="100.554" height="95.584" filterUnits="userSpaceOnUse"><feOffset dy="50" input="SourceAlpha"/><feGaussianBlur stdDeviation="7.5" result="bb"/><feFlood flood-opacity="0.161"/><feComposite operator="in" in2="bb"/><feComposite in="SourceGraphic"/></filter><filter id="bc" x="217.486" y="217.476" width="107.963" height="101.267" filterUnits="userSpaceOnUse"><feOffset dy="50" input="SourceAlpha"/><feGaussianBlur stdDeviation="7.5" result="bd"/><feFlood flood-opacity="0.161"/><feComposite operator="in" in2="bd"/><feComposite in="SourceGraphic"/></filter><filter id="be" x="217.979" y="217.482" width="114.216" height="103.086" filterUnits="userSpaceOnUse"><feOffset dy="50" input="SourceAlpha"/><feGaussianBlur stdDeviation="7.5" result="bf"/><feFlood flood-opacity="0.161"/><feComposite operator="in" in2="bf"/><feComposite in="SourceGraphic"/></filter><filter id="bg" x="219.023" y="214.975" width="127.948" height="108.661" filterUnits="userSpaceOnUse"><feOffset dy="50" input="SourceAlpha"/><feGaussianBlur stdDeviation="7.5" result="bh"/><feFlood flood-opacity="0.161"/><feComposite operator="in" in2="bh"/><feComposite in="SourceGraphic"/></filter><filter id="bi" x="221.55" y="183.734" width="139.821" height="105.76" filterUnits="userSpaceOnUse"><feOffset dy="50" input="SourceAlpha"/><feGaussianBlur stdDeviation="7.5" result="bj"/><feFlood flood-opacity="0.161"/><feComposite operator="in" in2="bj"/><feComposite in="SourceGraphic"/></filter><linearGradient id="bk" x1="0.5" y1="1" x2="0.5" gradientUnits="objectBoundingBox"><stop offset="0" stop-color="gray" stop-opacity="0.251"/><stop offset="0.54" stop-color="gray" stop-opacity="0.122"/><stop offset="1" stop-color="gray" stop-opacity="0.102"/></linearGradient></defs><g transform="translate(0.218 -0.008)"><path class="a" d="M332.784,119.354c-25.477-1.008-49.746-10.368-72.916-20.611s-46.12-21.593-70.987-27.019c-15.994-3.49-34.287-3.983-47.171,5.776-12.4,9.41-16.411,25.607-18.565,40.654-1.622,11.318-2.574,23.228,1.87,33.825,3.082,7.357,8.558,13.541,12.341,20.611,13.176,24.519,3.866,54.755-10.412,78.7-6.692,11.233-14.467,21.956-19.631,33.9s-7.558,25.652-3.039,37.849c4.484,12.1,15.164,21.167,26.729,27.552,23.5,12.972,51.175,16.682,78.183,18.783,59.768,4.655,119.851,2.639,179.777.623,22.178-.748,44.451-1.506,66.267-5.408,12.117-2.169,24.623-5.605,33.421-13.913,11.164-10.543,13.931-28.4,6.452-41.617-12.554-22.175-47.238-27.682-56.025-51.484-4.826-13.1.134-27.686,7.149-39.838,15.053-26.06,40.283-48.925,41.613-78.713.913-20.464-11.219-40.949-29.973-50.632-19.655-10.185-46.919-8.894-61.414,7.9C381.519,113.6,355.278,120.241,332.784,119.354Z" transform="translate(-95.924 -57.776)"/><path class="b" d="M227.766,529.106,74.4,528.357,59.16,492.615l53.885-3.912-9.392-39.189L210.232,435.7,108.175,400.222l9.015-2.142L281.3,424.852l-9.038,61.158-12.918,33.61Z" transform="translate(-32.652 -219.707)"/><path class="b" d="M187,698.66s9.41-1.506,15.055,5.144c0,0-4.14,3.262-13.048-1.255Z" transform="translate(-142.901 -404.979)"/><path class="b" d="M180.038,698.51s-6,7.389-3.047,15.615c0,0,4.893-1.958,5.426-11.932Z" transform="translate(-136.925 -404.977)"/><path class="b" d="M172.76,668.457s3.764-6.9,18.819,2.76c0,0-2.007,4.642-8.657,4.266S174.516,672.095,172.76,668.457Z" transform="translate(-135.041 -387.071)"/><path class="b" d="M160.037,670.281s-7.81-.9-8.567,16.982c0,0,4.951,1.026,8.469-4.629S162.013,673.807,160.037,670.281Z" transform="translate(-123.291 -389.393)"/><path class="c" d="M160.44,630.3s4.391-12.17,20.325-3.513c0,0-3.638,11.166-18.694,7.653Z" transform="translate(-128.241 -363.678)"/><path class="c" d="M149.52,590.79s8.28-12.3,22.959-.9c0,0-5.144,11.542-21.7,5.269Z" transform="translate(-122.214 -342.356)"/><path class="c" d="M145.6,553.036s9.66-11.3,24.2,0c0,0-9.159,9.911-24.2,2.886Z" transform="translate(-120.051 -321.916)"/><path class="c" d="M142.24,515s9.786-11.793,23.712-.627c0,0-11.041,10.413-23.712,3.387Z" transform="translate(-118.196 -300.694)"/><path class="c" d="M144.2,477.938s10.306-15.181,23.336-4.893c0,0-11.041,13.048-23.336,7.779Z" transform="translate(-119.278 -278.564)"/><path class="c" d="M149.52,439.759s10.915-15.055,23.587-3.513c0,0-12.922,13.048-23.587,6.273Z" transform="translate(-122.214 -257.824)"/><path class="c" d="M156.945,402.539s12.922-14.15,24.2-8.513c0,0-13.465,15.028-24.761,12.268Z" transform="translate(-126.001 -236.192)"/><path class="c" d="M166.417,366S181.329,348.673,190,354.462c0,0-10.987,13.442-24.644,14.786Z" transform="translate(-130.957 -214.435)"/><path class="c" d="M180.112,329.637S193.164,315.487,202.7,319c0,0-11.166,14.679-24.339,15.055Z" transform="translate(-138.132 -195.206)"/><path class="c" d="M194.667,293.549s14.428-13.55,20.7-11.166c0,0-10.413,15.055-21.328,14.177Z" transform="translate(-146.786 -175.151)"/><path class="c" d="M208.32,256.129s12.421-16.189,19.2-14.934c0,0-7.532,14.432-19.2,16.579Z" transform="translate(-154.668 -152.535)"/><path class="c" d="M221.743,214.81s10.978-12.407,16.91-12.38c0,0-8.666,16.579-17.363,16.426Z" transform="translate(-161.826 -131.178)"/><path class="c" d="M228.919,168.565l10.606-25.845s.529,23.363-11.955,30.639Z" transform="translate(-165.292 -98.222)"/><path class="c" d="M240.1,108.04s1.756-21.584.627-23.34c0,0,7.581,17.945-.7,32.875Z" transform="translate(-172.169 -66.199)"/><path class="c" d="M137.206,636.122s-11-6.815-18.116,9.858c0,0,9.786,6.5,19.411-5.605Z" transform="translate(-105.419 -369.783)"/><path class="c" d="M124.059,595.01s-13.487-6.152-20.029,11.255c0,0,10.418,7.169,21.257-6.855Z" transform="translate(-97.107 -347.271)"/><path class="c" d="M114.4,555.346s-9.66-11.3-24.2,0c0,0,9.159,9.911,24.2,2.886Z" transform="translate(-89.474 -323.191)"/><path class="c" d="M112.292,515s-9.786-11.793-23.712-.627c0,0,11.041,10.413,23.712,3.387Z" transform="translate(-88.58 -300.694)"/><path class="c" d="M117.365,475.142s-6.864-17-21.785-9.692c0,0,8.065,15.078,21.176,12.515Z" transform="translate(-92.443 -275.337)"/><path class="c" d="M124.406,435.216s-6.824-17.3-21.956-9.28c0,0,9.266,15.857,21.283,11.95Z" transform="translate(-96.235 -253.366)"/><path class="c" d="M142.124,389.4s-2.688-18.967-15.234-20.665c0,0,2.662,20,13.545,24.084Z" transform="translate(-109.724 -222.963)"/><path class="c" d="M154.361,352.629s-1.048-22.852-11.421-23.649c0,0,.35,17.345,10.252,26.884Z" transform="translate(-118.583 -201.024)"/><path class="c" d="M168.664,315.734s-3.092-19-12.994-21.324c0,0,1.228,18.4,12.013,25.988Z" transform="translate(-125.609 -181.944)"/><path class="c" d="M189.421,280.034s-.1-19.8-6.152-22.7c0,0-3.75,17.923,4.4,25.231Z" transform="translate(-140.366 -161.478)"/><path class="c" d="M200.286,245.465s-.847-20.383-7.111-23.255c0,0-2.142,16.131,6.174,24.59Z" transform="translate(-146.172 -142.095)"/><path class="c" d="M216.9,208.478s-.036-16.579-4.508-20.468c0,0-4.445,18.16,2.173,23.8Z" transform="translate(-156.108 -123.219)"/><path class="c" d="M222,164.592,217.652,137s-5.91,22.61,4.557,32.575Z" transform="translate(-158.901 -95.065)"/><path class="c" d="M217.823,111.981s-11.166-18.55-10.937-20.611c0,0,1.187,19.442,15.234,29.125Z" transform="translate(-153.874 -69.881)"/><path class="c" d="M215.366,90.06S204.828,63.713,200.06,61.58c0,0,15.055,7.653,16.184,27.727Z" transform="translate(-150.109 -53.439)"/><path class="c" d="M220.281,174.28l-.721-.22c8.894-29,11.112-47.5,6.251-52.133l.515-.547C231.483,126.273,229.391,144.563,220.281,174.28Z" transform="translate(-160.871 -86.444)"/><path class="d" d="M165.2,304.739l-1.066-.381c.945-2.657,1.963-5.354,3.029-8.012,9.284-23.138,17.188-44.664,22.256-61.189l.928-.448c-5.077,16.556-12.842,38.906-22.135,62.076C167.146,299.394,166.133,302.078,165.2,304.739Z" transform="translate(-130.278 -148.994)"/><path class="d" d="M174.233,547.538c-.143-.157-14.558-16.391-24.608-44.1a163.179,163.179,0,0,1-9.71-50.534c-.69-21.566,3.836-45.645,11.587-67.52l.842.986c-17.4,49.1-10.489,91.165-1.317,116.5,9.943,27.462,24.2,43.517,24.335,43.678Z" transform="translate(-116.875 -232.153)"/><g class="ba" transform="matrix(1, 0, 0, 1, -0.22, 0.01)"><path class="e" d="M602.831,670.36s-10.158,12.4-2.093,31.141l-81.1,35.174-7.783,1.631-3.585-15.683,2.4-19.791V692.015Z" transform="translate(-320 -389.45)"/></g><path class="b" d="M59.16,583.854,171.411,563.39l148.738,23.694-92.384,33.26Z" transform="translate(-32.652 -310.946)"/><g class="az" transform="matrix(1, 0, 0, 1, -0.22, 0.01)"><path class="f" d="M59.16,583.854,171.411,563.39l148.738,23.694-92.384,33.26Z" transform="translate(-32.43 -310.95)"/></g><g class="ay" transform="matrix(1, 0, 0, 1, -0.22, 0.01)"><path class="c" d="M142.535,652.47s-10.5,19.89,1.6,38.261L310.594,726.8s-10.333-15.844.533-37.835Z" transform="translate(-115.81 -379.57)"/></g><path class="g" d="M155.525,667.86s-6,14.553,0,23.972" transform="translate(-124.057 -388.061)"/><path class="h" d="M317.769,769.515,410.7,729.86s5.2,1.12,1.837,4.929-92.975,38.534-92.975,38.534L151.31,733.445Z" transform="translate(-123.202 -422.28)"/><g class="ax" transform="matrix(1, 0, 0, 1, -0.22, 0.01)"><path class="g" d="M317.769,769.515,410.7,729.86s5.2,1.12,1.837,4.929-92.975,38.534-92.975,38.534L151.31,733.445Z" transform="translate(-122.98 -422.29)"/></g><path class="g" d="M500.9,742.86s-8.961,10.754,0,26.884" transform="translate(-313.954 -429.455)"/><g class="aw" transform="matrix(1, 0, 0, 1, -0.22, 0.01)"><rect class="g" width="42.374" height="0.448" transform="translate(190.36 326.62) rotate(-18.45)"/></g><g class="av" transform="matrix(1, 0, 0, 1, -0.22, 0.01)"><rect class="g" width="51.631" height="0.448" transform="translate(190.34 330.23) rotate(-20.82)"/></g><g class="au" transform="matrix(1, 0, 0, 1, -0.22, 0.01)"><rect class="g" width="59.845" height="0.448" transform="translate(190.61 334.48) rotate(-22.26)"/></g><g class="at" transform="matrix(1, 0, 0, 1, -0.22, 0.01)"><rect class="g" width="68.887" height="0.448" transform="translate(191.26 338.23) rotate(-24.31)"/></g><g class="as" transform="matrix(1, 0, 0, 1, -0.22, 0.01)"><rect class="g" width="75.344" height="0.448" transform="matrix(0.92, -0.4, 0.4, 0.92, 191.76, 340.06)"/></g><g class="ar" transform="matrix(1, 0, 0, 1, -0.22, 0.01)"><rect class="g" width="90.161" height="0.448" transform="translate(192.8 343.12) rotate(-23.36)"/></g><path class="i" d="M152.23,593.519l78.861-16.579,48.042,9.186-64.621,20.835Z" transform="translate(-84.02 -318.424)"/><path class="b" d="M616.4,659.69s4.077,1.644,1.685,4.185S524,692.95,524,692.95Z" transform="translate(-328.9 -383.552)"/><g class="aq" transform="matrix(1, 0, 0, 1, -0.22, 0.01)"><path class="e" d="M702.127,574.18s-10.153,12.394-2.088,31.141l-81.1,35.174-7.783,1.64-3.585-15.683L610,606.665v-10.83Z" transform="translate(-374.81 -336.36)"/></g><g class="ap" transform="matrix(1, 0, 0, 1, -0.22, 0.01)"><path class="j" d="M158.46,487.669,270.707,467.21,419.449,490.9l-92.384,33.26Z" transform="translate(-87.24 -257.87)"/></g><path class="j" d="M241.791,556.29s-10.5,19.89,1.6,38.261l166.459,36.07s-10.328-15.857.551-37.84Z" transform="translate(-170.807 -326.482)"/><g class="ao" transform="matrix(1, 0, 0, 1, -0.22, 0.01)"><path class="g" d="M241.791,556.29s-10.5,19.89,1.6,38.261l166.459,36.07s-10.328-15.857.551-37.84l-52.64-11.395Z" transform="translate(-170.59 -326.49)"/></g><path class="g" d="M254.818,571.68s-6,14.549,0,23.972" transform="translate(-178.861 -334.977)"/><path class="j" d="M417.059,673.334l92.935-39.654s5.193,1.12,1.833,4.929-92.975,38.534-92.975,38.534L250.6,637.265Z" transform="translate(-178.003 -369.196)"/><g class="an" transform="matrix(1, 0, 0, 1, -0.22, 0.01)"><path class="g" d="M417.059,673.334l92.935-39.654s5.193,1.12,1.833,4.929-92.975,38.534-92.975,38.534L250.6,637.265Z" transform="translate(-177.79 -369.2)"/></g><path class="g" d="M600.194,646.68s-8.961,10.754,0,26.884" transform="translate(-368.755 -376.371)"/><g class="am" transform="matrix(1, 0, 0, 1, -0.22, 0.01)"><rect class="g" width="42.374" height="0.448" transform="translate(234.85 283.53) rotate(-18.45)"/></g><g class="al" transform="matrix(1, 0, 0, 1, -0.22, 0.01)"><rect class="g" width="51.631" height="0.448" transform="translate(234.84 287.14) rotate(-20.82)"/></g><g class="ak" transform="matrix(1, 0, 0, 1, -0.22, 0.01)"><rect class="g" width="59.845" height="0.448" transform="translate(235.1 291.39) rotate(-22.26)"/></g><g class="aj" transform="matrix(1, 0, 0, 1, -0.22, 0.01)"><rect class="g" width="68.887" height="0.448" transform="translate(235.76 295.14) rotate(-24.31)"/></g><g class="ai" transform="matrix(1, 0, 0, 1, -0.22, 0.01)"><rect class="g" width="75.344" height="0.448" transform="matrix(0.92, -0.4, 0.4, 0.92, 236.25, 296.95)"/></g><g class="ah" transform="matrix(1, 0, 0, 1, -0.22, 0.01)"><rect class="g" width="90.161" height="0.448" transform="translate(237.29 300.02) rotate(-23.36)"/></g><path class="k" d="M251.53,497.339l78.861-16.579,48.042,9.186-64.621,20.835Z" transform="translate(-138.826 -265.34)"/><path class="j" d="M715.714,563.51s4.073,1.644,1.685,4.181-94.069,29.075-94.069,29.075Z" transform="translate(-383.723 -330.467)"/><g class="ag" transform="matrix(1, 0, 0, 1, -0.22, 0.01)"><path class="e" d="M711.544,464.15s-10.158,22.256-2.093,41l-81.1,25.316-7.765,1.644L617,516.427l2.4-19.791v-10.83Z" transform="translate(-380.01 -275.64)"/></g><g class="af" transform="matrix(1, 0, 0, 1, -0.22, 0.01)"><path class="f" d="M167.89,377.643,280.141,357.18l148.742,23.694L336.5,414.135Z" transform="translate(-92.45 -197.14)"/></g><g class="ae" transform="matrix(1, 0, 0, 1, -0.22, 0.01)"><path class="c" d="M251.249,446.26s-10.516,19.89,1.582,38.261l166.459,36.07s-10.333-15.857.547-37.835Z" transform="translate(-175.8 -265.76)"/></g><path class="g" d="M264.255,461.65s-6,14.553,0,23.972" transform="translate(-184.068 -274.248)"/><path class="l" d="M426.5,567.72l92.93-29.8s5.2,1.12,1.837,4.929-92.975,28.677-92.975,28.677L260.04,531.65Z" transform="translate(-183.213 -312.883)"/><g class="ad" transform="matrix(1, 0, 0, 1, -0.22, 0.01)"><path class="g" d="M426.5,567.72l92.93-29.8s5.2,1.12,1.837,4.929-92.975,28.677-92.975,28.677L260.04,531.65Z" transform="translate(-183 -312.89)"/></g><path class="g" d="M609.634,536.65s-8.961,10.754,0,26.884" transform="translate(-373.965 -315.643)"/><g class="ac" transform="matrix(1, 0, 0, 1, -0.22, 0.01)"><rect class="g" width="42.374" height="0.448" transform="translate(239.08 234.23) rotate(-18.45)"/></g><g class="ab" transform="matrix(1, 0, 0, 1, -0.22, 0.01)"><rect class="g" width="51.631" height="0.448" transform="translate(239.07 237.84) rotate(-20.82)"/></g><g class="aa" transform="matrix(1, 0, 0, 1, -0.22, 0.01)"><rect class="g" width="59.845" height="0.448" transform="translate(239.33 242.09) rotate(-22.26)"/></g><g class="z" transform="matrix(1, 0, 0, 1, -0.22, 0.01)"><rect class="g" width="68.887" height="0.448" transform="translate(239.99 245.83) rotate(-24.31)"/></g><g class="y" transform="matrix(1, 0, 0, 1, -0.22, 0.01)"><rect class="g" width="75.344" height="0.448" transform="matrix(0.92, -0.4, 0.4, 0.92, 240.48, 247.66)"/></g><g class="x" transform="matrix(1, 0, 0, 1, -0.22, 0.01)"><rect class="g" width="90.161" height="0.448" transform="translate(241.52 250.72) rotate(-23.36)"/></g><path class="i" d="M260.96,387.309l78.861-16.579,48.042,9.185-64.621,20.835Z" transform="translate(-144.031 -204.612)"/><g class="w" transform="matrix(1, 0, 0, 1, -0.22, 0.01)"><path class="l" d="M725.144,453.48s4.077,1.644,1.685,4.185-94.068,29.076-94.068,29.076Z" transform="translate(-388.71 -269.75)"/></g><path class="c" d="M380.278,149.893s-17.027-1.026-15.037,10.92a2.914,2.914,0,0,0,1.515,3.069s.031-.9,1.747-.587a7.641,7.641,0,0,0,1.855.09,3.862,3.862,0,0,0,2.263-.932h0s4.79-1.98,6.654-9.813c0,0,1.38-1.707,1.344-2.146l-2.886,1.228a5.17,5.17,0,0,1,.211,3.8s-.094-3.723-.65-3.638c-.112,0-1.492.721-1.492.721s1.689,3.616.412,6.242c0,0,.484-4.454-.941-5.982l-2.025,1.183s1.976,3.732.636,6.779c0,0,.345-4.673-1.062-6.493l-1.837,1.434s1.859,3.679.726,6.206c0,0-.148-5.44-1.12-5.852a11.074,11.074,0,0,0-1.851,2s1.273,2.688.479,4.082c0,0-.479-3.625-.9-3.643a12.061,12.061,0,0,0-1.765,4.033,8.719,8.719,0,0,1,1.376-4.275,4.8,4.8,0,0,0-2.446,1.268s.246-1.7,2.845-1.846a11.014,11.014,0,0,1,1.676-1.931,10.49,10.49,0,0,0-4.149.475s1.38-1.6,4.62-.9l1.792-1.479s-3.4-.448-4.839.049c0,0,1.662-1.416,5.328-.385l1.976-1.178a17.956,17.956,0,0,0-4.624-.4s1.819-.981,5.2.081l1.407-.632s-2.119-.417-2.742-.484-.654-.237-.654-.237a7.4,7.4,0,0,1,3.988.448A17.785,17.785,0,0,0,380.278,149.893Z" transform="translate(-241.187 -102.169)"/><path class="m" d="M914.878,259.473s-17.027-1.026-15.037,10.92a2.914,2.914,0,0,0,1.515,3.069s.031-.9,1.747-.587a7.9,7.9,0,0,0,1.855.09,3.849,3.849,0,0,0,2.24-.932h0s4.794-1.98,6.654-9.813c0,0,1.38-1.707,1.344-2.146L912.32,261.3a5.17,5.17,0,0,1,.211,3.8s-.094-3.723-.645-3.638c-.112,0-1.5.721-1.5.721s1.689,3.616.417,6.242c0,0,.484-4.454-.945-5.982l-2.025,1.183s1.976,3.732.636,6.779c0,0,.345-4.673-1.062-6.493l-1.833,1.434s1.855,3.679.721,6.206c0,0-.148-5.44-1.12-5.852a11.238,11.238,0,0,0-1.851,2s1.273,2.688.484,4.082c0,0-.484-3.625-.9-3.643a12.061,12.061,0,0,0-1.765,4.033,8.693,8.693,0,0,1,1.38-4.275,4.821,4.821,0,0,0-2.451,1.268s.251-1.7,2.845-1.846a11.184,11.184,0,0,1,1.676-1.936,10.532,10.532,0,0,0-4.149.479s1.38-1.6,4.62-.9l1.792-1.479s-3.4-.448-4.839.049c0,0,1.658-1.416,5.328-.385l1.971-1.178a17.955,17.955,0,0,0-4.624-.4s1.819-.981,5.2.081l1.411-.632s-2.124-.417-2.747-.484-.654-.237-.654-.237a7.344,7.344,0,0,1,3.988.448A18.077,18.077,0,0,0,914.878,259.473Z" transform="translate(-536.247 -162.649)"/><path class="m" d="M439.831,302.424s-7.42-15.382-16.865-7.8a2.91,2.91,0,0,0-1.94,2.818s.784-.408,1.344,1.241a7.939,7.939,0,0,0,.824,1.658,3.867,3.867,0,0,0,1.922,1.523h0s4.064,3.217,11.811,1.022c0,0,2.164.372,2.518.112l-2.473-1.913a5.2,5.2,0,0,1-3.217,2.034s3.208-1.9,2.863-2.334c-.072-.09-1.344-.954-1.344-.954s-2.334,3.24-5.247,3.405c0,0,4.122-1.747,4.759-3.741L432.77,298.3s-2.3,3.549-5.61,3.862c0,0,4.248-1.976,5.148-4.091l-2.142-.9s-2.308,3.414-5.068,3.661c0,0,4.678-2.783,4.561-3.836a11.355,11.355,0,0,0-2.648-.641s-1.712,2.415-3.325,2.415c0,0,2.926-2.191,2.747-2.545a11.821,11.821,0,0,0-4.391.448,8.724,8.724,0,0,1,4.4-.9,4.826,4.826,0,0,0-2.3-1.519s1.6-.609,3,1.582a11.056,11.056,0,0,1,2.5.52,10.519,10.519,0,0,0-2.438-3.383s2.07.417,3.016,3.585l2.173.86s-1.25-3.19-2.4-4.2c0,0,2.043.757,2.935,4.481l1.989,1.147a17.728,17.728,0,0,0-1.9-4.23s1.743,1.111,2.464,4.579l1.241.923s-.672-2.057-.9-2.63-.112-.69-.112-.69a7.353,7.353,0,0,1,1.559,3.7A16.715,16.715,0,0,0,439.831,302.424Z" transform="translate(-272.064 -180.902)"/><path class="m" d="M823.612,198.8s-7.416-15.382-16.866-7.8a2.916,2.916,0,0,0-1.94,2.818s.789-.4,1.344,1.241a7.771,7.771,0,0,0,.829,1.662,3.844,3.844,0,0,0,1.918,1.519h0s4.069,3.217,11.811,1.026a7.7,7.7,0,0,0,2.523.108l-2.46-1.918a5.2,5.2,0,0,1-3.213,2.039s3.2-1.9,2.859-2.339c-.072-.09-1.344-.954-1.344-.954s-2.33,3.24-5.247,3.405c0,0,4.127-1.747,4.763-3.737l-2.048-1.183s-2.294,3.544-5.61,3.862c0,0,4.248-1.98,5.153-4.1l-2.146-.9s-2.308,3.419-5.063,3.661c0,0,4.673-2.783,4.557-3.831a11.083,11.083,0,0,0-2.644-.641s-1.712,2.411-3.329,2.411c0,0,2.93-2.191,2.751-2.545a11.848,11.848,0,0,0-4.4.448,8.72,8.72,0,0,1,4.4-.9,4.8,4.8,0,0,0-2.3-1.519s1.6-.609,3,1.582a11.092,11.092,0,0,1,2.5.524,10.486,10.486,0,0,0-2.442-3.387s2.07.421,3.016,3.607l2.178.86s-1.25-3.195-2.4-4.2c0,0,2.043.757,2.93,4.481l1.994,1.147a17.892,17.892,0,0,0-1.909-4.23s1.747,1.111,2.464,4.579l1.241.923s-.668-2.057-.9-2.63-.112-.686-.112-.686a7.37,7.37,0,0,1,1.555,3.7A17.2,17.2,0,0,0,823.612,198.8Z" transform="translate(-483.883 -123.712)"/><path class="m" d="M876.485,368.609s-7.416-15.387-16.879-7.805a2.916,2.916,0,0,0-1.94,2.818s.789-.4,1.344,1.241a7.765,7.765,0,0,0,.825,1.662,3.845,3.845,0,0,0,1.918,1.519h0s4.069,3.222,11.816,1.026c0,0,2.16.372,2.518.108l-2.473-1.913A5.2,5.2,0,0,1,870.4,369.3s3.2-1.9,2.859-2.339c-.072-.09-1.344-.954-1.344-.954s-2.33,3.24-5.247,3.41c0,0,4.127-1.752,4.763-3.741l-2.021-1.192s-2.294,3.549-5.61,3.862c0,0,4.248-1.98,5.153-4.1l-2.146-.9s-2.308,3.414-5.063,3.661c0,0,4.678-2.783,4.561-3.836a11.132,11.132,0,0,0-2.648-.641s-1.712,2.411-3.329,2.411c0,0,2.93-2.191,2.751-2.545a11.848,11.848,0,0,0-4.4.448,8.748,8.748,0,0,1,4.409-.9,4.79,4.79,0,0,0-2.3-1.519s1.6-.614,3,1.582a11.055,11.055,0,0,1,2.5.52,10.568,10.568,0,0,0-2.437-3.387s2.07.421,3.016,3.607l2.173.86s-1.25-3.195-2.4-4.2c0,0,2.043.753,2.93,4.481l1.994,1.143a17.9,17.9,0,0,0-1.909-4.23s1.747,1.111,2.469,4.584l1.241.9s-.672-2.057-.9-2.63-.112-.686-.112-.686a7.325,7.325,0,0,1,1.555,3.7A18.139,18.139,0,0,0,876.485,368.609Z" transform="translate(-513.057 -217.429)"/><ellipse class="m" cx="10.301" cy="1.152" rx="10.301" ry="1.152" transform="translate(80.187 349.062)"/><ellipse class="m" cx="10.301" cy="1.152" rx="10.301" ry="1.152" transform="translate(12.658 329.49)"/><ellipse class="m" cx="10.301" cy="1.152" rx="10.301" ry="1.152" transform="translate(131.662 362.061)"/><ellipse class="m" cx="10.301" cy="1.152" rx="10.301" ry="1.152" transform="translate(395.443 333.747)"/><ellipse class="m" cx="10.301" cy="1.152" rx="10.301" ry="1.152" transform="translate(309.722 328.16)"/><ellipse class="m" cx="12.183" cy="2.093" rx="12.183" ry="2.093" transform="translate(252.386 353.53)"/><path class="c" d="M677.973,790.14s-16.964,8.764-8.2,19.088a3.279,3.279,0,0,0,3.208,2.084s-.475-.869,1.344-1.564a8.738,8.738,0,0,0,1.833-.972,4.305,4.305,0,0,0,1.64-2.191h0s3.468-4.642.78-13.232c0,0,.35-2.429.045-2.823l-2.061,2.827a5.772,5.772,0,0,1,2.375,3.531s-2.24-3.526-2.688-3.136c-.1.081-1.022,1.546-1.022,1.546s3.692,2.5,3.965,5.758c0,0-2.079-4.557-4.324-5.207l-1.286,2.294s4.033,2.455,4.481,6.148c0,0-2.343-4.682-4.736-5.628l-.945,2.424s3.889,2.473,4.248,5.547c0,0-3.253-5.139-4.422-4.978a12.42,12.42,0,0,0-.636,2.98s2.747,1.837,2.8,3.643c0,0-2.536-3.2-2.926-2.993a13.5,13.5,0,0,0,.618,4.9,9.668,9.668,0,0,1-1.125-4.9,5.377,5.377,0,0,0-1.626,2.617s-.73-1.77,1.676-3.4a12.394,12.394,0,0,1,.506-2.814,11.81,11.81,0,0,0-3.71,2.832s.408-2.325,3.939-3.482l.9-2.455s-3.531,1.5-4.62,2.814c0,0,.784-2.308,4.9-3.414l1.219-2.24a20.575,20.575,0,0,0-4.669,2.24s1.187-1.985,5.045-2.9l.99-1.411s-2.276.811-2.913,1.1-.762.148-.762.148a8.241,8.241,0,0,1,4.082-1.855S678.13,790.292,677.973,790.14Z" transform="translate(-407.968 -455.551)"/><path class="n" d="M616.342,212.478c-2.93-7.962-19.061-8.711-26.06-6.681-4.974,1.447-15.459,3.078-21.06,3.9l-.363-.345c.726-.215.744-.744.654-1.528a23.905,23.905,0,0,1,.045-3.1c3.432,1.066,6.488-1.456,6.488-1.456h0c4.033-1.792,2.948-9.463,3.719-11.56.578-1.568,1.2-10.808,1.479-15.414h.058l.031-1.546c.04-.668.058-1.057.058-1.057s.394-11.265,1.165-13.545c.717-2.1,1.3-12.663,1.389-14.338v-.22l-.058-.977c.04-.712.058-1.506.054-2.339,0-3.831-.4-8.657-.448-9.436v-.408c.031-1.635-.175-9.826-7.142-12.922-2.568-1.147-5.655-2.514-8.643-3.844-.771-6.654-2.532-13.272-2.379-19.975,0-1.008.09-2.016.188-3.02,0,.291-.031.587-.036.9v1.954c.264-8.383,3.432-16.812,3.137-25.016-.027.8-.085,1.609-.161,2.415a26.044,26.044,0,0,0-.86-8.24,4.875,4.875,0,0,0-1.407-2.554,5.793,5.793,0,0,0-2.455-.972,49.383,49.383,0,0,0-6.448-1.2,9.957,9.957,0,0,0-1.452-2.818c-4.544-6.237-11.274-12.1-19.231-13.442-3.992-.672-8.585-.112-11.3,2.742a8.478,8.478,0,0,0-.8.807c-1.461,1.743-2.088,4.033-3.585,5.771-.1.117-.211.224-.318.336-2.93,2.621-7.5,3.168-10.754,5.52a12.907,12.907,0,0,0-1.609,1.4,27.276,27.276,0,0,0-3.513,4.27c-1.465,2.061-2.971,4.207-3.437,6.667-.937,4.929,2.42,9.6,3.042,14.562,1.389,11.1-10.893,20.947-8.567,31.9a14.607,14.607,0,0,0,3.952,7.093c-4.79,4.337-8.867,8.545-8.867,8.545v.251h-.757l.076.9h-.076l.417,4.862-.417,7.08v.668h.027c.139,2.594.69,11.923,1.344,13.89.771,2.281,1.161,13.545,1.161,13.545s.851,15.92,1.631,18.026-.327,9.755,3.719,11.56h0a8.513,8.513,0,0,0,4.064,1.685c-.206,1.676-.076,2.89.591,3.271a1.954,1.954,0,0,0,.941.269,9.99,9.99,0,0,0-.73,1.277,18.979,18.979,0,0,1-4.7-1.107c-4.346-1.792-18.77-5.825-22.959-2.989s-14.271,5.408-9.616,16.825,6.824,11.7,6.824,11.7a16.578,16.578,0,0,1,3.724,3.741c1.4,2.1,14.423,6.909,17.681,6.909a31.9,31.9,0,0,1,4.145.206s-3.535,3.1-3.065,4.9-1.075,16.22-1.075,16.22,3.585,3.611,5.117-1.125l.054.072c.287.39,1.837,2.151,4.754-.072a26.654,26.654,0,0,1,3.791-2.4l14.123-2a39.977,39.977,0,0,1,4.422-.031c2.24.184,4.44-1.143,5.825-2.169,2.926,1.111,6.215,2.325,7.779,2.769,3.172.9,17.753,4.808,21.162,3.585a4.736,4.736,0,0,0,1.837-1.308l3.253.1-1.523.3s2.966.049,7,.1l-.17.1,5.059-.045c7.4.067,15.718.09,16.812-.157,1.712-.381,10.606-.112,13.227,0h.73s9.773-1.949,5.74-11.865c-3.1-7.617-12.631-9.831-16.861-10.44,1.192-.237,2.218-.421,2.9-.529,2.953-.448,8.688-3.137,9.154-4.055s5.274-3.585,6.515-5.1S619.286,220.44,616.342,212.478ZM535.4,234.76l-.479.157-.323.108-.618.609c-.493-.332-1.022-.681-1.573-1.04C533.377,234.653,534.376,234.711,535.4,234.76ZM578.1,247.387Z" transform="translate(-295.987 -43.42)"/><path class="o" d="M686.65,296.931s6.856,17.923,10.754,16.131,2.841-9.41,3.585-11.5,1.568-17.923,1.568-17.923.376-11.2,1.12-13.469c.69-2.084,1.25-12.591,1.344-14.244v-.22l-.739-12.994L700.1,241.67l-9.705,3.585-1.344,7.675-.524,3L688.3,257.2Z" transform="translate(-418.671 -152.835)"/><path class="g" d="M691.69,358.3s6.542,5.354,8.513,5.825,3.181,4.646,3.181,4.646" transform="translate(-421.452 -217.206)"/><path class="o" d="M544.371,298.681s-6.856,17.923-10.754,16.131-2.841-9.41-3.585-11.5-1.568-17.923-1.568-17.923-.376-11.2-1.12-13.469c-.69-2.084-1.25-12.591-1.344-14.244v-.22l.744-12.994,4.185-1.044L540.634,247l1.344,7.675.524,3,.224,1.277Z" transform="translate(-330.004 -153.801)"/><rect class="p" width="15.302" height="23.851" transform="translate(243.707 48.965)"/><rect class="g" width="15.302" height="23.851" transform="translate(243.707 48.965)"/><path class="q" d="M556.417,404.834s-5.229,5.749-3.289,6.793,14.491,20.611,14.491,20.611,41.223,5.077,49-2.541,7.617-21.225,7.617-21.225-6.246,1.344-6.927.614-4.422-4.252-4.422-4.252S560,401.625,556.417,404.834Z" transform="translate(-344.738 -242.103)"/><path class="r" d="M556.417,404.834s-5.229,5.749-3.289,6.793,14.491,20.611,14.491,20.611,41.223,5.077,49-2.541,7.617-21.225,7.617-21.225-6.246,1.344-6.927.614-4.422-4.252-4.422-4.252S560,401.625,556.417,404.834Z" transform="translate(-344.738 -242.103)"/><path class="o" d="M616.809,193.622l-13.442,10.754-4.064.3-1.492.108-25.061,1.837-25.988-1.9-3.867-.282-4.929-.358-10.306-9.858a176.481,176.481,0,0,1,13.684-13.088,28.072,28.072,0,0,1,6.631-4.431l.3-.1a7.375,7.375,0,0,0,2.841-1.98c5.045-5.2,9.71-18.039,9.71-18.039s22.256-11.5,19.567,3.585,10.005,11.354,10.005,11.354l4.185,1.909,1.653.757,4.216,1.931,9.513,4.364C617.427,183.912,616.809,193.622,616.809,193.622Z" transform="translate(-330.92 -103.555)"/><circle class="g" cx="20.015" cy="20.015" r="20.015" transform="translate(220.77 25.271)"/><path class="g" d="M615.924,237.671H526v-.22l.744-12.994a176.488,176.488,0,0,1,13.684-13.088l56.457-2.24,2.626-2.769,9.513,4.364c7.469,3.432,6.869,13.142,6.869,13.142S616.914,235.117,615.924,237.671Z" transform="translate(-330.004 -133.347)"/><path class="s" d="M615.924,236.671H526v-.22l.744-12.994a176.488,176.488,0,0,1,13.684-13.088l56.457-2.24,2.626-2.769,9.513,4.364c7.469,3.432,6.869,13.142,6.869,13.142S616.914,234.117,615.924,236.671Z" transform="translate(-330.004 -132.795)"/><path class="g" d="M586.891,189.1s14.186,18.075,33.081-.372,2.092,41.147,2.092,41.147l-40.775,4.839Z" transform="translate(-360.52 -121.658)"/><path class="s" d="M586.891,191.1s14.186,18.075,33.081-.372,2.092,41.147,2.092,41.147l-40.775,4.839Z" transform="translate(-360.52 -122.762)"/><path class="g" d="M609.39,202.089l1.5,22.892L612.5,232.6l1.228,5.825s3.136,44.807,2.24,47.048.448,4.033.636,5.225-.188,4.185-.04,5.529,0,1.94-3.432,1.461-8.218-1.313-8.218-1.313-12.1.9-16.279-.6-12.1-1.5-12.1-1.5-11.95.3-15.83-.148-5.977,4.781-8.513,3.284,2.984-15.978,4.776-20.163-2.388-14.786-2.388-14.786l5.377-29.828,1.2-6.761V204.621l.3-.1a7.375,7.375,0,0,0,2.841-1.98l1.344,21.391,42.119,1.5V201.35" transform="translate(-344.099 -130.582)"/><path class="s" d="M609.39,200.089l1.5,22.892L612.5,230.6l1.228,5.825s3.136,44.807,2.24,47.048.448,4.033.636,5.225-.188,4.185-.04,5.529,0,1.94-3.432,1.461-8.218-1.313-8.218-1.313-12.1.9-16.279-.6-12.1-1.5-12.1-1.5-11.95.3-15.83-.148-5.977,4.781-8.513,3.284,2.984-15.978,4.776-20.163-2.388-14.786-2.388-14.786l5.377-29.828,1.2-6.761V202.621l.3-.1a7.375,7.375,0,0,0,2.841-1.98l1.344,21.391,42.119,1.5V199.35" transform="translate(-344.099 -129.478)"/><path class="g" d="M606.513,68.373a4.937,4.937,0,0,0-1.344-2.536,5.5,5.5,0,0,0-2.366-.968,46.741,46.741,0,0,0-6.219-1.192,9.955,9.955,0,0,0-1.344-2.792c-4.391-6.2-10.888-12.049-18.532-13.371-4-.695-8.639-.072-11.2,3.083-1.407,1.734-2.012,4.033-3.432,5.735-2.738,3.307-7.68,3.715-11.13,6.273a20.621,20.621,0,0,0-4.481,5.184c-1.411,2.048-2.863,4.181-3.311,6.627-.9,4.888,2.334,9.548,2.93,14.482,1.344,11.036-10.485,20.826-8.249,31.715,1.3,6.349,7.169,10.821,13.236,13.088,2.137.8,4.579,1.6,5.579,3.652.448.9.524,1.931.945,2.836,1.416,3.02,6.071,3.137,8.572.936s3.289-5.758,3.585-9.078c1.2-14.5-4.606-28.825-3.93-43.36.2-4.4,1.438-9.383,5.377-11.372,5.3-2.688,11.677,1.792,17.511.936a34.739,34.739,0,0,1,1.676,21.2c-.927,3.867-2.532,7.617-2.648,11.605-.175,6.071,3.1,11.619,5.932,16.986a9.037,9.037,0,0,1,1.2,3.275,7.9,7.9,0,0,1-.641,3.428c-1.6,4.306-4.36,8.3-4.673,12.887a2.084,2.084,0,0,0,.336,1.532,1.927,1.927,0,0,0,1.156.52c4.839.829,9.024-3.459,11.385-7.765a36.4,36.4,0,0,0,4.49-15.468c.488-9.123-2.782-18.1-2.581-27.229C604.568,88.841,609.26,78.387,606.513,68.373Z" transform="translate(-336.379 -45.535)"/><path class="p" d="M607.513,67.373a4.938,4.938,0,0,0-1.344-2.536,5.5,5.5,0,0,0-2.366-.968,46.743,46.743,0,0,0-6.219-1.192,9.957,9.957,0,0,0-1.344-2.791c-4.391-6.2-10.888-12.049-18.532-13.371-4-.695-8.639-.072-11.2,3.083-1.407,1.734-2.012,4.033-3.432,5.735-2.738,3.307-7.68,3.715-11.13,6.273a20.622,20.622,0,0,0-4.481,5.184c-1.411,2.048-2.863,4.181-3.311,6.627-.9,4.888,2.334,9.548,2.93,14.482,1.344,11.036-10.485,20.826-8.249,31.715,1.3,6.349,7.169,10.821,13.236,13.088,2.137.8,4.579,1.6,5.579,3.652.448.9.524,1.931.945,2.836,1.416,3.02,6.071,3.137,8.572.936s3.289-5.758,3.585-9.078c1.2-14.5-4.606-28.825-3.93-43.36.2-4.4,1.438-9.383,5.377-11.372,5.3-2.688,11.677,1.792,17.511.936a34.739,34.739,0,0,1,1.676,21.2c-.927,3.867-2.532,7.617-2.648,11.605-.175,6.071,3.1,11.619,5.932,16.986a9.039,9.039,0,0,1,1.2,3.275,7.9,7.9,0,0,1-.641,3.428c-1.6,4.306-4.36,8.3-4.673,12.887a2.084,2.084,0,0,0,.336,1.532,1.927,1.927,0,0,0,1.156.52c4.839.829,9.024-3.459,11.386-7.765a36.4,36.4,0,0,0,4.49-15.467c.488-9.123-2.783-18.1-2.581-27.229C605.569,87.841,610.26,77.387,607.513,67.373Z" transform="translate(-336.931 -44.983)"/><path class="t" d="M581.79,477.193l17.775.569-2.55-13.182L583.4,465.875Z" transform="translate(-321.105 -256.41)"/><path class="q" d="M691.553,432.208c-1.2,1.492-5.825,4.181-6.273,5.077s-5.973,3.585-8.814,4.033-11.8,2.393-13.442,3.437c-1.178.753-10.637,3.136-16.852,4.458a47.832,47.832,0,0,1-5.1.919c-2.688.148-32.109-9.858-32.109-9.858l5.673-5.825.314-.108c1.6-.542,9.015-3.047,13.129-4.239,4.633-1.344,10.01-6.869,10.01-6.869s7.913-2.688,8.961-2.989-2.688-10.454-2.688-10.454,17.175-2.384,23.9-4.4,22.256-1.273,25.092,6.645S692.768,430.716,691.553,432.208Z" transform="translate(-375.792 -242.669)"/><path class="s" d="M571.894,503.25s-3.432,3.585-6.869,3.289-15.454.9-15.454.9a24.092,24.092,0,0,0-6.053,3.508c-2.809,2.213-4.3.448-4.579.072l-.049-.072c-1.5,4.709-4.929,1.12-4.929,1.12s1.492-14.338,1.035-16.131,2.953-4.871,2.953-4.871l4.033-1.026L552.2,487.42l14.639,5.077Z" transform="translate(-334.397 -288.471)"/><path class="g" d="M541.963,493.26l-3.025,20.979-.049-.072c-1.5,4.709-4.929,1.12-4.929,1.12s1.492-14.338,1.035-16.131,2.953-4.871,2.953-4.871Z" transform="translate(-334.397 -291.695)"/><path class="g" d="M599,360.08s7.913,2.688,14.786,0" transform="translate(-370.294 -218.189)"/><path class="g" d="M659.29,371.42s3.284,1.64,5.825,0" transform="translate(-403.57 -224.448)"/><path class="g" d="M659.29,379.173s5.525.739,6.573-.753" transform="translate(-403.57 -228.311)"/><path class="g" d="M655.29,394.887s10.377-1.344,12.954-3.137" transform="translate(-401.362 -235.668)"/><path class="g" d="M584.62,391.75s5.825,3.284,10.158,3.137" transform="translate(-362.358 -235.668)"/><path class="g" d="M646.162,486.052a47.836,47.836,0,0,1-5.1.918c-2.688.148-32.109-9.858-32.109-9.858l5.673-5.825.314-.108c.9.632,1.631,1.174,2.155,1.586,2.469,1.945,4.853-.6,5.749-.6s8.661,6.421,8.661,6.421,7.169,1.644,8.366,3.137,5.377,1.2,6.121,2.24A4,4,0,0,1,646.162,486.052Z" transform="translate(-375.786 -279.508)"/><path class="q" d="M514.661,411.218s-7.25.417-11.43-1.344-18.071-5.825-22.1-2.971-13.742,5.377-9.262,16.731,6.573,11.65,6.573,11.65A16.175,16.175,0,0,1,482.024,439c1.344,2.092,13.89,6.869,17.027,6.869s8.661,0,16.426,5.377a33.76,33.76,0,0,0,14.786,5.977s9.858,4.033,12.927,4.929,17.094,4.776,20.383,3.585,5.377-8.666,5.377-8.666,1.492-6.721.744-7.765-4.929-.748-6.121-2.24-8.366-3.137-8.366-3.137-7.747-6.425-8.643-6.425-3.28,2.536-5.749.6a131.153,131.153,0,0,0-15.463-9.858C519.68,425.256,514.661,411.218,514.661,411.218Z" transform="translate(-299.488 -243.487)"/><path class="g" d="M536.27,427.207a8.558,8.558,0,0,1,7.344,1.94c3.585,2.989,15.647,8.988,15.647,8.988" transform="translate(-335.672 -255.142)"/><path class="g" d="M712.927,427s-15.983,2.42-18.967,5.7" transform="translate(-422.705 -255.124)"/><path class="s" d="M726.695,509.824h-.7c-2.527-.09-11.09-.358-12.739,0-1.94.448-27.633,0-27.633,0l5.023-1.044s-1.864-6.533-.681-7.075c0,0-6.721-4.427-1.653-7.416a15.721,15.721,0,0,1,10.53-1.73l12.721-4.31L714,487.42s14.338.748,18.219,10.606S726.695,509.824,726.695,509.824Z" transform="translate(-418.102 -288.471)"/><path class="g" d="M758.646,509.851h-.7c4.172-3.441,13.608-13.917-14.432-21.552l2.442-.829s14.338.748,18.219,10.606S758.646,509.851,758.646,509.851Z" transform="translate(-450.053 -288.499)"/><circle class="q" cx="0.784" cy="0.784" r="0.784" transform="translate(281.448 208.17)"/><circle class="q" cx="0.784" cy="0.784" r="0.784" transform="translate(276.891 209.465)"/><g class="u" transform="translate(201.742 28.184)"><path d="M627.316,122.868a34.766,34.766,0,0,0-2.572-14.4c-5.825.869-12.206-3.625-17.511-.936-3.925,1.989-5.157,6.977-5.377,11.372-.054,1.161-.063,2.321-.04,3.482,0-.412,0-.829.04-1.241.206-4.4,1.438-9.383,5.377-11.372,5.305-2.688,11.677,1.792,17.511.936a34.671,34.671,0,0,1,2.572,12.161Z" transform="translate(-573.584 -106.504)"/><path d="M554.138,123.156a14.932,14.932,0,0,0-.058-2.93c-.475-3.943-2.63-7.711-3.02-11.556-.5,4.638,2.451,9.091,3.02,13.8A2.8,2.8,0,0,1,554.138,123.156Z" transform="translate(-545.545 -107.613)"/><path d="M571.025,214.508c-.278,3.325-1.062,6.878-3.585,9.082s-7.169,2.084-8.572-.936c-.448-.9-.515-1.94-.95-2.836-.995-2.052-3.441-2.85-5.579-3.652-6.071-2.272-11.928-6.721-13.232-13.088a13.752,13.752,0,0,1-.237-1.747,14.122,14.122,0,0,0,.237,3.988c1.3,6.349,7.169,10.816,13.232,13.088,2.137.8,4.584,1.6,5.579,3.652.448.9.524,1.931.95,2.836,1.411,3.02,6.067,3.137,8.572.936s3.284-5.758,3.585-9.082a51.228,51.228,0,0,0,.139-5.26C571.164,212.5,571.105,213.509,571.025,214.508Z" transform="translate(-538.823 -158.754)"/><path d="M687.93,129.242v1.94c.251-8.334,3.307-16.713,3.006-24.873C690.7,113.856,688.1,121.571,687.93,129.242Z" transform="translate(-621.119 -106.31)"/><path d="M657.813,207.678a5.783,5.783,0,0,0,.1-1.618,8.963,8.963,0,0,0-1.2-3.275c-2.59-4.929-5.543-9.974-5.892-15.445,0,.233-.031.448-.036.7-.179,6.067,3.1,11.619,5.928,16.986A10.755,10.755,0,0,1,657.813,207.678Z" transform="translate(-600.617 -151.033)"/><path d="M672.206,217.156a36.46,36.46,0,0,1-4.521,15.467c-2.366,4.306-6.546,8.594-11.39,7.765a1.9,1.9,0,0,1-1.156-.524,1.123,1.123,0,0,1-.211-.349c-.054.349-.1.7-.125,1.062a2.065,2.065,0,0,0,.336,1.528,1.9,1.9,0,0,0,1.156.524c4.844.829,9.024-3.459,11.39-7.765a36.46,36.46,0,0,0,4.521-15.468c.054-1.048.058-2.092.027-3.137C672.224,216.56,672.224,216.856,672.206,217.156Z" transform="translate(-602.818 -166.994)"/></g><path class="v" d="M695.31,512.191s11.341,4.759,18.819-5.771" transform="translate(-423.451 -298.958)"/><path class="v" d="M700.29,534.49s9.262-6.022,21.06-.2" transform="translate(-426.199 -312.94)"/><path class="v" d="M561.93,529.146s3.889-8.773,14.276-2.083" transform="translate(-349.834 -308.963)"/><path class="g" d="M533.79,234.452l7.931-7.169s30.751-2.016,32.024,8.437c0,0,10.9-12.394,33.83-9.634l9.7,7.725-26.813,11.766-26.055,9.038-19.191-8.59Z" transform="translate(-334.303 -144.013)"/><path class="e" d="M533.79,235.452l7.931-7.169s30.751-2.016,32.024,8.437c0,0,10.9-12.394,33.83-9.634l9.7,7.725-26.813,11.766-26.055,9.038-19.191-8.59Z" transform="translate(-334.303 -144.565)"/><path class="g" d="M437.38,204.83l3.508,41.971,37.19,1.868-1.613-41.792-.031-.7Z" transform="translate(-241.402 -113.047)"/><path class="f" d="M437.38,202.83l3.508,41.971,37.19,1.868-1.613-41.792-.031-.7Z" transform="translate(-241.402 -111.943)"/><path class="g" d="M588.074,202.83l-38.364,5.753v42.159l37.49-5.417Z" transform="translate(-303.4 -111.943)"/><path class="f" d="M588.074,200.83l-38.364,5.753v42.159l37.49-5.417Z" transform="translate(-303.4 -110.839)"/><path class="i" d="M589.613,223.79l-20.723,2.3.453,7.062,20.257-2.213Z" transform="translate(-313.986 -123.512)"/><path class="o" d="M537.181,344.038l2.11,5.677s3.136,2.688,6.569,1.344,6.425-2.012,7.917-3.32,3.585-7.882,3.585-7.882,2.092-7.169,4.181-8.961,7.617-26.486,0-24.07S548.1,331.644,548.1,331.644a5.313,5.313,0,0,1-3.284,1.792c-1.94.152-5.825-.3-6.573,1.344S534.94,340.754,537.181,344.038Z" transform="translate(-335.678 -188.705)"/><path class="g" d="M624.431,255.625a12.9,12.9,0,0,1-11.251-2.8l1.617,41.787a11.4,11.4,0,0,0,9.634,3.181Z" transform="translate(-378.121 -158.989)"/><path class="c" d="M624.431,253.625a12.9,12.9,0,0,1-11.251-2.8l1.617,41.787a11.4,11.4,0,0,0,9.634,3.181Z" transform="translate(-378.121 -157.885)"/><path class="g" d="M640.29,241.44s15.606-4.772,19.675-4.1" transform="translate(-393.083 -150.41)"/><path class="g" d="M579.584,238.534s-15.127-3.585-17.654-2.567" transform="translate(-349.834 -149.587)"/><path class="g" d="M662.25,244.823s10.436-3.827,14.208-2.007" transform="translate(-405.204 -153.197)"/><path class="g" d="M650.52,452.46a34.309,34.309,0,0,1,5.144-3.195,83.936,83.936,0,0,0,7.617-4.655" transform="translate(-398.73 -264.843)"/><path class="g" d="M547.525,360.08s-6.546,5.354-8.513,5.825-3.181,4.646-3.181,4.646" transform="translate(-335.429 -218.189)"/><path class="o" d="M680.53,342.274l-2.088,5.691s-3.136,2.688-6.573,1.344-6.421-2.012-7.917-3.32-3.585-7.882-3.585-7.882-2.088-7.169-4.181-8.961-7.617-26.486,0-24.07,13.442,24.819,13.442,24.819a5.313,5.313,0,0,0,3.284,1.792c1.94.152,5.825-.3,6.573,1.344S682.77,339,680.53,342.274Z" transform="translate(-399.704 -187.739)"/><path class="g" d="M707.15,364.94s4.279,2.751,4.261,6.04" transform="translate(-429.985 -220.871)"/><circle class="o" cx="20.015" cy="20.015" r="20.015" transform="translate(220.842 24.29)"/><path class="p" d="M585.862,104.307c2.429-.381,4.557-1.792,6.878-2.6,5.193-1.824,10.937-.574,16.193,1.071a21,21,0,0,0,6.179,1.344,6.254,6.254,0,0,0,5.44-2.688,6.078,6.078,0,0,0-.036-5.614A15.813,15.813,0,0,0,616.86,91.3c-4.66-4.4-10.44-8.513-16.834-8.065a23.168,23.168,0,0,0-7.4,2.119,81.556,81.556,0,0,0-8.684,4.373c-2.155,1.25-6.148,2.921-7.389,5.207C573.733,100.086,581.471,105,585.862,104.307Z" transform="translate(-357.573 -65.374)"/><path class="g" d="M620.55,115.309A6.254,6.254,0,0,1,615.11,118a21.018,21.018,0,0,1-6.183-1.317c-5.256-1.644-11-2.9-16.193-1.071-2.316.811-4.449,2.24-6.878,2.6-3.54.556-9.239-2.527-9.858-6.448-.695,4.53,5.915,8.41,9.858,7.792,2.429-.381,4.561-1.792,6.878-2.6,5.2-1.828,10.938-.574,16.193,1.071a20.168,20.168,0,0,0,6.183,1.317,6.3,6.3,0,0,0,5.44-2.688,5.247,5.247,0,0,0,.627-3.275,4.83,4.83,0,0,1-.627,1.931Z" transform="translate(-357.571 -81.135)"/></g></svg>